{
.appVersion = "3239";
.formatVersion = 3;
DisplayStrings = (
"AÁĂÂÄÀĀĄÅÃÆBCĆČÇĊDĎĐÐEÉĚÊËĖÈĒĘFGĞĢĠHĦIĲÍÎÏİÌĪĮJKĶLĹĽĻŁMNŃŇŅÑŊOÓÔÖÒŐŌØÕŒPÞQRŔŘŖSŚŠŞȘẞTŤȚUÚŬÛÜÙŰŪŲŮVWẂŴẄẀXYÝŶŸỲZŹŽŻaáăâäàāąåãæbcćčçċdďđðeéěêëėèēęfgğģġhħiıíîï/idotaccent ìīįĳjȷkķlĺľļłmnńňņñŋoóôöòőōøõœpþqrŕřŗsśšşșßtťțuúŭûüùűūųůvwẃŵẅẁxyýŷÿỳzźžż"
);
customParameters = (
{
name = vendorID;
value = "    ";
},
{
name = panose;
value = (
0,
0,
0,
0,
0,
0,
0,
0,
0,
0
);
},
{
name = unicodeRanges;
value = (
0,
1,
5,
31,
33,
35
);
},
{
name = codePageRanges;
value = (
"1252"
);
},
{
name = fsType;
value = (
);
},
{
name = blueScale;
value = 0.04;
},
{
name = blueShift;
value = 7;
},
{
name = blueFuzz;
value = 1;
},
{
name = TTFBlueFuzz;
value = 1;
},
{
name = "Use Typo Metrics";
value = 1;
},
{
name = "Use Extension Kerning";
value = 1;
}
);
date = "2023-10-25 20:34:19 +0000";
familyName = "Madimi One";
featurePrefixes = (
{
automatic = 1;
code = "languagesystem DFLT dflt;

languagesystem latn dflt;
languagesystem latn AZE;
languagesystem latn CRT;
languagesystem latn KAZ;
languagesystem latn TAT;
languagesystem latn TRK;
languagesystem latn ROM;
languagesystem latn MOL;
languagesystem latn CAT;
";
name = Languagesystems;
}
);
features = (
{
automatic = 1;
code = "feature locl;
feature ordn;
feature case;
";
tag = aalt;
},
{
automatic = 1;
code = "lookup ccmp_Other_1 {
	@CombiningTopAccents = [acutecomb brevecomb caroncomb circumflexcomb commaturnedabovecomb dieresiscomb dotaccentcomb gravecomb hungarumlautcomb macroncomb ringcomb tildecomb];
	lookupflag UseMarkFilteringSet @CombiningTopAccents;
	sub i' @CombiningTopAccents by idotless;
	sub j' @CombiningTopAccents by jdotless;
} ccmp_Other_1;

lookup ccmp_latn_1 {
	lookupflag 0;
	sub fi by f i;
	sub fl by f l;
} ccmp_latn_1;

script latn;
lookup ccmp_latn_1;
";
tag = ccmp;
},
{
automatic = 1;
code = "script latn;
language AZE;
lookup locl_latn_0 {
	sub i by idotaccent;
} locl_latn_0;
language CRT;
lookup locl_latn_0;
language KAZ;
lookup locl_latn_0;
language TAT;

glyphs = (
{
color = 7;
glyphname = A;
kernLeft = KO_A;
kernRight = KO_A;
lastChange = "2024-02-07 12:28:29 +0000";
layers = (
{
anchors = (
{
name = bottom;
pos = (302,0);
},
{
name = ogonek;
pos = (432,0);
},
{
name = top;
pos = (298,700);
}
);
hints = (
{
horizontal = 1;
place = (652,72);
type = Stem;
},
{
horizontal = 1;
place = (313,73);
type = Stem;
},
{
horizontal = 1;
place = (-24,21);
target = up;
type = BottomGhost;
},
{
place = (410,91);
type = Stem;
},
{
place = (73,90);
type = Stem;
}
);
layerId = "2F065738-4B59-43EB-A5F2-FD5F277958EA";
shapes = (
{
closed = 1;
nodes = (
(211,186,ls),
(211,241,o),
(239,259,o),
(298,259,cs),
(338,259,o),
(367,277,o),
(392,300,c),
(392,59,ls),
(392,15,o),
(420,-8,o),
(466,-8,cs),
(513,-8,o),
(536,13,o),
(536,59,cs),
(536,455,ls),
(536,636,o),
(460,711,o),
(298,711,cs),
(139,711,o),
(67,639,o),
(67,455,cs),
(67,59,ls),
(67,15,o),
(95,-8,o),
(141,-8,cs),
(188,-8,o),
(211,13,o),
(211,59,cs)
);
},
{
closed = 1;
nodes = (
(209,373,o),
(210,409,o),
(210,461,cs),
(210,562,o),
(230,594,o),
(297,594,cs),
(369,594,o),
(393,563,o),
(393,465,cs),
(393,398,o),
(374,386,o),
(298,386,cs),
(255,386,o),
(226,373,o),
(205,352,c)
);
}
);
width = 603;
}
);
unicode = 65;
userData = {
KernOnName = A;
};
},
{
color = 7;
glyphname = Aogonek;
kernLeft = KO_A;
kernRight = KO_A;
lastChange = "2024-01-30 19:42:45 +0000";
layers = (
{
layerId = "2F065738-4B59-43EB-A5F2-FD5F277958EA";
shapes = (
{
ref = A;
},
{
closed = 1;
nodes = (
(536,-256,o),
(559,-233,o),
(559,-201,cs),
(559,-176,o),
(544,-159,o),
(519,-157,cs),
(465,-153,o),
(433,-133,o),
(433,-102,cs),
(433,-67,o),
(454,-38,o),
(500,-9,cs),
(526,7,o),
(536,28,o),
(536,63,c),
(434,21,l),
(374,-20,o),
(344,-73,o),
(344,-140,cs),
(344,-208,o),
(410,-256,o),
(504,-256,cs)
);
}
);
width = 603;
},
{
associatedMasterId = "2F065738-4B59-43EB-A5F2-FD5F277958EA";
layerId = "7C4D6A68-9CFC-4890-92A2-DEC37F26870A";
name = "22 Jan 24, 20:00";
shapes = (
{
ref = A;
},
{
closed = 1;
nodes = (
(528,-230,o),
(545,-205,o),
(545,-181,cs),
(545,-160,o),
(532,-141,o),
(508,-141,cs),
(467,-141,o),
(446,-125,o),
(446,-99,cs),
(446,-70,o),
(461,-48,o),
(520,10,c),
(524,20,o),
(515,21,o),
(483,21,cs),
(463,21,o),
(443,18,o),
(435,10,cs),
(391,-33,o),
(367,-81,o),
(367,-135,cs),
(367,-194,o),
(422,-230,o),
(493,-230,cs)
);
}
);
width = 603;
}
);
unicode = 260;
},
{
color = 7;
glyphname = AE;
kernLeft = KO_A;
kernRight = KO_E;
layers = (
{
anchors = (
{
name = bottom;
pos = (478,0);
},
{
name = ogonek;
pos = (464,0);
},
{
name = top;
pos = (478,700);
}
);
hints = (
{
horizontal = 1;
place = (652,72);
type = Stem;
},
{
horizontal = 1;
place = (313,73);
type = Stem;
},
{
horizontal = 1;
place = (-24,21);
target = up;
type = BottomGhost;
},
{
place = (410,91);
type = Stem;
},
{
place = (73,90);
type = Stem;
}
);
layerId = "2F065738-4B59-43EB-A5F2-FD5F277958EA";
shapes = (
{
closed = 1;
nodes = (
(187,-8,o),
(211,14,o),
(211,56,cs),
(211,186,ls),
(211,241,o),
(239,259,o),
(298,259,cs),
(338,259,o),
(367,277,o),
(392,300,c),
(392,94,ls),
(392,54,o),
(418,32,o),
(464,32,cs),
(511,32,o),
(536,53,o),
(536,94,cs),
(535,112,l),
(507,129,l),
(507,203,l),
(511,355,l),
(535,461,o),
(531,462,o),
(531,463,cs),
(531,470,o),
(531,474,o),
(530,481,cs),
(530,482,o),
(534,484,o),
(534,485,cs),
(527,644,o),
(451,711,o),
(298,711,cs),
(139,711,o),
(67,639,o),
(67,455,cs),
(67,56,ls),
(67,14,o),
(89,-8,o),
(139,-8,cs)
);
},
{
closed = 1;
nodes = (
(209,373,o),
(210,409,o),
(210,461,cs),
(210,562,o),
(230,594,o),
(297,594,cs),
(369,594,o),
(392,563,o),
(392,465,cs),
(392,398,o),
(374,386,o),
(298,386,cs),
(255,386,o),
(226,373,o),
(205,352,c)
);
},
{
alignment = -1;
pos = (320,0);
ref = E;
}
);
width = 864;
}
);
metricLeft = A;
metricRight = E;
unicode = 198;
},
{
color = 7;
glyphname = B;
kernLeft = KO_A;
kernRight = KO_B;
lastChange = "2024-01-31 21:15:29 +0000";
layers = (
{
anchors = (
{
name = bottom;
pos = (304,0);
},
{
name = center;
pos = (304,350);
},
{
name = top;
pos = (304,700);
}
);
hints = (
{
horizontal = 1;
place = (653,72);
type = Stem;
},
{
horizontal = 1;
place = (315,72);
type = Stem;
},
{
horizontal = 1;
place = (-24,72);
type = Stem;
},
{
place = (389,90);
type = Stem;
},
{
place = (51,90);
type = Stem;
}
);
layerId = "2F065738-4B59-43EB-A5F2-FD5F277958EA";
shapes = (
{
closed = 1;
nodes = (
(316,0,ls),
(487,0,o),
(567,71,o),
(567,204,cs),
(567,296,o),
(540,344,o),
(475,373,c),
(516,397,o),
(537,447,o),
(537,503,cs),
(537,641,o),
(456,711,o),
(316,711,cs),
(105,711,o),
(67,590,o),
(67,503,cs),
(67,53,ls),
(67,22,o),
(86,0,o),
(112,0,cs)
);
},
{
closed = 1;
nodes = (
(211,204,ls),
(211,299,o),
(233,325,o),
(316,325,cs),
(393,325,o),
(423,291,o),
(423,204,cs),
(423,142,o),
(396,116,o),
(316,116,cs),
(211,116,l)
);
},
{
closed = 1;
nodes = (
(210,423,o),
(211,441,o),
(211,503,cs),
(211,571,o),
(238,596,o),
(316,596,cs),
(371,596,o),
(398,570,o),
(398,503,cs),
(398,445,o),
(379,425,o),
(316,425,cs),
(263,425,o),
(221,412,o),
(204,391,c)
);
}
);
width = 607;
}
);
unicode = 66;
userData = {
KernOnName = B;
};
},
{
color = 7;
glyphname = C;
kernLeft = KO_O;
kernRight = KO_C;
lastChange = "2024-02-07 12:23:09 +0000";
layers = (
{
anchors = (
{
name = bottom;
pos = (267,0);
},
{
name = top;
pos = (297,700);
}
);
layerId = "2F065738-4B59-43EB-A5F2-FD5F277958EA";
shapes = (
{
closed = 1;
nodes = (
(198,506,o),
(219,579,o),
(313,579,cs),
(361,579,o),
(396,568,o),
(425,568,cs),
(478,568,o),
(501,593,o),
(501,627,cs),
(501,695,o),
(416,711,o),
(338,711,cs),
(122,711,o),
(48,581,o),
(48,347,cs),
(48,113,o),
(122,-7,o),
(338,-7,cs),
(416,-7,o),
(501,9,o),
(501,77,cs),
(501,111,o),
(478,136,o),
(425,136,cs),
(396,136,o),
(361,125,o),
(313,125,cs),
(237,125,o),
(198,188,o),
(198,347,cs)
);
}
);
width = 533;
}
);
unicode = 67;
userData = {
KernOnName = C;
};
},
{
color = 7;
glyphname = Ccedilla;
kernLeft = KO_O;
kernRight = KO_C;
lastChange = "2024-01-31 21:44:58 +0000";
layers = (
{
anchors = (
{
name = bottom;
pos = (200,-226);
}
);
layerId = "2F065738-4B59-43EB-A5F2-FD5F277958EA";
shapes = (
{
ref = C;
},
{
closed = 1;
nodes = (
(347,-239,o),
(399,-200,o),
(401,-133,cs),
(402,-88,o),
(369,-45,o),
(328,-39,c),
(367,36,l),
(281,45,l),
(256,12,o),
(230,-41,o),
(229,-59,cs),
(229,-71,o),
(236,-79,o),
(248,-80,cs),
(288,-82,o),
(318,-99,o),
(317,-121,cs),
(316,-141,o),
(300,-152,o),
(267,-151,cs),
(247,-150,o),
(238,-139,o),
(218,-139,cs),
(192,-138,o),
(177,-156,o),
(177,-177,cs),
(175,-212,o),
(208,-233,o),
(267,-236,cs)
);
}
);
width = 533;
}
);
unicode = 199;
},
{
color = 7;
glyphname = D;
kernLeft = KO_A;
kernRight = KO_D;
layers = (
{
anchors = (
{
name = bottom;
pos = (308,0);
},
{
name = center;
pos = (308,350);
},
{
name = stroke;
pos = (136,351);
},
{
name = top;
pos = (308,700);
}
);
hints = (
{
horizontal = 1;
place = (652,72);
type = Stem;
},
{
horizontal = 1;
place = (-25,73);
type = Stem;
},
{
place = (389,90);
type = Stem;
},
{
place = (51,90);
type = Stem;
}
);
layerId = "2F065738-4B59-43EB-A5F2-FD5F277958EA";
shapes = (
{
closed = 1;
nodes = (
(282,0,ls),
(475,0,o),
(567,112,o),
(567,348,cs),
(567,589,o),
(473,711,o),
(287,711,cs),
(144,711,o),
(67,636,o),
(67,497,cs),
(67,51,ls),
(67,22,o),
(87,0,o),
(113,0,cs)
);
},
{
closed = 1;
nodes = (
(211,529,ls),
(211,568,o),
(236,586,o),
(289,586,cs),
(386,586,o),
(423,523,o),
(423,361,cs),
(423,190,o),
(381,118,o),
(282,118,cs),
(211,118,l)
);
}
);
width = 615;
}
);
metricRight = O;
unicode = 68;
},
{
color = 7;
glyphname = E;
kernLeft = KO_E;
kernRight = KO_E;
lastChange = "2024-01-31 21:15:29 +0000";
layers = (
{
anchors = (
{
name = bottom;
pos = (304,0);
},
{
name = ogonek;
pos = (424,0);
},
{
name = top;
pos = (304,700);
},
{
name = topleft;
pos = (20,700);
}
);
hints = (
{
horizontal = 1;
place = (652,72);
type = Stem;
},
{
horizontal = 1;
place = (314,72);
type = Stem;
},
{
horizontal = 1;
place = (-25,71);
type = Stem;
},
{
place = (51,90);
type = Stem;
}
);
layerId = "2F065738-4B59-43EB-A5F2-FD5F277958EA";
shapes = (
{
closed = 1;
nodes = (
(442,0,ls),
(493,0,o),
(512,18,o),
(512,64,cs),
(512,112,o),
(491,132,o),
(442,132,cs),
(216,132,l),
(216,198,l),
(216,272,o),
(232,291,o),
(294,291,cs),
(401,291,ls),
(437,291,o),
(460,317,o),
(460,357,cs),
(460,397,o),
(438,421,o),
(401,421,cs),
(302,421,ls),
(268,421,o),
(231,409,o),
(208,390,c),
(213,430,o),
(216,461,o),
(216,483,cs),
(216,543,o),
(243,568,o),
(310,568,cs),
(442,568,ls),
(486,568,o),
(512,592,o),
(512,633,cs),
(512,675,o),
(486,700,o),
(442,700,cs),
(317,700,ls),
(145,700,o),
(72,646,o),
(72,521,cs),
(72,53,ls),
(72,22,o),
(91,0,o),
(117,0,cs)
);
}
);
width = 544;
}
);
unicode = 69;
userData = {
KernOnName = E;
};
},
{
color = 7;
glyphname = Eogonek;
kernLeft = KO_E;
kernRight = KO_E;
lastChange = "2024-01-30 19:42:38 +0000";
layers = (
{
anchors = (
{
name = top;
pos = (272,700);
}
);
layerId = "2F065738-4B59-43EB-A5F2-FD5F277958EA";
shapes = (
{
ref = E;
},
{
closed = 1;
nodes = (
(512,-256,o),
(535,-233,o),
(535,-201,cs),
(535,-176,o),
(520,-159,o),
(495,-157,cs),
(441,-153,o),
(409,-133,o),
(409,-102,cs),
(409,-67,o),
(430,-38,o),
(476,-9,cs),
(502,7,o),
(512,28,o),
(512,63,c),
(410,21,l),
(350,-20,o),
(320,-73,o),
(320,-140,cs),
(320,-208,o),
(386,-256,o),
(480,-256,cs)
);
}
);
width = 544;
},
{
anchors = (
{
name = top;
pos = (272,700);
}
);
associatedMasterId = "2F065738-4B59-43EB-A5F2-FD5F277958EA";
layerId = "EC553254-A958-4EE5-AE80-F7E3A1224FDE";
name = "22 Jan 24, 20:01";
shapes = (
{
ref = E;
},
{
closed = 1;
nodes = (
(505,-220,o),
(522,-195,o),
(522,-171,cs),
(522,-150,o),
(509,-135,o),
(485,-131,cs),
(434,-123,o),
(406,-107,o),
(406,-80,cs),
(406,-55,o),
(423,-21,o),
(488,9,c),
(440,21,l),
(420,21,o),
(400,18,o),
(392,10,cs),
(351,-30,o),
(324,-68,o),
(324,-115,cs),
(324,-180,o),
(388,-220,o),
(470,-220,cs)
);
}
);
width = 544;
}
);
unicode = 280;
},
{
color = 7;
glyphname = F;
kernLeft = KO_F;
kernRight = KO_F;
lastChange = "2024-01-31 21:15:29 +0000";
layers = (
{
anchors = (
{
name = bottom;
pos = (248,0);
},
{
name = top;
pos = (248,700);
}
);
hints = (
{
horizontal = 1;
place = (652,72);
type = Stem;
},
{
horizontal = 1;
place = (313,72);
type = Stem;
},
{
horizontal = 1;
place = (-24,21);
target = up;
type = BottomGhost;
},
{
place = (51,89);
type = Stem;
}
);
layerId = "2F065738-4B59-43EB-A5F2-FD5F277958EA";
shapes = (
{
closed = 1;
nodes = (
(211,171,ls),
(211,241,o),
(232,260,o),
(308,260,cs),
(386,260,ls),
(430,260,o),
(455,284,o),
(455,327,cs),
(455,371,o),
(431,394,o),
(386,394,cs),
(316,394,ls),
(267,394,o),
(227,383,o),
(202,363,c),
(208,400,o),
(211,445,o),
(211,481,cs),
(211,559,o),
(218,568,o),
(276,568,cs),
(436,568,ls),
(478,568,o),
(506,594,o),
(506,633,cs),
(506,674,o),
(479,700,o),
(436,700,cs),
(221,700,ls),
(123,700,o),
(67,642,o),
(67,542,cs),
(67,59,ls),
(67,15,o),
(95,-8,o),
(141,-8,cs),
(188,-8,o),
(211,13,o),
(211,59,cs)
);
}
);
width = 496;
}
);
unicode = 70;
userData = {
KernOnName = F;
};
},
{
color = 7;
glyphname = G;
kernLeft = KO_O;
kernRight = KO_G;
lastChange = "2024-02-07 12:29:19 +0000";
layers = (
{
anchors = (
{
name = bottom;
pos = (311,0);
},
{
name = top;
pos = (311,700);
}
);
hints = (
{
horizontal = 1;
place = (653,71);
type = Stem;
},
{
horizontal = 1;
place = (314,72);
type = Stem;
},
{
horizontal = 1;
place = (-24,72);
type = Stem;
},
{
place = (389,90);
type = Stem;
},
{
place = (51,90);
type = Stem;
}
);
layerId = "2F065738-4B59-43EB-A5F2-FD5F277958EA";
shapes = (
{
closed = 1;
nodes = (
(518,-7,o),
(563,93,o),
(563,280,cs),
(563,386,o),
(552,403,o),
(483,403,cs),
(377,403,ls),
(336,403,o),
(313,388,o),
(313,345,cs),
(313,302,o),
(335,287,o),
(377,288,cs),
(447,289,l),
(438,278,o),
(433,255,o),
(433,226,cs),
(433,160,o),
(394,125,o),
(313,125,cs),
(237,125,o),
(198,188,o),
(198,347,cs),
(198,506,o),
(219,579,o),
(313,579,cs),
(361,579,o),
(396,568,o),
(425,568,cs),
(478,568,o),
(501,593,o),
(501,627,cs),
(501,695,o),
(416,711,o),
(338,711,cs),
(122,711,o),
(48,581,o),
(48,347,cs),
(48,113,o),
(122,-7,o),
(338,-7,cs)
);
}
);
width = 613;
}
);
unicode = 71;
userData = {
KernOnName = G;
};
},
{
color = 7;
glyphname = H;
kernLeft = KO_H;
kernRight = KO_H;
lastChange = "2024-01-31 21:15:29 +0000";
layers = (
{
anchors = (
{
name = bottom;
pos = (329,0);
},
{
name = center;
pos = (329,350);
},
{
name = top;
pos = (329,700);
},
{
name = topleft;
pos = (20,700);
}
);
hints = (
{
horizontal = 1;
place = (724,-20);
target = down;
type = TopGhost;
},
{
horizontal = 1;
place = (315,71);
type = Stem;
},
{
horizontal = 1;
place = (-24,21);
target = up;
type = BottomGhost;
},
{
place = (389,90);
type = Stem;
},
{
place = (51,90);
type = Stem;
}
);
layerId = "2F065738-4B59-43EB-A5F2-FD5F277958EA";
shapes = (
{
closed = 1;
nodes = (
(195,-8,o),
(216,13,o),
(216,59,cs),
(216,195,ls),
(216,286,o),
(242,314,o),
(326,314,cs),
(385,314,o),
(434,331,o),
(442,355,c),
(442,59,ls),
(442,13,o),
(466,-8,o),
(516,-8,cs),
(565,-8,o),
(586,13,o),
(586,59,cs),
(586,644,ls),
(586,689,o),
(563,711,o),
(513,711,cs),
(464,711,o),
(442,691,o),
(442,644,cs),
(442,442,l),
(344,442,ls),
(278,442,o),
(243,430,o),
(209,396,c),
(214,413,o),
(216,459,o),
(216,544,cs),
(216,644,ls),
(216,689,o),
(193,711,o),
(143,711,cs),
(94,711,o),
(72,691,o),
(72,644,cs),
(72,59,ls),
(72,13,o),
(96,-8,o),
(146,-8,cs)
);
}
);
width = 658;
}
);
unicode = 72;
userData = {
KernOnName = H;
};
},
{
color = 7;
glyphname = Hbar;
layers = (
{
hints = (
{
horizontal = 1;
place = (724,-20);
target = down;
type = TopGhost;
},
{
horizontal = 1;
place = (315,71);
type = Stem;
},
{
horizontal = 1;
place = (-24,21);
target = up;
type = BottomGhost;
},
{
place = (389,90);
type = Stem;
},
{
place = (51,90);
type = Stem;
}
);
layerId = "2F065738-4B59-43EB-A5F2-FD5F277958EA";
shapes = (
{
closed = 1;
nodes = (
(192,-8,o),
(213,13,o),
(213,59,cs),
(213,125,ls),
(213,218,o),
(240,244,o),
(323,244,cs),
(382,244,o),
(431,261,o),
(439,285,c),
(439,59,ls),
(439,13,o),
(463,-8,o),
(513,-8,cs),
(562,-8,o),
(583,13,o),
(583,59,cs),
(583,644,ls),
(583,690,o),
(559,711,o),
(510,711,cs),
(460,711,o),
(439,690,o),
(439,644,cs),
(439,372,l),
(341,372,ls),
(274,372,o),
(240,360,o),
(206,326,c),
(211,344,o),
(213,392,o),
(213,474,cs),
(213,644,ls),
(213,690,o),
(189,711,o),
(140,711,cs),
(90,711,o),
(69,690,o),
(69,644,cs),
(69,59,ls),
(69,13,o),
(93,-8,o),
(143,-8,cs)
);
},
{
closed = 1;
nodes = (
(580,461,ls),
(622,461,o),
(648,476,o),
(648,513,cs),
(648,550,o),
(622,565,o),
(580,565,cs),
(72,565,ls),
(30,565,o),
(4,550,o),
(4,513,cs),
(4,476,o),
(30,461,o),
(72,461,cs)
);
}
);
width = 652;
}
);
metricLeft = T;
metricRight = T;
unicode = 294;
},
{
color = 7;
glyphname = I;
kernLeft = KO_H;
kernRight = KO_H;
layers = (
{
anchors = (
{
name = bottom;
pos = (146,0);
},
{
name = ogonek;
pos = (146,0);
},
{
name = top;
pos = (144,700);
},
{
name = topleft;
pos = (20,700);
}
);
background = {
shapes = (
{
closed = 1;
nodes = (
(-277,122,ls),
(-325,122,o),
(-344,105,o),
(-344,62,cs),
(-344,17,o),
(-325,0,o),
(-277,0,cs),
(-26,0,ls),
(27,0,o),
(48,17,o),
(48,62,cs),
(48,105,o),
(27,122,o),
(-26,122,cs),
(-79,122,l),
(-79,500,ls),
(-79,558,o),
(-85,571,o),
(-113,578,c),
(-26,578,ls),
(27,578,o),
(48,595,o),
(48,640,cs),
(48,683,o),
(27,700,o),
(-26,700,cs),
(-277,700,ls),
(-325,700,o),
(-344,683,o),
(-344,640,cs),
(-344,595,o),
(-325,578,o),
(-277,578,cs),
(-223,578,l),
(-223,200,ls),
(-223,142,o),
(-217,129,o),
(-189,122,c)
);
}
);
};
hints = (
{
horizontal = 1;
place = (652,72);
type = Stem;
},
{
horizontal = 1;
place = (-24,72);
type = Stem;
},
{
place = (220,90);
type = Stem;
}
);
layerId = "2F065738-4B59-43EB-A5F2-FD5F277958EA";
shapes = (
{
closed = 1;
nodes = (
(195,-8,o),
(216,13,o),
(216,59,cs),
(216,644,ls),
(216,689,o),
(193,711,o),
(143,711,cs),
(94,711,o),
(72,691,o),
(72,644,cs),
(72,59,ls),
(72,13,o),
(96,-8,o),
(146,-8,cs)
);
}
);
width = 288;
}
);
unicode = 73;
},
{
color = 7;
glyphname = IJ;
kernRight = KO_H;
layers = (
{
hints = (
{
horizontal = 1;
place = (652,72);
type = Stem;
},
{
horizontal = 1;
place = (-24,72);
type = Stem;
},
{
place = (220,90);
type = Stem;
}
);
layerId = "2F065738-4B59-43EB-A5F2-FD5F277958EA";
shapes = (
{
closed = 1;
nodes = (
(195,108,o),
(216,129,o),
(216,175,cs),
(216,644,ls),
(216,689,o),
(193,711,o),
(143,711,cs),
(94,711,o),
(72,691,o),
(72,644,cs),
(72,175,ls),
(72,129,o),
(96,108,o),
(146,108,cs)
);
},
{
closed = 1;
nodes = (
(405,-119,o),
(482,-52,o),
(482,78,cs),
(482,633,ls),
(482,685,o),
(458,711,o),
(410,711,cs),
(362,711,o),
(338,685,o),
(338,633,cs),
(338,100,ls),
(338,36,o),
(318,13,o),
(261,13,cs),
(229,13,o),
(183,20,o),
(153,20,cs),
(101,20,o),
(79,-1,o),
(79,-40,cs),
(79,-68,o),
(91,-84,o),
(121,-97,cs),
(154,-111,o),
(205,-119,o),
(256,-119,cs)
);
}
);
width = 554;
},
{
anchors = (
{
name = bottom;
pos = (146,0);
},
{
name = ogonek;
pos = (146,0);
},
{
name = top;
pos = (144,700);
},
{
name = topleft;
pos = (20,700);
}
);
associatedMasterId = "2F065738-4B59-43EB-A5F2-FD5F277958EA";
hints = (
{
horizontal = 1;
place = (652,72);
type = Stem;
},
{
horizontal = 1;
place = (-24,72);
type = Stem;
},
{
place = (220,90);
type = Stem;
}
);
layerId = "D97E426A-47BA-401F-8FDF-C8B66C06161E";
name = "8 Jan 24, 19:10";
shapes = (
{
closed = 1;
nodes = (
(247,102,o),
(268,123,o),
(268,169,cs),
(268,644,ls),
(268,690,o),
(244,711,o),
(195,711,cs),
(145,711,o),
(124,690,o),
(124,644,cs),
(124,169,ls),
(124,123,o),
(148,102,o),
(198,102,cs)
);
},
{
pos = (173,0);
ref = J;
}
);
width = 788;
},
{
anchors = (
{
name = bottom;
pos = (126,0);
},
{
name = ogonek;
pos = (27,0);
},
{
name = top;
pos = (126,700);
},
{
name = topleft;
pos = (-99,700);
}
);
associatedMasterId = "2F065738-4B59-43EB-A5F2-FD5F277958EA";
hints = (
{
horizontal = 1;
place = (652,72);
type = Stem;
},
{
horizontal = 1;
place = (-24,72);
type = Stem;
},
{
place = (220,90);
type = Stem;
}
);
layerId = "950E9B1D-441A-4FE3-AC90-1CA9510FFC07";
name = "8 Jan 24, 19:12";
shapes = (
{
closed = 1;
nodes = (
(195,189,o),
(216,210,o),
(216,256,cs),
(216,644,ls),
(216,690,o),
(192,711,o),
(143,711,cs),
(93,711,o),
(72,690,o),
(72,644,cs),
(72,256,ls),
(72,210,o),
(96,189,o),
(146,189,cs)
);
},
{
closed = 1;
nodes = (
(399,-8,o),
(482,54,o),
(482,189,cs),
(482,633,ls),
(482,685,o),
(458,711,o),
(410,711,cs),
(362,711,o),
(338,685,o),
(338,633,cs),
(338,211,ls),
(338,146,o),
(317,125,o),
(263,124,cs),
(226,124,o),
(186,131,o),
(152,131,cs),
(101,131,o),
(79,110,o),
(79,71,cs),
(79,43,o),
(93,25,o),
(121,14,cs),
(155,0,o),
(204,-8,o),
(255,-8,cs)
);
}
);
width = 554;
}
);
metricLeft = I;
metricRight = I;
unicode = 306;
},
{
color = 7;
glyphname = Iogonek;
kernLeft = KO_H;
kernRight = KO_H;
lastChange = "2024-01-30 19:42:35 +0000";
layers = (
{
layerId = "2F065738-4B59-43EB-A5F2-FD5F277958EA";
shapes = (
{
ref = I;
},
{
closed = 1;
nodes = (
(216,-256,o),
(239,-233,o),
(239,-201,cs),
(239,-176,o),
(224,-159,o),
(199,-157,cs),
(145,-153,o),
(113,-133,o),
(113,-102,cs),
(113,-67,o),
(134,-38,o),
(180,-9,cs),
(209,9,o),
(216,23,o),
(216,63,c),
(114,21,l),
(54,-20,o),
(24,-73,o),
(24,-140,cs),
(24,-208,o),
(90,-256,o),
(184,-256,cs)
);
}
);
width = 288;
}
);
unicode = 302;
},
{
color = 7;
glyphname = J;
kernLeft = KO_J;
kernRight = KO_J;
lastChange = "2024-01-31 21:15:29 +0000";
layers = (
{
anchors = (
{
name = bottom;
pos = (224,0);
},
{
name = top;
pos = (224,700);
}
);
layerId = "2F065738-4B59-43EB-A5F2-FD5F277958EA";
shapes = (
{
closed = 1;
nodes = (
(304,-8,o),
(375,62,o),
(375,189,cs),
(375,633,ls),
(375,685,o),
(351,711,o),
(303,711,cs),
(255,711,o),
(231,685,o),
(231,633,cs),
(231,211,ls),
(231,146,o),
(217,124,o),
(174,124,cs),
(149,124,o),
(113,131,o),
(84,131,cs),
(35,131,o),
(12,110,o),
(12,71,cs),
(12,43,o),
(24,27,o),
(54,14,cs),
(82,2,o),
(125,-8,o),
(174,-8,cs)
);
}
);
width = 447;
},
{
anchors = (
{
name = bottom;
pos = (245,0);
},
{
name = top;
pos = (245,700);
}
);
associatedMasterId = "2F065738-4B59-43EB-A5F2-FD5F277958EA";
layerId = "D7D01A33-CCDB-4814-B4C0-9A208C0D930C";
name = "8 Jan 24 at 01:28";
shapes = (
{
closed = 1;
nodes = (
(345,-8,o),
(428,54,o),
(428,189,cs),
(428,633,ls),
(428,685,o),
(404,711,o),
(356,711,cs),
(308,711,o),
(284,685,o),
(284,633,cs),
(284,211,ls),
(284,146,o),
(263,125,o),
(209,124,cs),
(172,124,o),
(132,131,o),
(98,131,cs),
(47,131,o),
(25,110,o),
(25,71,cs),
(25,43,o),
(39,25,o),
(67,14,cs),
(101,0,o),
(150,-8,o),
(201,-8,cs)
);
}
);
width = 495;
}
);
unicode = 74;
userData = {
KernOnName = J;
};
},
{
color = 7;
glyphname = K;
kernLeft = KO_H;
kernRight = KO_K;
lastChange = "2024-02-07 12:30:24 +0000";
layers = (
{
anchors = (
{
name = bottom;
pos = (298,0);
},
{
name = top;
pos = (298,700);
}
);
layerId = "2F065738-4B59-43EB-A5F2-FD5F277958EA";
name = Bold;
shapes = (
{
closed = 1;
nodes = (
(521,-8,o),
(545,17,o),
(545,62,cs),
(545,215,ls),
(545,290,o),
(508,347,o),
(438,377,c),
(497,422,o),
(524,503,o),
(524,636,cs),
(524,687,o),
(500,711,o),
(450,711,cs),
(403,711,o),
(383,690,o),
(383,641,cs),
(383,509,o),
(361,457,o),
(295,438,cs),
(248,424,o),
(235,417,o),
(216,398,c),
(216,633,ls),
(216,685,o),
(192,711,o),
(144,711,cs),
(96,711,o),
(72,685,o),
(72,633,cs),
(72,70,ls),
(72,18,o),
(96,-8,o),
(144,-8,cs),
(192,-8,o),
(216,18,o),
(216,70,cs),
(216,220,ls),
(216,289,o),
(248,314,o),
(316,314,cs),
(379,314,o),
(402,281,o),
(402,217,cs),
(402,62,ls),
(402,15,o),
(427,-8,o),
(477,-8,cs)
);
}
);
width = 595;
}
);
unicode = 75;
userData = {
KernOnName = K;
};
},
{
color = 7;
glyphname = L;
kernLeft = KO_H;
kernRight = KO_L;
lastChange = "2024-01-31 21:15:29 +0000";
layers = (
{
anchors = (
{
name = bottom;
pos = (258,0);
},
{
name = center;
pos = (258,350);
},
{
name = top;
pos = (258,700);
},
{
name = topright;
pos = (280,777);
}
);
layerId = "2F065738-4B59-43EB-A5F2-FD5F277958EA";
shapes = (
{
closed = 1;
nodes = (
(419,0,ls),
(469,0,o),
(496,24,o),
(496,69,cs),
(496,114,o),
(468,139,o),
(419,139,cs),
(272,139,ls),
(249,139,o),
(224,127,o),
(208,108,c),
(212,129,o),
(216,167,o),
(216,189,cs),
(216,633,ls),
(216,685,o),
(192,711,o),
(144,711,cs),
(96,711,o),
(72,685,o),
(72,633,cs),
(72,78,ls),
(72,26,o),
(96,0,o),
(144,0,cs)
);
}
);
width = 516;
}
);
unicode = 76;
userData = {
KernOnName = L;
};
},
{
color = 7;
glyphname = Lslash;
kernRight = KO_Lslash;
layers = (
{
layerId = "2F065738-4B59-43EB-A5F2-FD5F277958EA";
shapes = (
{
closed = 1;
nodes = (
(328,393,ls),
(366,410,o),
(384,434,o),
(369,468,cs),
(354,502,o),
(324,505,o),
(286,488,cs),
(50,383,ls),
(12,366,o),
(-6,342,o),
(9,308,cs),
(24,274,o),
(54,271,o),
(92,288,cs)
);
},
{
pos = (20,0);
ref = L;
}
);
width = 536;
}
);
metricLeft = T;
metricRight = L;
unicode = 321;
},
{
color = 7;
glyphname = M;
kernLeft = KO_A;
kernRight = KO_A;
lastChange = "2024-01-31 21:15:29 +0000";
layers = (
{
anchors = (
{
name = bottom;
pos = (453,0);
},
{
name = top;
pos = (453,700);
}
);
hints = (
{
horizontal = 1;
place = (652,72);
type = Stem;
},
{
horizontal = 1;
place = (-23,21);
target = up;
type = BottomGhost;
},
{
horizontal = 1;
place = (-24,21);
target = up;
type = BottomGhost;
},
{
place = (727,90);
type = Stem;
},
{
place = (389,90);
type = Stem;
},
{
place = (51,90);
type = Stem;
}
);
layerId = "2F065738-4B59-43EB-A5F2-FD5F277958EA";
shapes = (
{
closed = 1;
nodes = (
(211,480,ls),
(211,546,o),
(239,579,o),
(296,579,cs),
(354,579,o),
(381,541,o),
(381,460,cs),
(381,79,ls),
(381,25,o),
(404,2,o),
(455,2,cs),
(505,2,o),
(525,24,o),
(525,79,cs),
(525,460,ls),
(525,542,o),
(552,579,o),
(610,579,cs),
(667,579,o),
(695,547,o),
(695,480,cs),
(695,69,ls),
(695,15,o),
(718,-8,o),
(769,-8,cs),
(819,-8,o),
(839,14,o),
(839,69,cs),
(839,472,ls),
(839,634,o),
(775,711,o),
(639,711,cs),
(539,711,o),
(473,670,o),
(452,595,c),
(431,669,o),
(364,711,o),
(267,711,cs),
(135,711,o),
(67,629,o),
(67,472,cs),
(67,59,ls),
(67,15,o),
(95,-8,o),
(141,-8,cs),
(188,-8,o),
(211,13,o),
(211,59,cs)
);
}
);
width = 906;
}
);
unicode = 77;
userData = {
KernOnName = M;
};
},
{
color = 7;
glyphname = N;
kernLeft = KO_A;
kernRight = KO_A;
lastChange = "2024-01-31 21:15:29 +0000";
layers = (
{
anchors = (
{
name = bottom;
pos = (324,0);
},
{
name = top;
pos = (324,700);
}
);
hints = (
{
horizontal = 1;
place = (652,72);
type = Stem;
},
{
horizontal = 1;
place = (-23,21);
target = up;
type = BottomGhost;
},
{
horizontal = 1;
place = (-24,21);
target = up;
type = BottomGhost;
},
{
place = (389,90);
type = Stem;
},
{
place = (51,90);
type = Stem;
},
{
place = (187,90);
type = Stem;
},
{
place = (525,90);
type = Stem;
}
);
layerId = "2F065738-4B59-43EB-A5F2-FD5F277958EA";
shapes = (
{
closed = 1;
nodes = (
(211,452,ls),
(211,549,o),
(231,589,o),
(326,589,cs),
(406,589,o),
(437,551,o),
(437,452,cs),
(437,59,ls),
(437,15,o),
(465,-8,o),
(511,-8,cs),
(558,-8,o),
(581,13,o),
(581,59,cs),
(581,452,ls),
(581,641,o),
(494,711,o),
(326,711,cs),
(136,711,o),
(67,639,o),
(67,452,cs),
(67,59,ls),
(67,15,o),
(95,-8,o),
(141,-8,cs),
(188,-8,o),
(211,13,o),
(211,59,cs)
);
}
);
width = 648;
}
);
unicode = 78;
userData = {
KernOnName = N;
};
},
{
color = 7;
glyphname = Eng;
kernLeft = KO_A;
kernRight = KO_A;
layers = (
{
anchors = (
{
name = bottom;
pos = (324,-250);
},
{
name = top;
pos = (324,700);
}
);
hints = (
{
horizontal = 1;
place = (652,72);
type = Stem;
},
{
horizontal = 1;
place = (-23,21);
target = up;
type = BottomGhost;
},
{
horizontal = 1;
place = (-24,21);
target = up;
type = BottomGhost;
},
{
place = (389,90);
type = Stem;
},
{
place = (51,90);
type = Stem;
},
{
place = (187,90);
type = Stem;
},
{
place = (525,90);
type = Stem;
}
);
layerId = "2F065738-4B59-43EB-A5F2-FD5F277958EA";
shapes = (
{
closed = 1;
nodes = (
(520,-206,o),
(581,-146,o),
(581,-9,cs),
(581,113,l),
(437,113,l),
(437,12,ls),
(437,-51,o),
(428,-72,o),
(384,-72,cs),
(300,-72,o),
(240,-57,o),
(240,-128,cs),
(240,-196,o),
(310,-206,o),
(377,-206,cs)
);
},
{
alignment = -1;
ref = N;
}
);
width = 648;
}
);
unicode = 330;
},
{
color = 7;
glyphname = O;
kernLeft = KO_O;
kernRight = KO_O;
lastChange = "2024-02-07 12:30:41 +0000";
layers = (
{
anchors = (
{
name = bottom;
pos = (320,0);
},
{
name = center;
pos = (320,350);
},
{
name = ogonek;
pos = (576,10);
},
{
name = top;
pos = (320,700);
},
{
name = topleft;
pos = (20,700);
},
{
name = topright;
pos = (620,700);
}
);
hints = (
{
horizontal = 1;
place = (652,72);
type = Stem;
},
{
horizontal = 1;
place = (-24,72);
type = Stem;
},
{
place = (389,90);
type = Stem;
},
{
place = (51,90);
type = Stem;
}
);
layerId = "2F065738-4B59-43EB-A5F2-FD5F277958EA";
shapes = (
{
closed = 1;
nodes = (
(495,-8,o),
(592,85,o),
(592,354,cs),
(592,623,o),
(495,711,o),
(320,711,cs),
(145,711,o),
(48,623,o),
(48,354,cs),
(48,85,o),
(145,-8,o),
(320,-8,cs)
);
},
{
closed = 1;
nodes = (
(241,124,o),
(192,169,o),
(192,354,cs),
(192,539,o),
(241,579,o),
(320,579,cs),
(399,579,o),
(448,539,o),
(448,354,cs),
(448,169,o),
(399,124,o),
(320,124,cs)
);
}
);
width = 640;
}
);
unicode = 79;
userData = {
KernOnName = O;
};
},
{
color = 7;
glyphname = Oslash;
layers = (
{
anchors = (
{
name = bottom;
pos = (300,0);
},
{
name = top;
pos = (300,700);
}
);
layerId = "2F065738-4B59-43EB-A5F2-FD5F277958EA";
shapes = (
{
ref = O;
},
{
closed = 1;
nodes = (
(162,-20,o),
(184,-8,o),
(201,19,cs),
(214,39,l),
(253,137,l),
(466,455,l),
(548,534,l),
(598,612,ls),
(606,624,o),
(611,640,o),
(611,654,cs),
(611,690,o),
(585,711,o),
(541,711,cs),
(514,711,o),
(496,700,o),
(476,671,cs),
(450,632,l),
(411,561,l),
(191,232,l),
(105,118,l),
(71,67,ls),
(66,58,o),
(63,48,o),
(63,40,cs),
(63,4,o),
(93,-20,o),
(137,-20,cs)
);
}
);
width = 640;
}
);
unicode = 216;
},
{
color = 7;
glyphname = OE;
kernLeft = KO_O;
kernRight = KO_E;
layers = (
{
anchors = (
{
name = bottom;
pos = (320,0);
},
{
name = center;
pos = (320,350);
},
{
name = ogonek;
pos = (576,10);
},
{
name = top;
pos = (320,700);
},
{
name = topleft;
pos = (20,700);
},
{
name = topright;
pos = (620,700);
}
);
hints = (
{
horizontal = 1;
place = (652,72);
type = Stem;
},
{
horizontal = 1;
place = (-24,72);
type = Stem;
},
{
place = (389,90);
type = Stem;
},
{
place = (51,90);
type = Stem;
}
);
layerId = "2F065738-4B59-43EB-A5F2-FD5F277958EA";
shapes = (
{
closed = 1;
nodes = (
(409,-8,o),
(479,29,o),
(526,99,cs),
(558,147,o),
(562,174,o),
(562,354,c),
(562,516,o),
(555,560,o),
(522,606,cs),
(473,675,o),
(404,711,o),
(320,711,cs),
(130,711,o),
(48,603,o),
(48,354,cs),
(48,103,o),
(131,-8,o),
(320,-8,cs)
);
},
{
closed = 1;
nodes = (
(229,124,o),
(192,191,o),
(192,354,cs),
(192,516,o),
(228,579,o),
(320,579,cs),
(406,579,o),
(448,506,o),
(448,354,cs),
(448,201,o),
(405,124,o),
(320,124,cs)
);
},
{
alignment = -1;
pos = (376,0);
ref = E;
}
);
width = 920;
}
);
metricLeft = O;
metricRight = E;
unicode = 338;
},
{
color = 7;
glyphname = P;
kernLeft = KO_A;
kernRight = KO_P;
lastChange = "2024-02-07 12:31:03 +0000";
layers = (
{
anchors = (
{
name = bottom;
pos = (290,0);
},
{
name = top;
pos = (290,700);
}
);
background = {
shapes = (
{
ref = B;
}
);
};
hints = (
{
horizontal = 1;
place = (653,71);
type = Stem;
},
{
horizontal = 1;
place = (314,72);
type = Stem;
},
{
horizontal = 1;
place = (-24,21);
target = up;
type = BottomGhost;
},
{
place = (389,90);
type = Stem;
},
{
place = (51,90);
type = Stem;
}
);
layerId = "2F065738-4B59-43EB-A5F2-FD5F277958EA";
shapes = (
{
closed = 1;
nodes = (
(211,156,ls),
(211,241,o),
(218,261,o),
(332,261,cs),
(466,261,o),
(544,338,o),
(544,479,cs),
(544,641,o),
(461,711,o),
(324,711,cs),
(139,711,o),
(67,635,o),
(67,486,cs),
(67,59,ls),
(67,15,o),
(95,-8,o),
(141,-8,cs),
(188,-8,o),
(211,13,o),
(211,59,cs)
);
},
{
closed = 1;
nodes = (
(209,387,o),
(211,452,o),
(211,502,cs),
(211,571,o),
(238,596,o),
(316,596,cs),
(379,596,o),
(418,584,o),
(418,479,cs),
(418,399,o),
(390,382,o),
(304,382,cs),
(241,382,o),
(225,368,o),
(202,348,c)
);
}
);
width = 580;
}
);
unicode = 80;
},
{
color = 7;
glyphname = Thorn;
kernRight = KO_Thorn;
lastChange = "2024-02-07 12:31:31 +0000";
layers = (
{
anchors = (
{
name = bottom;
pos = (300,0);
},
{
name = top;
pos = (300,700);
}
);
hints = (
{
horizontal = 1;
place = (653,71);
type = Stem;
},
{
horizontal = 1;
place = (314,72);
type = Stem;
},
{
horizontal = 1;
place = (-24,21);
target = up;
type = BottomGhost;
},
{
place = (389,90);
type = Stem;
},
{
place = (51,90);
type = Stem;
}
);
layerId = "2F065738-4B59-43EB-A5F2-FD5F277958EA";
shapes = (
{
closed = 1;
nodes = (
(188,-8,o),
(211,11,o),
(211,48,cs),
(211,72,ls),
(211,150,o),
(222,158,o),
(332,158,cs),
(468,158,o),
(544,226,o),
(544,367,cs),
(544,505,o),
(470,568,o),
(331,568,cs),
(271,568,o),
(241,555,o),
(211,518,c),
(211,655,ls),
(211,692,o),
(188,711,o),
(141,711,cs),
(95,711,o),
(67,690,o),
(67,655,cs),
(67,48,ls),
(67,13,o),
(95,-8,o),
(141,-8,cs)
);
},
{
closed = 1;
nodes = (
(209,284,o),
(211,305,o),
(211,360,cs),
(211,436,o),
(239,454,o),
(322,454,cs),
(394,454,o),
(418,437,o),
(418,365,cs),
(418,293,o),
(393,279,o),
(304,279,cs),
(254,279,o),
(233,272,o),
(202,245,c)
);
}
);
width = 580;
}
);
metricLeft = P;
metricRight = P;
unicode = 222;
},
{
color = 7;
glyphname = Q;
kernLeft = KO_O;
kernRight = KO_O;
layers = (
{
anchors = (
{
name = bottom;
pos = (320,0);
},
{
name = top;
pos = (320,700);
}
);
hints = (
{
horizontal = 1;
place = (652,72);
type = Stem;
},
{
horizontal = 1;
place = (-24,72);
type = Stem;
},
{
horizontal = 1;
place = (-20,21);
target = up;
type = BottomGhost;
},
{
place = (389,90);
type = Stem;
},
{
place = (274,92);
type = Stem;
},
{
place = (51,90);
type = Stem;
}
);
layerId = "2F065738-4B59-43EB-A5F2-FD5F277958EA";
shapes = (
{
closed = 1;
nodes = (
(494,-140,o),
(509,-131,o),
(524,-113,cs),
(536,-98,o),
(542,-84,o),
(542,-71,cs),
(542,-54,o),
(532,-37,o),
(511,-21,cs),
(353,103,ls),
(339,114,o),
(325,119,o),
(314,119,cs),
(298,119,o),
(281,109,o),
(267,92,cs),
(253,75,o),
(246,56,o),
(246,44,cs),
(246,32,o),
(254,18,o),
(272,4,cs),
(431,-120,ls),
(450,-135,o),
(463,-140,o),
(476,-140,cs)
);
},
{
alignment = -1;
ref = O;
}
);
width = 640;
}
);
unicode = 81;
},
{
color = 7;
glyphname = R;
kernLeft = KO_A;
kernRight = KO_R;
lastChange = "2024-02-07 12:32:15 +0000";
layers = (
{
anchors = (
{
name = bottom;
pos = (295,0);
},
{
name = top;
pos = (295,700);
}
);
hints = (
{
horizontal = 1;
place = (653,71);
type = Stem;
},
{
horizontal = 1;
place = (314,72);
type = Stem;
},
{
horizontal = 1;
place = (-24,21);
target = up;
type = BottomGhost;
},
{
place = (389,90);
type = Stem;
},
{
place = (51,90);
type = Stem;
}
);
layerId = "2F065738-4B59-43EB-A5F2-FD5F277958EA";
name = Bold;
shapes = (
{
closed = 1;
nodes = (
(188,-6,o),
(211,13,o),
(211,54,cs),
(211,174,ls),
(211,258,o),
(234,284,o),
(306,284,cs),
(373,284,o),
(389,258,o),
(389,186,cs),
(389,54,ls),
(389,13,o),
(417,-8,o),
(463,-8,cs),
(509,-8,o),
(532,14,o),
(532,54,cs),
(532,202,ls),
(532,240,o),
(513,277,o),
(478,306,c),
(504,325,o),
(523,354,o),
(533,390,cs),
(538,407,o),
(541,456,o),
(541,503,cs),
(541,638,o),
(464,711,o),
(321,711,cs),
(146,711,o),
(67,641,o),
(67,486,cs),
(67,54,ls),
(67,15,o),
(95,-6,o),
(141,-6,cs)
);
},
{
closed = 1;
nodes = (
(210,401,o),
(213,432,o),
(213,476,cs),
(213,565,o),
(242,597,o),
(321,597,cs),
(391,597,o),
(415,566,o),
(415,476,cs),
(415,408,o),
(404,400,o),
(304,400,cs),
(254,400,o),
(236,394,o),
(203,366,c)
);
}
);
width = 589;
}
);
unicode = 82;
},
{
color = 7;
glyphname = S;
kernLeft = KO_S;
kernRight = KO_S;
lastChange = "2024-02-07 12:33:06 +0000";
layers = (
{
anchors = (
{
name = bottom;
pos = (278,0);
},
{
name = top;
pos = (278,700);
}
);
guides = (
{
angle = 90;
pos = (303,0);
}
);
hints = (
{
horizontal = 1;
place = (653,72);
type = Stem;
},
{
horizontal = 1;
place = (314,72);
type = Stem;
},
{
horizontal = 1;
place = (-24,72);
type = Stem;
},
{
place = (388,90);
type = Stem;
},
{
place = (51,90);
type = Stem;
}
);
layerId = "2F065738-4B59-43EB-A5F2-FD5F277958EA";
shapes = (
{
closed = 1;
nodes = (
(410,-8,o),
(508,68,o),
(508,209,cs),
(508,306,o),
(467,367,o),
(341,405,cs),
(230,438,o),
(196,471,o),
(196,514,cs),
(196,560,o),
(225,579,o),
(283,579,cs),
(320,579,o),
(360,568,o),
(394,568,cs),
(445,568,o),
(467,593,o),
(467,632,cs),
(467,660,o),
(453,678,o),
(425,689,cs),
(391,703,o),
(342,711,o),
(291,711,cs),
(152,711,o),
(53,633,o),
(53,498,cs),
(53,394,o),
(115,333,o),
(263,289,cs),
(344,265,o),
(365,241,o),
(365,202,cs),
(365,137,o),
(331,121,o),
(249,121,cs),
(212,121,o),
(155,135,o),
(121,135,cs),
(70,135,o),
(48,110,o),
(48,71,cs),
(48,43,o),
(62,25,o),
(90,14,cs),
(124,0,o),
(187,-8,o),
(238,-8,cs)
);
}
);
width = 556;
}
);
unicode = 83;
userData = {
KernOnName = S;
};
},
{
color = 7;
glyphname = Scedilla;
kernLeft = KO_S;
kernRight = KO_S;
lastChange = "2024-01-31 21:44:52 +0000";
layers = (
{
anchors = (
{
name = bottom;
pos = (218,-230);
}
);
layerId = "2F065738-4B59-43EB-A5F2-FD5F277958EA";
shapes = (
{
ref = S;
},
{
closed = 1;
nodes = (
(292,-239,o),
(344,-200,o),
(346,-133,cs),
(347,-88,o),
(314,-45,o),
(273,-39,c),
(315,39,l),
(226,43,l),
(201,10,o),
(175,-41,o),
(174,-59,cs),
(174,-71,o),
(181,-79,o),
(193,-80,cs),
(233,-82,o),
(263,-99,o),
(262,-121,cs),
(261,-141,o),
(245,-152,o),
(212,-151,cs),
(192,-150,o),
(183,-139,o),
(163,-139,cs),
(137,-138,o),
(122,-156,o),
(122,-177,cs),
(120,-212,o),
(153,-233,o),
(212,-236,cs)
);
}
);
width = 556;
}
);
unicode = 350;
},
{
color = 7;
glyphname = Germandbls;
layers = (
{
anchors = (
{
name = bottom;
pos = (300,0);
},
{
name = top;
pos = (300,700);
}
);
layerId = "2F065738-4B59-43EB-A5F2-FD5F277958EA";
shapes = (
{
closed = 1;
nodes = (
(244,568,ls),
(215,568,o),
(204,548,o),
(204,526,cs),
(204,59,ls),
(204,13,o),
(183,-8,o),
(134,-8,cs),
(85,-8,o),
(60,18,o),
(60,59,cs),
(60,618,ls),
(60,665,o),
(95,700,o),
(142,700,cs),
(487,700,ls),
(533,700,o),
(554,681,o),
(554,640,cs),
(554,616,o),
(499,523,o),
(424,420,c),
(526,398,o),
(580,323,o),
(580,204,cs),
(580,61,o),
(502,-8,o),
(342,-8,cs),
(284,-8,o),
(256,10,o),
(256,49,cs),
(256,94,o),
(276,108,o),
(342,108,cs),
(405,108,o),
(436,139,o),
(436,204,cs),
(436,286,o),
(411,315,o),
(343,315,cs),
(285,315,o),
(259,333,o),
(259,372,cs),
(259,377,o),
(261,386,o),
(263,391,cs),
(271,415,o),
(306,459,o),
(364,543,cs),
(373,557,o),
(368,568,o),
(354,568,cs)
);
}
);
width = 600;
},
{
anchors = (
{
name = bottom;
pos = (300,0);
},
{
name = top;
pos = (300,700);
}
);
associatedMasterId = "2F065738-4B59-43EB-A5F2-FD5F277958EA";
layerId = "B003590E-2ED8-4B0C-91E4-51408582417B";
name = "8 Jan 24, 19:16";
shapes = (
{
closed = 1;
nodes = (
(183,-8,o),
(204,13,o),
(204,59,cs),
(204,116,ls),
(204,234,o),
(204,473,o),
(204,503,c),
(204,591,o),
(231,616,o),
(309,616,cs),
(384,616,o),
(411,580,o),
(411,503,cs),
(411,445,o),
(389,427,o),
(343,427,cs),
(312,427,o),
(259,433,o),
(259,366,cs),
(259,315,o),
(306,315,o),
(343,315,c),
(407,315,o),
(436,291,o),
(436,204,cs),
(436,142,o),
(408,116,o),
(342,116,cs),
(310,116,o),
(256,121,o),
(256,52,cs),
(256,0,o),
(304,0,o),
(342,0,cs),
(513,0,o),
(580,71,o),
(580,204,cs),
(580,296,o),
(553,344,o),
(488,373,c),
(529,397,o),
(550,447,o),
(550,503,cs),
(550,651,o),
(469,731,o),
(309,731,cs),
(98,731,o),
(60,610,o),
(60,503,cs),
(60,53,l),
(60,13,o),
(84,-8,o),
(134,-8,cs)
);
}
);
width = 600;
},
{
anchors = (
{
name = bottom;
pos = (300,0);
},
{
name = top;
pos = (300,700);
}
);
associatedMasterId = "2F065738-4B59-43EB-A5F2-FD5F277958EA";
layerId = "32EE2D9A-8B96-4B1A-9399-E1873308C4B5";
name = "8 Jan 24, 19:17";
shapes = (
{
closed = 1;
nodes = (
(183,-8,o),
(204,13,o),
(204,59,cs),
(204,116,l),
(204,585,l),
(309,585,ls),
(384,585,o),
(411,562,o),
(411,512,cs),
(411,446,o),
(389,427,o),
(343,427,cs),
(312,427,o),
(259,433,o),
(259,366,cs),
(259,315,o),
(306,315,o),
(343,315,cs),
(407,315,o),
(436,291,o),
(436,204,cs),
(436,142,o),
(408,116,o),
(342,116,cs),
(310,116,o),
(256,121,o),
(256,52,cs),
(256,0,o),
(304,0,o),
(342,0,cs),
(513,0,o),
(580,71,o),
(580,204,cs),
(580,296,o),
(553,344,o),
(488,373,c),
(529,399,o),
(550,452,o),
(550,512,cs),
(550,634,o),
(469,700,o),
(309,700,cs),
(142,700,ls),
(95,700,o),
(60,665,o),
(60,618,cs),
(60,53,ls),
(60,13,o),
(84,-8,o),
(134,-8,cs)
);
}
);
width = 600;
}
);
unicode = 7838;
},
{
color = 7;
glyphname = T;
kernLeft = KO_T;
kernRight = KO_T;
lastChange = "2024-02-07 12:32:54 +0000";
layers = (
{
anchors = (
{
name = bottom;
pos = (275,0);
},
{
name = center;
pos = (275,350);
},
{
name = top;
pos = (275,700);
}
);
hints = (
{
horizontal = 1;
place = (651,73);
type = Stem;
},
{
horizontal = 1;
place = (-24,21);
target = up;
type = BottomGhost;
},
{
place = (220,91);
type = Stem;
},
{
place = (51,89);
type = Stem;
}
);
layerId = "2F065738-4B59-43EB-A5F2-FD5F277958EA";
shapes = (
{
closed = 1;
nodes = (
(314,-8,o),
(346,8,o),
(346,41,cs),
(346,568,l),
(498,568,ls),
(530,568,o),
(545,603,o),
(545,634,cs),
(545,667,o),
(529,700,o),
(498,700,cs),
(51,700,ls),
(20,700,o),
(4,667,o),
(4,634,cs),
(4,603,o),
(19,568,o),
(51,568,cs),
(244,568,l),
(230,564,o),
(201,552,o),
(201,509,cs),
(202,41,ls),
(202,6,o),
(244,-8,o),
(278,-8,cs)
);
}
);
width = 549;
}
);
unicode = 84;
userData = {
KernOnName = T;
};
},
{
color = 7;
glyphname = U;
kernLeft = KO_U;
kernRight = KO_U;
lastChange = "2024-01-31 21:15:29 +0000";
layers = (
{
anchors = (
{
name = bottom;
pos = (315,0);
},
{
name = ogonek;
pos = (324,-8);
},
{
name = top;
pos = (323,700);
},
{
name = topright;
pos = (626,700);
}
);
hints = (
{
horizontal = 1;
place = (724,-20);
target = down;
type = TopGhost;
},
{
horizontal = 1;
place = (723,-20);
target = down;
type = TopGhost;
},
{
horizontal = 1;
place = (-24,72);
type = Stem;
},
{
place = (389,90);
type = Stem;
},
{
place = (51,90);
type = Stem;
}
);
layerId = "2F065738-4B59-43EB-A5F2-FD5F277958EA";
shapes = (
{
closed = 1;
nodes = (
(488,-8,o),
(579,74,o),
(579,235,cs),
(579,633,ls),
(579,685,o),
(555,711,o),
(507,711,cs),
(459,711,o),
(435,685,o),
(435,633,cs),
(435,235,ls),
(435,153,o),
(394,114,o),
(315,114,cs),
(250,114,o),
(211,151,o),
(211,235,cs),
(211,633,ls),
(211,685,o),
(187,711,o),
(139,711,cs),
(91,711,o),
(67,685,o),
(67,633,cs),
(67,235,ls),
(67,72,o),
(154,-8,o),
(315,-8,cs)
);
}
);
width = 646;
}
);
unicode = 85;
userData = {
KernOnName = U;
};
},
{
color = 7;
glyphname = Uogonek;
kernLeft = KO_U;
kernRight = KO_U;
lastChange = "2024-01-30 19:42:31 +0000";
layers = (
{
layerId = "2F065738-4B59-43EB-A5F2-FD5F277958EA";
shapes = (
{
ref = U;
},
{
closed = 1;
nodes = (
(456,-256,o),
(479,-233,o),
(479,-201,cs),
(479,-176,o),
(464,-159,o),
(439,-157,cs),
(385,-153,o),
(353,-133,o),
(353,-102,cs),
(353,-70,o),
(395,-19,o),
(450,15,cs),
(479,33,o),
(486,47,o),
(486,87,c),
(354,21,l),
(294,-20,o),
(264,-73,o),
(264,-140,cs),
(264,-208,o),
(330,-256,o),
(424,-256,cs)
);
}
);
width = 646;
},
{
associatedMasterId = "2F065738-4B59-43EB-A5F2-FD5F277958EA";
layerId = "79989B65-6152-4AFF-BCA4-D1001D1A29A3";
name = "22 Jan 24, 20:01";
shapes = (
{
ref = U;
},
{
closed = 1;
nodes = (
(474,-238,o),
(491,-213,o),
(491,-189,cs),
(491,-168,o),
(478,-149,o),
(454,-149,cs),
(413,-149,o),
(392,-133,o),
(392,-107,cs),
(392,-78,o),
(407,-56,o),
(466,2,c),
(472,7,o),
(544,84,o),
(537,84,c),
(531,85,o),
(443,13,o),
(429,13,cs),
(409,13,o),
(389,10,o),
(381,2,cs),
(337,-41,o),
(313,-89,o),
(313,-143,cs),
(313,-202,o),
(368,-238,o),
(439,-238,cs)
);
}
);
width = 646;
}
);
unicode = 370;
},
{
color = 7;
glyphname = V;
kernLeft = KO_V;
kernRight = KO_V;
lastChange = "2024-01-31 21:15:29 +0000";
layers = (
{
anchors = (
{
name = bottom;
pos = (290,0);
},
{
name = top;
pos = (290,700);
}
);
hints = (
{
horizontal = 1;
place = (729,-20);
target = down;
type = TopGhost;
},
{
horizontal = 1;
place = (-40,56);
type = Stem;
},
{
place = (383,75);
type = Stem;
},
{
place = (36,76);
type = Stem;
}
);
layerId = "2F065738-4B59-43EB-A5F2-FD5F277958EA";
shapes = (
{
closed = 1;
nodes = (
(378,-8,o),
(399,23,o),
(436,102,cs),
(516,253,o),
(583,389,o),
(583,556,cs),
(583,625,o),
(567,711,o),
(501,711,cs),
(442,711,o),
(421,678,o),
(421,646,cs),
(421,596,o),
(440,565,o),
(438,515,cs),
(435,416,o),
(375,315,o),
(321,160,c),
(176,614,ls),
(154,683,o),
(134,711,o),
(88,711,cs),
(40,711,o),
(3,672,o),
(25,604,cs),
(191,102,ls),
(214,33,o),
(262,-8,o),
(316,-8,cs)
);
}
);
width = 596;
}
);
unicode = 86;
userData = {
KernOnName = V;
};
},
{
color = 7;
glyphname = W;
kernLeft = KO_W;
kernRight = KO_W;
lastChange = "2024-02-07 12:35:14 +0000";
layers = (
{
hints = (
{
horizontal = 1;
place = (724,-20);
target = down;
type = TopGhost;
},
{
horizontal = 1;
place = (723,-20);
target = down;
type = TopGhost;
},
{
horizontal = 1;
place = (-24,72);
type = Stem;
},
{
place = (727,89);
type = Stem;
},
{
place = (388,91);
type = Stem;
},
{
place = (51,90);
type = Stem;
},
{
horizontal = 1;
place = (-23,71);
type = Stem;
},
{
place = (410,89);
type = Stem;
},
{
place = (127,90);
type = Stem;
},
{
place = (771,89);
type = Stem;
},
{
place = (488,90);
type = Stem;
}
);
layerId = "2F065738-4B59-43EB-A5F2-FD5F277958EA";
shapes = (
{
closed = 1;
nodes = (
(661,-8,o),
(696,22,o),
(733,101,cs),
(788,216,o),
(853,435,o),
(853,560,cs),
(853,626,o),
(837,711,o),
(771,711,cs),
(713,711,o),
(691,677,o),
(691,644,cs),
(691,609,o),
(708,589,o),
(708,498,cs),
(708,432,o),
(678,302,o),
(596,77,c),
(635,71,l),
(510,614,ls),
(496,677,o),
(470,700,o),
(427,700,cs),
(386,700,o),
(353,677,o),
(369,608,cs),
(375,582,o),
(387,555,o),
(387,513,cs),
(387,486,o),
(382,441,o),
(356,358,cs),
(273,96,l),
(299,90,l),
(171,614,ls),
(154,684,o),
(132,711,o),
(88,711,cs),
(40,711,o),
(3,672,o),
(25,604,c),
(157,102,ls),
(175,32,o),
(216,-8,o),
(273,-8,cs),
(324,-8,o),
(361,24,o),
(395,103,cs),
(424,168,o),
(460,265,o),
(473,354,c),
(439,328,l),
(494,102,ls),
(513,22,o),
(555,-8,o),
(613,-8,cs)
);
}
);
width = 866;
}
);
metricLeft = V;
metricRight = V;
unicode = 87;
userData = {
KernOnName = W;
};
},
{
color = 7;
glyphname = X;
kernLeft = KO_X;
kernRight = KO_X;
lastChange = "2024-02-07 12:36:25 +0000";
layers = (
{
anchors = (
{
name = bottom;
pos = (303,0);
},
{
name = top;
pos = (284,700);
}
);
layerId = "2F065738-4B59-43EB-A5F2-FD5F277958EA";
shapes = (
{
closed = 1;
nodes = (
(592,-8,o),
(623,23,o),
(623,63,cs),
(623,80,o),
(619,94,o),
(607,109,cs),
(174,675,ls),
(157,697,o),
(130,711,o),
(105,711,cs),
(63,711,o),
(33,681,o),
(33,640,cs),
(33,624,o),
(39,608,o),
(48,596,cs),
(471,36,ls),
(493,7,o),
(521,-8,o),
(553,-8,cs)
);
},
{
closed = 1;
nodes = (
(127,-7,o),
(141,4,o),
(162,38,cs),
(231,152,o),
(258,196,o),
(326,295,c),
(251,409,l),
(133,276,o),
(26,106,o),
(26,53,cs),
(26,22,o),
(61,-7,o),
(100,-7,cs)
);
},
{
closed = 1;
nodes = (
(505,459,o),
(573,551,o),
(594,610,cs),
(600,626,o),
(602,637,o),
(602,649,cs),
(602,686,o),
(574,710,o),
(531,710,cs),
(506,710,o),
(485,694,o),
(463,656,cs),
(416,578,o),
(340,468,o),
(310,433,c),
(398,344,l)
);
}
);
width = 649;
}
);
metricRight = "=|";
unicode = 88;
userData = {
KernOnName = X;
};
},
{
color = 7;
glyphname = Y;
kernLeft = KO_Y;
kernRight = KO_Y;
lastChange = "2024-02-07 12:36:32 +0000";
layers = (
{
anchors = (
{
name = bottom;
pos = (304,0);
},
{
name = ogonek;
pos = (299,0);
},
{
name = top;
pos = (288,700);
},
{
name = topleft;
pos = (92,700);
}
);
hints = (
{
horizontal = 1;
place = (724,-20);
target = down;
type = TopGhost;
},
{
horizontal = 1;
place = (-23,71);
type = Stem;
},
{
place = (388,89);
type = Stem;
},
{
place = (51,90);
type = Stem;
},
{
horizontal = 1;
place = (652,72);
type = Stem;
},
{
horizontal = 1;
place = (-24,72);
type = Stem;
},
{
place = (367,90);
type = Stem;
}
);
layerId = "2F065738-4B59-43EB-A5F2-FD5F277958EA";
shapes = (
{
closed = 1;
nodes = (
(325,217,l),
(509,358,o),
(552,447,o),
(552,572,cs),
(552,662,o),
(525,711,o),
(477,711,cs),
(437,711,o),
(405,685,o),
(405,652,cs),
(405,630,o),
(417,577,o),
(417,540,cs),
(417,483,o),
(391,451,o),
(311,378,c),
(175,623,l),
(141,687,o),
(122,711,o),
(78,711,cs),
(30,711,o),
(-11,660,o),
(26,599,cs),
(236,255,l)
);
},
{
closed = 1;
nodes = (
(357,-8,o),
(378,13,o),
(378,59,cs),
(378,332,l),
(234,332,l),
(234,59,ls),
(234,13,o),
(258,-8,o),
(308,-8,cs)
);
}
);
width = 575;
}
);
unicode = 89;
userData = {
KernOnName = Y;
};
},
{
color = 7;
glyphname = Z;
kernLeft = KO_Z;
kernRight = KO_Z;
lastChange = "2024-02-07 12:36:38 +0000";
layers = (
{
anchors = (
{
name = bottom;
pos = (309,0);
},
{
name = center;
pos = (309,350);
},
{
name = top;
pos = (309,700);
}
);
background = {
shapes = (
{
closed = 0;
nodes = (
(491,532,ls),
(495,538,o),
(524,579,o),
(536,598,cs),
(547,615,o),
(548,639,o),
(540,661,cs),
(530,685,o),
(507,701,o),
(482,701,cs)
);
},
{
closed = 0;
nodes = (
(118,168,ls),
(114,162,o),
(85,121,o),
(73,102,cs),
(62,85,o),
(61,61,o),
(69,39,cs),
(79,15,o),
(102,-1,o),
(127,-1,cs)
);
}
);
};
layerId = "2F065738-4B59-43EB-A5F2-FD5F277958EA";
shapes = (
{
closed = 1;
nodes = (
(496,0,ls),
(532,0,o),
(557,27,o),
(558,67,cs),
(559,108,o),
(535,139,o),
(501,139,cs),
(233,139,ls),
(230,139,o),
(266,156,o),
(286,188,cs),
(489,521,l),
(524,579,o),
(545,613,o),
(545,630,cs),
(547,670,o),
(523,700,o),
(476,700,cs),
(138,700,ls),
(98,700,o),
(69,678,o),
(67,636,cs),
(66,597,o),
(90,568,o),
(124,568,cs),
(366,568,ls),
(368,568,o),
(349,565,o),
(322,519,cs),
(173,267,o),
(112,180,o),
(86,129,cs),
(67,92,o),
(64,81,o),
(64,65,cs),
(64,33,o),
(89,0,o),
(126,0,cs)
);
}
);
width = 618;
}
);
unicode = 90;
},
{
color = 7;
glyphname = a;
kernLeft = KO_a;
kernRight = KO_a;
lastChange = "2024-02-07 12:36:46 +0000";
layers = (
{
anchors = (
{
name = bottom;
pos = (240,0);
},
{
name = ogonek;
pos = (312,0);
},
{
name = top;
pos = (255,500);
}
);
hints = (
{
horizontal = 1;
place = (323,63);
type = Stem;
},
{
horizontal = 1;
place = (192,64);
type = Stem;
},
{
horizontal = 1;
place = (-21,72);
type = Stem;
},
{
place = (382,90);
type = Stem;
},
{
place = (51,90);
type = Stem;
},
{
horizontal = 1;
place = (114,72);
type = Stem;
},
{
horizontal = 1;
place = (277,72);
type = Stem;
},
{
horizontal = 1;
place = (452,72);
type = Stem;
},
{
place = (56,90);
type = Stem;
},
{
place = (383,90);
type = Stem;
},
{
place = (378,90);
type = Stem;
},
{
place = (47,90);
type = Stem;
},
{
place = (33,90);
type = Stem;
},
{
place = (360,90);
type = Stem;
},
{
place = (355,90);
type = Stem;
},
{
place = (24,90);
type = Stem;
}
);
layerId = "2F065738-4B59-43EB-A5F2-FD5F277958EA";
shapes = (
{
closed = 1;
nodes = (
(401,-8,o),
(458,74,o),
(458,253,cs),
(458,408,o),
(381,508,o),
(218,508,cs),
(115,508,o),
(70,483,o),
(70,428,cs),
(70,389,o),
(93,380,o),
(129,380,cs),
(168,380,o),
(184,391,o),
(235,391,cs),
(288,391,o),
(324,362,o),
(320,253,c),
(313,124,o),
(303,102,o),
(249,102,cs),
(198,102,o),
(172,122,o),
(172,159,cs),
(172,206,o),
(201,219,o),
(289,219,cs),
(304,219,o),
(319,223,o),
(324,235,c),
(325,311,l),
(128,328,o),
(28,275,o),
(28,159,cs),
(28,60,o),
(107,-8,o),
(240,-8,cs)
);
}
);
width = 493;
}
);
unicode = 97;
userData = {
KernOnName = a;
};
},
{
color = 7;
glyphname = aogonek;
kernLeft = KO_a;
kernRight = KO_a;
lastChange = "2024-01-30 19:42:28 +0000";
layers = (
{
layerId = "2F065738-4B59-43EB-A5F2-FD5F277958EA";
shapes = (
{
ref = a;
},
{
closed = 1;
nodes = (
(366,-256,o),
(389,-233,o),
(389,-201,cs),
(389,-176,o),
(374,-159,o),
(349,-157,cs),
(295,-153,o),
(263,-133,o),
(263,-102,cs),
(263,-67,o),
(284,-38,o),
(330,-9,cs),
(372,17,o),
(398,40,o),
(411,63,c),
(264,21,l),
(204,-20,o),
(174,-73,o),
(174,-140,cs),
(174,-208,o),
(240,-256,o),
(334,-256,cs)
);
}
);
width = 493;
}
);
unicode = 261;
},
{
color = 7;
glyphname = b;
kernLeft = KO_b;
kernRight = KO_a;
layers = (
{
anchors = (
{
name = bottom;
pos = (283,0);
},
{
name = center;
pos = (283,250);
},
{
name = top;
pos = (283,500);
}
);
hints = (
{
horizontal = 1;
place = (724,-20);
target = down;
type = TopGhost;
},
{
horizontal = 1;
place = (314,72);
type = Stem;
},
{
horizontal = 1;
place = (-24,72);
type = Stem;
},
{
place = (389,90);
type = Stem;
},
{
place = (51,90);
type = Stem;
}
);
layerId = "2F065738-4B59-43EB-A5F2-FD5F277958EA";
shapes = (
{
closed = 1;
nodes = (
(440,-8,o),
(530,87,o),
(530,267,cs),
(530,447,o),
(445,508,o),
(326,508,cs),
(256,508,o),
(213,492,o),
(188,451,c),
(202,492,o),
(205,520,o),
(205,598,cs),
(205,684,ls),
(205,737,o),
(184,762,o),
(138,762,cs),
(90,762,o),
(65,735,o),
(65,684,cs),
(65,261,ls),
(65,81,o),
(149,-8,o),
(293,-8,cs)
);
},
{
closed = 1;
nodes = (
(244,112,o),
(211,145,o),
(211,254,cs),
(211,363,o),
(244,388,o),
(300,388,cs),
(356,388,o),
(389,363,o),
(389,254,cs),
(389,145,o),
(356,112,o),
(300,112,cs)
);
}
);
width = 565;
}
);
metricRight = o;
unicode = 98;
},
{
color = 7;
glyphname = c;
kernLeft = KO_c;
kernRight = KO_c;
lastChange = "2024-02-07 12:37:25 +0000";
layers = (
{
anchors = (
{
name = bottom;
pos = (236,0);
},
{
name = top;
pos = (226,500);
}
);
background = {
shapes = (
{
closed = 1;
nodes = (
(378,-11,o),
(423,14,o),
(423,69,cs),
(423,108,o),
(400,117,o),
(364,117,cs),
(325,117,o),
(309,106,o),
(258,106,cs),
(205,106,o),
(179,177,o),
(179,246,cs),
(179,386,o),
(257,386,o),
(340,386,cs),
(388,386,o),
(412,405,o),
(412,442,cs),
(412,486,o),
(375,508,o),
(301,508,cs),
(158,508,o),
(35,457,o),
(35,245,cs),
(35,91,o),
(112,-11,o),
(275,-11,cs)
);
}
);
};
hints = (
{
horizontal = 1;
place = (314,72);
type = Stem;
},
{
horizontal = 1;
place = (-23,72);
type = Stem;
},
{
place = (390,89);
type = Stem;
},
{
place = (51,90);
type = Stem;
},
{
horizontal = 1;
place = (151,72);
type = Stem;
},
{
horizontal = 1;
place = (-24,72);
type = Stem;
},
{
place = (377,90);
type = Stem;
},
{
place = (50,90);
type = Stem;
},
{
horizontal = 1;
place = (114,63);
type = Stem;
},
{
horizontal = 1;
place = (244,64);
type = Stem;
},
{
horizontal = 1;
place = (449,72);
type = Stem;
},
{
place = (55,90);
type = Stem;
},
{
place = (386,90);
type = Stem;
}
);
layerId = "2F065738-4B59-43EB-A5F2-FD5F277958EA";
shapes = (
{
closed = 1;
nodes = (
(376,-8,o),
(421,17,o),
(421,72,cs),
(421,111,o),
(398,120,o),
(362,120,cs),
(339,120,o),
(322,109,o),
(271,109,cs),
(189,109,o),
(177,180,o),
(177,249,cs),
(177,318,o),
(199,391,o),
(270,391,cs),
(321,391,o),
(323,380,o),
(362,380,cs),
(398,380,o),
(421,396,o),
(421,435,cs),
(421,490,o),
(376,508,o),
(273,508,cs),
(110,508,o),
(33,404,o),
(33,249,cs),
(33,94,o),
(110,-8,o),
(273,-8,cs)
);
}
);
width = 451;
}
);
unicode = 99;
userData = {
KernOnName = c;
};
},
{
color = 7;
glyphname = d;
kernLeft = KO_d;
kernRight = KO_d;
layers = (
{
anchors = (
{
name = bottom;
pos = (283,0);
},
{
name = center;
pos = (283,250);
},
{
name = stroke;
pos = (428,614);
},
{
name = top;
pos = (283,500);
},
{
name = topright;
pos = (554,777);
}
);
hints = (
{
horizontal = 1;
place = (724,-20);
target = down;
type = TopGhost;
},
{
horizontal = 1;
place = (314,72);
type = Stem;
},
{
horizontal = 1;
place = (-24,72);
type = Stem;
},
{
place = (390,90);
type = Stem;
},
{
place = (51,90);
type = Stem;
},
{
horizontal = 1;
place = (704,-20);
target = down;
type = TopGhost;
},
{
place = (86,90);
type = Stem;
},
{
place = (424,90);
type = Stem;
},
{
horizontal = 1;
origin = (0,22);
target = down;
type = TopGhost;
},
{
horizontal = 1;
origin = (0,22);
type = Stem;
},
{
horizontal = 1;
origin = (0,22);
type = Stem;
},
{
origin = (0,22);
type = Stem;
},
{
origin = (0,22);
type = Stem;
}
);
layerId = "2F065738-4B59-43EB-A5F2-FD5F277958EA";
shapes = (
{
closed = 1;
nodes = (
(416,-8,o),
(500,81,o),
(500,261,cs),
(500,684,ls),
(500,735,o),
(475,762,o),
(427,762,cs),
(381,762,o),
(360,737,o),
(360,684,cs),
(360,598,ls),
(360,520,o),
(363,492,o),
(377,451,c),
(352,492,o),
(309,508,o),
(239,508,cs),
(120,508,o),
(35,447,o),
(35,267,cs),
(35,87,o),
(125,-8,o),
(272,-8,cs)
);
},
{
closed = 1;
nodes = (
(209,112,o),
(176,145,o),
(176,254,cs),
(176,363,o),
(209,388,o),
(265,388,cs),
(321,388,o),
(354,363,o),
(354,254,cs),
(354,145,o),
(321,112,o),
(265,112,cs)
);
}
);
width = 560;
}
);
metricLeft = o;
metricRight = "=l-5";
unicode = 100;
},
{
color = 7;
glyphname = eth;
kernLeft = KO_eth;
layers = (
{
anchors = (
{
name = bottom;
pos = (276,0);
},
{
name = top;
pos = (276,750);
}
);
layerId = "2F065738-4B59-43EB-A5F2-FD5F277958EA";
shapes = (
{
closed = 1;
nodes = (
(431,-8,o),
(528,117,o),
(528,320,cs),
(528,594,o),
(404,762,o),
(199,762,cs),
(133,762,o),
(109,742,o),
(109,703,cs),
(109,669,o),
(128,655,o),
(190,655,cs),
(327,655,o),
(397,558,o),
(395,366,c),
(408,397,l),
(390,438,o),
(340,476,o),
(267,476,cs),
(127,476,o),
(48,392,o),
(48,243,cs),
(48,90,o),
(137,-8,o),
(275,-8,cs)
);
},
{
closed = 1;
nodes = (
(218,124,o),
(186,166,o),
(186,243,cs),
(186,318,o),
(217,356,o),
(277,356,cs),
(339,356,o),
(373,316,o),
(373,243,cs),
(373,168,o),
(337,124,o),
(277,124,cs)
);
},
{
closed = 1;
nodes = (
(200,594,o),
(193,579,o),
(193,564,cs),
(193,538,o),
(213,512,o),
(243,512,cs),
(255,512,o),
(269,516,o),
(283,527,cs),
(464,654,ls),
(481,666,o),
(489,682,o),
(489,698,cs),
(489,723,o),
(468,747,o),
(438,747,cs),
(425,747,o),
(410,743,o),
(395,732,cs),
(215,605,ls)
);
}
);
width = 574;
},
{
anchors = (
{
name = bottom;
pos = (276,0);
},
{
name = top;
pos = (276,750);
}
);
associatedMasterId = "2F065738-4B59-43EB-A5F2-FD5F277958EA";
layerId = "C72B60E8-769D-4751-9B7C-20BEF7FE7397";
name = "22 Jan 24, 18:12";
shapes = (
{
closed = 1;
nodes = (
(431,-8,o),
(528,117,o),
(528,320,cs),
(528,594,o),
(408,762,o),
(209,762,cs),
(136,762,o),
(109,742,o),
(109,703,cs),
(109,669,o),
(130,655,o),
(200,655,cs),
(330,655,o),
(397,558,o),
(395,366,c),
(408,397,l),
(390,438,o),
(340,476,o),
(267,476,cs),
(127,476,o),
(48,392,o),
(48,243,cs),
(48,90,o),
(137,-8,o),
(275,-8,cs)
);
},
{
closed = 1;
nodes = (
(218,124,o),
(186,166,o),
(186,243,cs),
(186,318,o),
(217,356,o),
(277,356,cs),
(339,356,o),
(373,316,o),
(373,243,cs),
(373,168,o),
(337,124,o),
(277,124,cs)
);
},
{
closed = 1;
nodes = (
(221,511,o),
(247,509,o),
(275,529,cs),
(456,656,ls),
(483,675,o),
(490,701,o),
(474,725,cs),
(455,750,o),
(431,750,o),
(403,730,cs),
(223,603,ls),
(196,584,o),
(189,557,o),
(206,535,cs)
);
}
);
width = 574;
}
);
unicode = 240;
},
{
color = 7;
glyphname = e;
kernLeft = KO_o;
kernRight = KO_e;
lastChange = "2024-02-07 12:37:37 +0000";
layers = (
{
anchors = (
{
name = bottom;
pos = (250,0);
},
{
name = ogonek;
pos = (364,0);
},
{
name = top;
pos = (250,500);
}
);
background = {
shapes = (
{
ref = o;
}
);
};
hints = (
{
horizontal = 1;
place = (314,72);
type = Stem;
},
{
horizontal = 1;
place = (151,72);
type = Stem;
},
{
horizontal = 1;
place = (-24,72);
type = Stem;
},
{
place = (377,90);
type = Stem;
},
{
place = (50,90);
type = Stem;
},
{
horizontal = 1;
place = (114,63);
type = Stem;
},
{
horizontal = 1;
place = (244,64);
type = Stem;
},
{
horizontal = 1;
place = (449,72);
type = Stem;
},
{
place = (55,90);
type = Stem;
},
{
place = (386,90);
type = Stem;
}
);
layerId = "2F065738-4B59-43EB-A5F2-FD5F277958EA";
shapes = (
{
closed = 1;
nodes = (
(398,-8,o),
(443,17,o),
(443,72,cs),
(443,111,o),
(420,120,o),
(384,120,cs),
(345,120,o),
(329,108,o),
(278,108,cs),
(215,108,o),
(196,133,o),
(186,174,c),
(244,174,ls),
(395,174,o),
(472,226,o),
(472,334,cs),
(472,443,o),
(384,508,o),
(260,508,cs),
(123,508,o),
(35,433,o),
(35,249,cs),
(35,99,o),
(95,-8,o),
(295,-8,cs)
);
},
{
closed = 1;
nodes = (
(179,365,o),
(209,398,o),
(258,398,cs),
(301,398,o),
(332,369,o),
(332,319,cs),
(332,279,o),
(307,266,o),
(228,266,cs),
(200,266,o),
(190,263,o),
(179,248,c)
);
}
);
width = 500;
}
);
unicode = 101;
userData = {
KernOnName = e;
};
},
{
color = 7;
glyphname = eogonek;
kernLeft = KO_o;
kernRight = KO_e;
lastChange = "2024-01-30 19:44:11 +0000";
layers = (
{
anchors = (
{
name = top;
pos = (250,500);
}
);
layerId = "2F065738-4B59-43EB-A5F2-FD5F277958EA";
shapes = (
{
ref = e;
},
{
closed = 1;
nodes = (
(441,-256,o),
(464,-233,o),
(464,-201,cs),
(464,-176,o),
(449,-159,o),
(424,-157,cs),
(370,-153,o),
(338,-133,o),
(338,-102,cs),
(338,-72,o),
(363,-17,o),
(405,10,cs),
(435,28,o),
(443,38,o),
(443,74,c),
(329,21,l),
(279,-20,o),
(249,-73,o),
(249,-140,cs),
(249,-208,o),
(315,-256,o),
(409,-256,cs)
);
}
);
width = 500;
}
);
unicode = 281;
},
{
color = 7;
glyphname = f;
kernLeft = KO_f;
kernRight = KO_f;
lastChange = "2024-02-07 12:37:46 +0000";
layers = (
{
anchors = (
{
name = bottom;
pos = (187,0);
},
{
name = top;
pos = (187,750);
}
);
hints = (
{
horizontal = 1;
place = (652,73);
type = Stem;
},
{
horizontal = 1;
place = (315,73);
type = Stem;
},
{
horizontal = 1;
place = (-24,21);
target = up;
type = BottomGhost;
},
{
place = (51,90);
type = Stem;
}
);
layerId = "2F065738-4B59-43EB-A5F2-FD5F277958EA";
shapes = (
{
closed = 1;
nodes = (
(214,-8,o),
(238,16,o),
(238,71,cs),
(238,524,ls),
(238,583,o),
(249,629,o),
(302,629,cs),
(388,629,o),
(407,657,o),
(407,695,cs),
(407,728,o),
(396,762,o),
(304,762,cs),
(164,762,o),
(98,659,o),
(98,504,cs),
(98,71,ls),
(98,26,o),
(118,-8,o),
(170,-8,cs)
);
},
{
closed = 1;
nodes = (
(295,379,ls),
(339,379,o),
(363,400,o),
(363,439,cs),
(363,478,o),
(339,500,o),
(295,500,cs),
(84,500,ls),
(34,500,o),
(10,478,o),
(10,439,cs),
(10,400,o),
(34,379,o),
(84,379,cs)
);
},
{
closed = 1;
nodes = (
(339,630,o),
(358,618,o),
(401,618,cs),
(442,618,o),
(467,628,o),
(467,672,cs),
(467,734,o),
(417,762,o),
(301,762,c),
(282,630,l)
);
}
);
width = 437;
}
);
unicode = 102;
userData = {
KernOnName = f;
};
},
{
color = 7;
glyphname = g;
kernLeft = KO_g;
kernRight = KO_g;
lastChange = "2024-01-31 21:15:29 +0000";
layers = (
{
anchors = (
{
name = bottom;
pos = (279,-250);
},
{
name = top;
pos = (279,500);
}
);
hints = (
{
place = (389,90);
type = Stem;
},
{
place = (314,72);
type = Stem;
},
{
place = (51,90);
type = Stem;
},
{
place = (-24,72);
type = Stem;
},
{
place = (-362,72);
type = Stem;
}
);
layerId = "2F065738-4B59-43EB-A5F2-FD5F277958EA";
shapes = (
{
closed = 1;
nodes = (
(383,-230,o),
(494,-174,o),
(494,-61,cs),
(494,0,o),
(469,54,o),
(403,78,c),
(472,116,o),
(494,173,o),
(494,262,cs),
(494,429,o),
(417,508,o),
(263,508,cs),
(109,508,o),
(32,430,o),
(32,263,cs),
(32,98,o),
(107,18,o),
(262,18,cs),
(313,18,o),
(350,-10,o),
(350,-51,cs),
(350,-101,o),
(307,-112,o),
(202,-112,cs),
(151,-112,o),
(135,-102,o),
(96,-102,cs),
(60,-102,o),
(37,-111,o),
(37,-150,cs),
(37,-205,o),
(82,-230,o),
(185,-230,cs)
);
},
{
closed = 1;
nodes = (
(205,138,o),
(176,179,o),
(176,263,cs),
(176,349,o),
(205,388,o),
(263,388,cs),
(321,388,o),
(350,349,o),
(350,263,cs),
(350,179,o),
(321,138,o),
(263,138,cs)
);
},
{
closed = 1;
nodes = (
(388,367,l),
(390,413,o),
(428,432,o),
(486,432,cs),
(544,432,o),
(570,450,o),
(570,496,cs),
(570,545,o),
(541,572,o),
(491,572,cs),
(439,572,o),
(405,543,o),
(389,481,c),
(388,365,l)
);
}
);
width = 558;
}
);
unicode = 103;
userData = {
KernOnName = g;
};
},
{
color = 7;
glyphname = h;
kernLeft = KO_h;
kernRight = KO_n;
lastChange = "2024-01-31 21:15:29 +0000";
layers = (
{
anchors = (
{
name = bottom;
pos = (285,0);
},
{
name = center;
pos = (285,600);
},
{
name = stroke;
pos = (141,620);
},
{
name = top;
pos = (285,750);
}
);
hints = (
{
horizontal = 1;
place = (724,-20);
target = down;
type = TopGhost;
},
{
horizontal = 1;
place = (313,71);
type = Stem;
},
{
horizontal = 1;
place = (-20,21);
target = up;
type = BottomGhost;
},
{
horizontal = 1;
place = (-24,21);
target = up;
type = BottomGhost;
},
{
place = (387,90);
type = Stem;
},
{
place = (51,90);
type = Stem;
},
{
horizontal = 1;
place = (314,72);
type = Stem;
},
{
horizontal = 1;
place = (-22,21);
target = up;
type = BottomGhost;
},
{
horizontal = 1;
place = (-23,21);
target = up;
type = BottomGhost;
},
{
place = (344,90);
type = Stem;
},
{
place = (13,90);
type = Stem;
}
);
layerId = "2F065738-4B59-43EB-A5F2-FD5F277958EA";
shapes = (
{
closed = 1;
nodes = (
(204,293,ls),
(204,354,o),
(234,388,o),
(283,388,cs),
(334,388,o),
(364,355,o),
(364,293,cs),
(364,59,ls),
(364,15,o),
(392,-8,o),
(438,-8,cs),
(485,-8,o),
(508,13,o),
(508,59,cs),
(508,299,ls),
(508,426,o),
(420,508,o),
(289,508,cs),
(239,508,o),
(202,497,o),
(179,469,c),
(198,506,o),
(205,539,o),
(205,577,cs),
(205,684,ls),
(205,736,o),
(181,762,o),
(133,762,cs),
(85,762,o),
(60,736,o),
(60,684,cs),
(60,59,ls),
(60,15,o),
(88,-8,o),
(134,-8,cs),
(181,-8,o),
(204,13,o),
(204,59,cs)
);
}
);
width = 569;
}
);
unicode = 104;
userData = {
KernOnName = h;
};
},
{
color = 7;
glyphname = i;
kernLeft = KO_i;
kernRight = KO_i;
lastChange = "2024-01-31 21:15:29 +0000";
layers = (
{
anchors = (
{
name = bottom;
pos = (135,0);
}
);
hints = (
{
horizontal = 1;
place = (547,39);
type = Stem;
},
{
horizontal = 1;
place = (448,40);
type = Stem;
},
{
horizontal = 1;
place = (-21,21);
target = up;
type = BottomGhost;
},
{
place = (166,41);
type = Stem;
},
{
place = (84,90);
type = Stem;
},
{
place = (50,42);
type = Stem;
}
);
layerId = "2F065738-4B59-43EB-A5F2-FD5F277958EA";
shapes = (
{
closed = 1;
nodes = (
(207,440,ls),
(207,482,o),
(187,508,o),
(135,508,cs),
(83,508,o),
(63,482,o),
(63,440,cs),
(63,59,ls),
(63,13,o),
(91,-8,o),
(137,-8,cs),
(184,-8,o),
(207,13,o),
(207,59,cs)
);
},
{
closed = 1;
nodes = (
(185,594,o),
(222,630,o),
(222,677,cs),
(222,726,o),
(185,762,o),
(135,762,cs),
(85,762,o),
(48,726,o),
(48,677,cs),
(48,630,o),
(85,594,o),
(135,594,cs)
);
}
);
width = 270;
}
);
unicode = 105;
userData = {
KernOnName = i;
};
},
{
color = 7;
glyphname = idotless;
kernLeft = KO_idotless;
kernRight = KO_idotless;
layers = (
{
anchors = (
{
name = bottom;
pos = (135,0);
},
{
name = ogonek;
pos = (135,0);
},
{
name = top;
pos = (135,500);
}
);
hints = (
{
horizontal = 1;
place = (547,39);
type = Stem;
},
{
horizontal = 1;
place = (448,40);
type = Stem;
},
{
horizontal = 1;
place = (-21,21);
target = up;
type = BottomGhost;
},
{
place = (166,41);
type = Stem;
},
{
place = (84,90);
type = Stem;
},
{
place = (50,42);
type = Stem;
}
);
layerId = "2F065738-4B59-43EB-A5F2-FD5F277958EA";
shapes = (
{
closed = 1;
nodes = (
(187,-8,o),
(207,18,o),
(207,60,cs),
(207,440,ls),
(207,482,o),
(187,508,o),
(135,508,cs),
(83,508,o),
(63,482,o),
(63,440,cs),
(63,60,ls),
(63,18,o),
(83,-8,o),
(135,-8,cs)
);
}
);
width = 270;
}
);
unicode = 305;
},
{
color = 7;
glyphname = iogonek;
kernLeft = KO_i;
kernRight = KO_i;
lastChange = "2024-01-30 19:44:17 +0000";
layers = (
{
layerId = "2F065738-4B59-43EB-A5F2-FD5F277958EA";
shapes = (
{
ref = idotless;
},
{
pos = (63,0);
ref = dotaccentcomb;
},
{
closed = 1;
nodes = (
(207,-256,o),
(230,-233,o),
(230,-201,cs),
(230,-176,o),
(215,-159,o),
(190,-157,cs),
(136,-153,o),
(104,-133,o),
(104,-102,cs),
(104,-74,o),
(134,-26,o),
(179,2,cs),
(205,18,o),
(207,40,o),
(207,87,c),
(104,12,l),
(45,-20,o),
(15,-73,o),
(15,-140,cs),
(15,-208,o),
(81,-256,o),
(175,-256,cs)
);
}
);
width = 270;
}
);
unicode = 303;
},
{
color = 7;
glyphname = j;
kernLeft = KO_j;
kernRight = KO_j;
lastChange = "2024-01-31 21:15:29 +0000";
layers = (
{
associatedMasterId = "2F065738-4B59-43EB-A5F2-FD5F277958EA";
guides = (
{
angle = 90;
pos = (156,0);
}
);
layerId = "F96CB2C7-3EDB-4991-BF0A-474D2211D991";
name = "18 Dec 23, 14:03";
shapes = (
{
closed = 1;
nodes = (
(157,-230,o),
(223,-128,o),
(223,27,cs),
(223,429,ls),
(223,474,o),
(203,508,o),
(151,508,cs),
(107,508,o),
(83,484,o),
(83,429,cs),
(83,7,ls),
(83,-52,o),
(73,-113,o),
(44,-113,cs),
(11,-113,o),
(-4,-102,o),
(-41,-102,cs),
(-77,-102,o),
(-100,-111,o),
(-100,-150,cs),
(-100,-205,o),
(-65,-230,o),
(17,-230,cs)
);
},
{
closed = 1;
nodes = (
(201,594,o),
(238,630,o),
(238,677,cs),
(238,726,o),
(201,762,o),
(151,762,cs),
(101,762,o),
(64,726,o),
(64,677,cs),
(64,630,o),
(101,594,o),
(151,594,cs)
);
}
);
width = 292;
},
{
guides = (
{
angle = 90;
pos = (136,0);
}
);
layerId = "2F065738-4B59-43EB-A5F2-FD5F277958EA";
shapes = (
{
closed = 1;
nodes = (
(181,594,o),
(218,630,o),
(218,677,cs),
(218,726,o),
(181,762,o),
(131,762,cs),
(81,762,o),
(44,726,o),
(44,677,cs),
(44,630,o),
(81,594,o),
(131,594,cs)
);
},
{
closed = 1;
nodes = (
(88,510,o),
(64,486,o),
(64,431,cs),
(64,8,ls),
(64,-51,o),
(53,-97,o),
(0,-97,cs),
(-6,-97,ls),
(-44,-94,o),
(-63,-86,o),
(-99,-86,cs),
(-140,-86,o),
(-165,-96,o),
(-165,-140,cs),
(-165,-200,o),
(-118,-228,o),
(-10,-230,cs),
(-2,-230,l),
(-1,-230,l),
(1,-230,ls),
(139,-229,o),
(204,-126,o),
(204,28,cs),
(204,431,ls),
(204,476,o),
(184,510,o),
(132,510,cs)
);
}
);
width = 266;
},
{
associatedMasterId = "2F065738-4B59-43EB-A5F2-FD5F277958EA";
guides = (
{
angle = 90;
pos = (136,0);
}
);
layerId = "C2C83334-CBB4-4CBE-A8CD-3199B306FFF8";
name = "26 Jan 24 at 20:36";
shapes = (
{
closed = 1;
nodes = (
(137,-230,o),
(203,-128,o),
(203,27,cs),
(203,429,ls),
(203,474,o),
(183,508,o),
(131,508,cs),
(87,508,o),
(63,484,o),
(63,429,cs),
(63,7,ls),
(63,-52,o),
(52,-113,o),
(-1,-113,cs),
(-77,-113,o),
(-120,-102,o),
(-120,-161,cs),
(-120,-216,o),
(-85,-230,o),
(-3,-230,cs)
);
},
{
closed = 1;
nodes = (
(181,594,o),
(218,630,o),
(218,677,cs),
(218,726,o),
(181,762,o),
(131,762,cs),
(81,762,o),
(44,726,o),
(44,677,cs),
(44,630,o),
(81,594,o),
(131,594,cs)
);
}
);
width = 266;
}
);
unicode = 106;
userData = {
KernOnName = j;
};
},
{
color = 7;
glyphname = jdotless;
layers = (
{
anchors = (
{
name = bottom;
pos = (133,-250);
},
{
name = top;
pos = (133,500);
}
);
layerId = "2F065738-4B59-43EB-A5F2-FD5F277958EA";
shapes = (
{
closed = 1;
nodes = (
(137,-230,o),
(203,-128,o),
(203,27,cs),
(203,429,ls),
(203,474,o),
(183,508,o),
(131,508,cs),
(87,508,o),
(63,484,o),
(63,429,cs),
(63,7,ls),
(63,-52,o),
(52,-113,o),
(-1,-113,cs),
(-77,-113,o),
(-120,-102,o),
(-120,-161,cs),
(-120,-216,o),
(-85,-230,o),
(-3,-230,cs)
);
}
);
width = 266;
}
);
unicode = 567;
},
{
color = 7;
glyphname = k;
kernLeft = KO_h;
kernRight = KO_k;
lastChange = "2024-02-07 12:38:14 +0000";
layers = (
{
anchors = (
{
name = bottom;
pos = (275,0);
},
{
name = top;
pos = (275,750);
}
);
background = {
shapes = (
{
closed = 1;
nodes = (
(485,-11,o),
(510,11,o),
(510,57,cs),
(510,262,o),
(409,323,o),
(282,323,cs),
(203,323,o),
(140,302,o),
(101,244,c),
(202,64,l),
(203,161,o),
(231,204,o),
(282,204,cs),
(333,204,o),
(366,159,o),
(366,57,cs),
(366,11,o),
(391,-11,o),
(439,-11,cs)
);
},
{
closed = 1;
nodes = (
(182,-11,o),
(202,17,o),
(204,61,c),
(204,63,o),
(204,65,o),
(204,67,cs),
(204,683,ls),
(204,731,o),
(184,761,o),
(132,761,cs),
(80,761,o),
(60,731,o),
(60,683,cs),
(60,67,ls),
(60,19,o),
(80,-11,o),
(132,-11,cs)
);
},
{
closed = 1;
nodes = (
(393,307,o),
(481,372,o),
(499,467,cs),
(504,493,o),
(499,523,o),
(462,542,cs),
(427,560,o),
(382,560,o),
(367,522,cs),
(327,422,o),
(270,353,o),
(163,289,c),
(169,326,l),
(147,288,l),
(248,279,l),
(259,285,o),
(287,251,o),
(301,258,c)
);
}
);
};
layerId = "2F065738-4B59-43EB-A5F2-FD5F277958EA";
shapes = (
{
closed = 1;
nodes = (
(182,-8,o),
(204,8,o),
(204,85,cs),
(204,170,o),
(235,201,o),
(282,201,cs),
(333,201,o),
(366,157,o),
(366,60,cs),
(366,14,o),
(391,-8,o),
(439,-8,cs),
(485,-8,o),
(510,14,o),
(510,60,cs),
(510,192,o),
(458,257,o),
(381,284,c),
(442,326,o),
(489,393,o),
(491,441,cs),
(493,469,o),
(478,492,o),
(451,505,cs),
(410,525,o),
(373,507,o),
(354,462,cs),
(334,413,o),
(275,355,o),
(204,312,c),
(204,684,ls),
(204,732,o),
(184,762,o),
(132,762,cs),
(80,762,o),
(60,732,o),
(60,684,cs),
(60,70,ls),
(60,22,o),
(80,-8,o),
(132,-8,cs)
);
}
);
width = 550;
}
);
unicode = 107;
userData = {
KernOnName = k;
};
},
{
color = 7;
glyphname = l;
kernLeft = KO_l;
kernRight = KO_l;
lastChange = "2024-01-31 21:15:29 +0000";
layers = (
{
anchors = (
{
name = bottom;
pos = (137,0);
},
{
name = center;
pos = (137,250);
},
{
name = top;
pos = (137,750);
},
{
name = topright;
pos = (254,777);
}
);
layerId = "2F065738-4B59-43EB-A5F2-FD5F277958EA";
shapes = (
{
closed = 1;
nodes = (
(209,684,ls),
(209,732,o),
(189,762,o),
(137,762,cs),
(85,762,o),
(65,732,o),
(65,684,cs),
(65,59,ls),
(65,15,o),
(93,-8,o),
(139,-8,cs),
(186,-8,o),
(209,13,o),
(209,59,cs)
);
}
);
width = 274;
}
);
unicode = 108;
userData = {
KernOnName = l;
};
},
{
color = 7;
glyphname = lslash;
kernLeft = KO_lslash;
kernRight = KO_lslash;
lastChange = "2024-01-30 19:45:25 +0000";
layers = (
{
layerId = "2F065738-4B59-43EB-A5F2-FD5F277958EA";
shapes = (
{
closed = 1;
nodes = (
(332,396,ls),
(372,409,o),
(392,431,o),
(381,466,cs),
(369,502,o),
(340,508,o),
(300,495,cs),
(64,418,ls),
(24,405,o),
(4,383,o),
(15,348,cs),
(27,312,o),
(56,306,o),
(96,319,cs)
);
},
{
pos = (55,0);
ref = l;
}
);
width = 389;
}
);
metricLeft = t;
metricRight = t;
unicode = 322;
},
{
color = 7;
glyphname = m;
kernLeft = KO_n;
kernRight = KO_m;
layers = (
{
anchors = (
{
name = bottom;
pos = (417,0);
},
{
name = top;
pos = (417,500);
}
);
hints = (
{
horizontal = 1;
place = (313,72);
type = Stem;
},
{
horizontal = 1;
place = (-21,21);
target = up;
type = BottomGhost;
},
{
horizontal = 1;
place = (-22,21);
target = up;
type = BottomGhost;
},
{
place = (638,89);
type = Stem;
},
{
place = (343,92);
type = Stem;
},
{
place = (51,91);
type = Stem;
},
{
horizontal = 1;
place = (314,72);
type = Stem;
},
{
horizontal = 1;
place = (-23,21);
target = up;
type = BottomGhost;
},
{
place = (382,90);
type = Stem;
},
{
place = (51,90);
type = Stem;
}
);
layerId = "2F065738-4B59-43EB-A5F2-FD5F277958EA";
shapes = (
{
closed = 1;
nodes = (
(182,-8,o),
(205,14,o),
(205,60,cs),
(205,292,ls),
(205,357,o),
(227,388,o),
(275,388,cs),
(325,388,o),
(347,357,o),
(347,292,cs),
(347,64,ls),
(347,18,o),
(370,-4,o),
(417,-4,cs),
(464,-4,o),
(487,18,o),
(487,64,cs),
(487,292,ls),
(487,357,o),
(509,388,o),
(559,388,cs),
(607,388,o),
(629,360,o),
(629,292,cs),
(629,60,ls),
(629,14,o),
(652,-8,o),
(701,-8,cs),
(750,-8,o),
(773,14,o),
(773,60,cs),
(773,300,ls),
(773,436,o),
(706,508,o),
(585,508,cs),
(500,508,o),
(447,480,o),
(417,419,c),
(387,480,o),
(334,508,o),
(249,508,cs),
(128,508,o),
(61,436,o),
(61,300,cs),
(61,60,ls),
(61,14,o),
(84,-8,o),
(133,-8,cs)
);
}
);
width = 834;
}
);
unicode = 109;
},
{
color = 7;
glyphname = n;
kernLeft = KO_n;
kernRight = KO_n;
lastChange = "2024-01-31 21:15:29 +0000";
layers = (
{
anchors = (
{
name = bottom;
pos = (285,0);
},
{
name = top;
pos = (285,500);
}
);
hints = (
{
horizontal = 1;
place = (314,72);
type = Stem;
},
{
horizontal = 1;
place = (-22,21);
target = up;
type = BottomGhost;
},
{
horizontal = 1;
place = (-23,21);
target = up;
type = BottomGhost;
},
{
place = (382,90);
type = Stem;
},
{
place = (51,90);
type = Stem;
}
);
layerId = "2F065738-4B59-43EB-A5F2-FD5F277958EA";
shapes = (
{
closed = 1;
nodes = (
(182,-8,o),
(205,14,o),
(205,60,cs),
(205,292,ls),
(205,355,o),
(234,388,o),
(285,388,cs),
(336,388,o),
(365,355,o),
(365,292,cs),
(365,60,ls),
(365,14,o),
(388,-8,o),
(437,-8,cs),
(486,-8,o),
(509,14,o),
(509,60,cs),
(509,300,ls),
(509,428,o),
(420,508,o),
(285,508,cs),
(150,508,o),
(61,428,o),
(61,300,cs),
(61,60,ls),
(61,14,o),
(84,-8,o),
(133,-8,cs)
);
}
);
width = 570;
}
);
unicode = 110;
userData = {
KernOnName = n;
};
},
{
color = 7;
glyphname = o;
kernLeft = KO_o;
kernRight = KO_a;
lastChange = "2024-02-07 12:38:26 +0000";
layers = (
{
anchors = (
{
name = bottom;
pos = (266,0);
},
{
name = center;
pos = (266,250);
},
{
name = ogonek;
pos = (479,10);
},
{
name = top;
pos = (266,500);
},
{
name = topright;
pos = (512,500);
}
);
hints = (
{
horizontal = 1;
place = (314,72);
type = Stem;
},
{
horizontal = 1;
place = (-26,72);
type = Stem;
},
{
place = (377,90);
type = Stem;
},
{
place = (50,90);
type = Stem;
}
);
layerId = "2F065738-4B59-43EB-A5F2-FD5F277958EA";
shapes = (
{
closed = 1;
nodes = (
(409,-8,o),
(497,68,o),
(497,250,cs),
(497,432,o),
(409,508,o),
(266,508,cs),
(123,508,o),
(35,432,o),
(35,250,cs),
(35,68,o),
(123,-8,o),
(266,-8,cs)
);
},
{
closed = 1;
nodes = (
(211,112,o),
(179,140,o),
(179,250,cs),
(179,360,o),
(211,388,o),
(266,388,cs),
(321,388,o),
(353,360,o),
(353,250,cs),
(353,140,o),
(321,112,o),
(266,112,cs)
);
}
);
width = 532;
}
);
unicode = 111;
userData = {
KernOnName = o;
};
},
{
color = 7;
glyphname = oslash;
kernLeft = KO_oslash;
layers = (
{
anchors = (
{
name = bottom;
pos = (266,0);
},
{
name = center;
pos = (266,250);
},
{
name = ogonek;
pos = (479,10);
},
{
name = top;
pos = (266,500);
},
{
name = topright;
pos = (512,500);
}
);
hints = (
{
horizontal = 1;
place = (314,72);
type = Stem;
},
{
horizontal = 1;
place = (-26,72);
type = Stem;
},
{
place = (377,90);
type = Stem;
},
{
place = (50,90);
type = Stem;
}
);
layerId = "2F065738-4B59-43EB-A5F2-FD5F277958EA";
shapes = (
{
closed = 1;
nodes = (
(137,-20,o),
(153,-11,o),
(166,9,cs),
(206,68,l),
(209,101,l),
(377,352,l),
(413,375,l),
(462,451,ls),
(467,460,o),
(471,472,o),
(471,482,cs),
(471,509,o),
(452,525,o),
(419,525,cs),
(399,525,o),
(384,515,o),
(371,495,cs),
(329,433,l),
(333,397,l),
(171,156,l),
(134,142,l),
(69,45,ls),
(65,38,o),
(63,31,o),
(63,25,cs),
(63,-2,o),
(85,-20,o),
(118,-20,cs)
);
},
{
closed = 1;
nodes = (
(409,-8,o),
(497,68,o),
(497,250,cs),
(497,432,o),
(409,511,o),
(266,511,cs),
(123,511,o),
(35,432,o),
(35,250,cs),
(35,68,o),
(123,-8,o),
(266,-8,cs)
);
},
{
closed = 1;
nodes = (
(204,93,o),
(165,125,o),
(165,250,cs),
(165,374,o),
(204,410,o),
(266,410,cs),
(328,410,o),
(367,374,o),
(367,250,cs),
(367,125,o),
(328,93,o),
(266,93,cs)
);
}
);
width = 532;
}
);
unicode = 248;
},
{
color = 7;
glyphname = p;
kernLeft = KO_p;
kernRight = KO_a;
layers = (
{
anchors = (
{
name = bottom;
pos = (295,0);
},
{
name = top;
pos = (295,500);
}
);
hints = (
{
horizontal = 1;
place = (512,21);
target = up;
type = BottomGhost;
},
{
horizontal = 1;
place = (440,72);
type = Stem;
},
{
place = (209,90);
type = Stem;
}
);
layerId = "2F065738-4B59-43EB-A5F2-FD5F277958EA";
shapes = (
{
closed = 1;
nodes = (
(181,-230,o),
(202,-205,o),
(202,-152,cs),
(202,-94,ls),
(202,-16,o),
(199,12,o),
(185,53,c),
(210,12,o),
(253,-8,o),
(323,-8,cs),
(442,-8,o),
(527,57,o),
(527,237,cs),
(527,417,o),
(437,512,o),
(290,512,cs),
(146,512,o),
(62,423,o),
(62,242,cs),
(62,-152,ls),
(62,-203,o),
(87,-230,o),
(135,-230,cs)
);
},
{
closed = 1;
nodes = (
(241,109,o),
(208,141,o),
(208,250,cs),
(208,359,o),
(241,391,o),
(297,391,cs),
(353,391,o),
(386,359,o),
(386,250,cs),
(386,141,o),
(353,109,o),
(297,109,cs)
);
}
);
width = 562;
}
);
metricRight = o;
unicode = 112;
},
{
color = 7;
glyphname = thorn;
kernLeft = KO_l;
kernRight = KO_a;
layers = (
{
anchors = (
{
name = bottom;
pos = (298,0);
},
{
name = top;
pos = (298,500);
}
);
hints = (
{
horizontal = 1;
place = (512,21);
target = up;
type = BottomGhost;
},
{
horizontal = 1;
place = (440,72);
type = Stem;
},
{
place = (209,90);
type = Stem;
}
);
layerId = "2F065738-4B59-43EB-A5F2-FD5F277958EA";
shapes = (
{
closed = 1;
nodes = (
(184,-230,o),
(205,-205,o),
(205,-152,cs),
(205,-94,ls),
(205,-16,o),
(202,12,o),
(188,53,c),
(213,12,o),
(256,-8,o),
(326,-8,cs),
(445,-8,o),
(530,57,o),
(530,237,cs),
(530,417,o),
(440,512,o),
(312,512,cs),
(255,512,o),
(222,491,o),
(205,468,c),
(205,685,ls),
(205,736,o),
(180,763,o),
(132,763,cs),
(86,763,o),
(65,738,o),
(65,685,cs),
(65,-152,ls),
(65,-203,o),
(90,-230,o),
(138,-230,cs)
);
},
{
closed = 1;
nodes = (
(244,109,o),
(211,141,o),
(211,250,cs),
(211,359,o),
(244,391,o),
(300,391,cs),
(356,391,o),
(389,359,o),
(389,250,cs),
(389,141,o),
(356,109,o),
(300,109,cs)
);
}
);
width = 565;
}
);
metricLeft = l;
metricRight = p;
unicode = 254;
},
{
color = 7;
glyphname = q;
kernLeft = KO_o;
kernRight = KO_q;
lastChange = "2024-02-07 12:38:44 +0000";
layers = (
{
anchors = (
{
name = bottom;
pos = (277,0);
},
{
name = top;
pos = (277,500);
}
);
hints = (
{
horizontal = 1;
place = (-224,21);
target = up;
type = BottomGhost;
},
{
horizontal = 1;
place = (114,72);
type = Stem;
},
{
horizontal = 1;
place = (452,72);
type = Stem;
},
{
place = (84,90);
type = Stem;
},
{
place = (422,90);
type = Stem;
},
{
place = (960,90);
type = Stem;
},
{
place = (885,72);
type = Stem;
},
{
place = (622,90);
type = Stem;
},
{
place = (547,72);
type = Stem;
},
{
place = (209,72);
type = Stem;
}
);
layerId = "2F065738-4B59-43EB-A5F2-FD5F277958EA";
shapes = (
{
closed = 1;
nodes = (
(475,-230,o),
(500,-203,o),
(500,-152,cs),
(500,242,ls),
(500,422,o),
(416,512,o),
(272,512,cs),
(125,512,o),
(35,417,o),
(35,237,cs),
(35,57,o),
(120,-8,o),
(239,-8,cs),
(309,-8,o),
(352,12,o),
(377,53,c),
(363,12,o),
(360,-16,o),
(360,-94,cs),
(360,-152,ls),
(360,-205,o),
(381,-230,o),
(427,-230,cs)
);
},
{
closed = 1;
nodes = (
(209,109,o),
(176,141,o),
(176,250,cs),
(176,359,o),
(209,391,o),
(265,391,cs),
(321,391,o),
(354,359,o),
(354,250,cs),
(354,141,o),
(321,109,o),
(265,109,cs)
);
}
);
width = 554;
}
);
unicode = 113;
},
{
color = 7;
glyphname = r;
kernLeft = KO_r;
kernRight = KO_r;
lastChange = "2024-01-31 21:15:29 +0000";
layers = (
{
anchors = (
{
name = bottom;
pos = (137,0);
},
{
name = top;
pos = (209,500);
}
);
hints = (
{
horizontal = 1;
place = (315,72);
type = Stem;
},
{
horizontal = 1;
place = (-24,21);
target = up;
type = BottomGhost;
},
{
place = (51,92);
type = Stem;
}
);
layerId = "2F065738-4B59-43EB-A5F2-FD5F277958EA";
shapes = (
{
closed = 1;
nodes = (
(181,-8,o),
(205,14,o),
(205,60,cs),
(205,273,ls),
(205,356,o),
(232,377,o),
(327,377,cs),
(391,377,o),
(417,395,o),
(417,433,cs),
(417,484,o),
(389,508,o),
(331,508,cs),
(271,508,o),
(225,486,o),
(201,442,c),
(201,489,o),
(181,508,o),
(133,508,cs),
(85,508,o),
(61,487,o),
(61,439,cs),
(61,60,ls),
(61,14,o),
(85,-8,o),
(133,-8,cs)
);
}
);
width = 417;
}
);
unicode = 114;
userData = {
KernOnName = r;
};
},
{
color = 7;
glyphname = s;
kernLeft = KO_s;
kernRight = KO_s;
lastChange = "2024-01-31 21:15:29 +0000";
layers = (
{
anchors = (
{
name = bottom;
pos = (204,0);
},
{
name = top;
pos = (234,500);
}
);
hints = (
{
horizontal = 1;
place = (314,72);
type = Stem;
},
{
horizontal = 1;
place = (151,72);
type = Stem;
},
{
horizontal = 1;
place = (-24,71);
type = Stem;
},
{
place = (378,90);
type = Stem;
},
{
place = (50,90);
type = Stem;
}
);
layerId = "2F065738-4B59-43EB-A5F2-FD5F277958EA";
shapes = (
{
closed = 1;
nodes = (
(351,-8,o),
(427,54,o),
(427,147,cs),
(427,227,o),
(382,273,o),
(283,302,cs),
(211,323,o),
(191,338,o),
(191,365,cs),
(191,387,o),
(206,399,o),
(239,399,cs),
(261,399,o),
(282,394,o),
(301,388,cs),
(326,381,o),
(344,377,o),
(357,377,cs),
(389,377,o),
(409,401,o),
(409,433,cs),
(409,484,o),
(351,511,o),
(255,511,cs),
(127,511,o),
(49,456,o),
(49,355,cs),
(49,283,o),
(93,233,o),
(160,214,cs),
(269,182,o),
(283,178,o),
(283,144,cs),
(283,116,o),
(265,105,o),
(217,105,cs),
(192,105,o),
(162,112,o),
(146,117,cs),
(109,129,o),
(102,131,o),
(89,131,cs),
(58,131,o),
(38,109,o),
(38,75,cs),
(38,21,o),
(102,-8,o),
(226,-8,cs)
);
}
);
width = 467;
}
);
unicode = 115;
userData = {
KernOnName = s;
};
},
{
color = 7;
glyphname = germandbls;
kernLeft = KO_h;
layers = (
{
layerId = "2F065738-4B59-43EB-A5F2-FD5F277958EA";
shapes = (
{
closed = 1;
nodes = (
(183,-8,o),
(204,12,o),
(204,59,cs),
(204,529,ls),
(204,608,o),
(232,642,o),
(297,642,cs),
(360,642,o),
(387,608,o),
(387,529,cs),
(387,475,o),
(370,453,o),
(327,453,cs),
(275,453,o),
(253,437,o),
(253,397,cs),
(253,361,o),
(280,341,o),
(327,341,cs),
(387,341,o),
(420,296,o),
(420,217,cs),
(420,136,o),
(400,112,o),
(332,112,cs),
(278,112,o),
(256,95,o),
(256,52,cs),
(256,8,o),
(278,-8,o),
(337,-8,cs),
(477,-8,o),
(560,76,o),
(560,218,cs),
(560,302,o),
(524,368,o),
(462,399,c),
(513,427,o),
(529,473,o),
(529,544,cs),
(529,685,o),
(447,762,o),
(297,762,cs),
(143,762,o),
(60,680,o),
(60,529,cs),
(60,53,ls),
(60,13,o),
(85,-8,o),
(134,-8,cs)
);
}
);
width = 600;
}
);
metricLeft = h;
metricRight = B;
unicode = 223;
},
{
color = 7;
glyphname = t;
kernLeft = KO_t;
kernRight = KO_t;
lastChange = "2024-01-31 21:15:29 +0000";
layers = (
{
anchors = (
{
name = bottom;
pos = (223,0);
},
{
name = center;
pos = (203,250);
},
{
name = top;
pos = (203,500);
},
{
name = topright;
pos = (304,777);
}
);
hints = (
{
horizontal = 1;
place = (724,-20);
target = down;
type = TopGhost;
},
{
horizontal = 1;
place = (314,72);
type = Stem;
},
{
horizontal = 1;
place = (-25,73);
type = Stem;
},
{
place = (51,90);
type = Stem;
}
);
layerId = "2F065738-4B59-43EB-A5F2-FD5F277958EA";
shapes = (
{
closed = 1;
nodes = (
(364,-8,o),
(397,17,o),
(397,72,cs),
(397,111,o),
(374,120,o),
(338,120,cs),
(316,120,o),
(308,113,o),
(280,113,cs),
(258,113,o),
(250,128,o),
(250,168,cs),
(250,379,l),
(333,379,ls),
(377,379,o),
(401,401,o),
(401,440,cs),
(401,479,o),
(377,500,o),
(333,500,cs),
(238,500,l),
(245,514,o),
(250,539,o),
(250,561,cs),
(250,610,ls),
(250,655,o),
(223,683,o),
(180,683,cs),
(136,683,o),
(106,652,o),
(106,608,cs),
(106,500,l),
(80,500,ls),
(36,500,o),
(12,479,o),
(12,440,cs),
(12,401,o),
(36,379,o),
(80,379,cs),
(106,379,l),
(106,171,ls),
(106,49,o),
(164,-8,o),
(288,-8,cs)
);
}
);
width = 406;
}
);
unicode = 116;
userData = {
KernOnName = t;
};
},
{
color = 7;
glyphname = u;
kernLeft = KO_u;
kernRight = KO_u;
lastChange = "2024-01-31 21:15:29 +0000";
layers = (
{
anchors = (
{
name = bottom;
pos = (282,0);
},
{
name = ogonek;
pos = (282,0);
},
{
name = top;
pos = (282,500);
},
{
name = topright;
pos = (544,500);
}
);
background = {
shapes = (
{
closed = 1;
nodes = (
(438,-11,o),
(516,65,o),
(516,212,cs),
(516,428,ls),
(516,480,o),
(492,506,o),
(444,506,cs),
(396,506,o),
(372,480,o),
(372,428,cs),
(372,208,ls),
(372,148,o),
(338,109,o),
(287,109,cs),
(236,109,o),
(202,148,o),
(202,208,cs),
(202,428,ls),
(202,480,o),
(178,506,o),
(130,506,cs),
(82,506,o),
(58,480,o),
(58,428,cs),
(58,212,ls),
(58,65,o),
(136,-11,o),
(287,-11,cs)
);
}
);
};
hints = (
{
horizontal = 1;
place = (-24,72);
type = Stem;
},
{
horizontal = 1;
place = (-2,21);
target = up;
type = BottomGhost;
},
{
place = (380,92);
type = Stem;
},
{
place = (51,90);
type = Stem;
},
{
horizontal = 1;
place = (434,72);
type = Stem;
},
{
horizontal = 1;
place = (506,-20);
target = down;
type = TopGhost;
},
{
place = (45,90);
type = Stem;
},
{
horizontal = 1;
origin = (0,20);
target = up;
type = BottomGhost;
},
{
horizontal = 1;
origin = (0,20);
target = down;
type = TopGhost;
},
{
origin = (0,20);
target = up;
type = BottomGhost;
}
);
layerId = "2F065738-4B59-43EB-A5F2-FD5F277958EA";
shapes = (
{
closed = 1;
nodes = (
(415,-8,o),
(503,78,o),
(503,209,cs),
(503,443,ls),
(503,489,o),
(480,511,o),
(431,511,cs),
(382,511,o),
(359,489,o),
(359,443,cs),
(359,211,ls),
(359,148,o),
(331,112,o),
(282,112,cs),
(233,112,o),
(205,148,o),
(205,211,cs),
(205,443,ls),
(205,489,o),
(182,511,o),
(133,511,cs),
(84,511,o),
(61,489,o),
(61,443,cs),
(61,209,ls),
(61,78,o),
(149,-8,o),
(282,-8,cs)
);
}
);
width = 564;
}
);
unicode = 117;
userData = {
KernOnName = u;
};
},
{
color = 7;
glyphname = uogonek;
kernLeft = KO_u;
kernRight = KO_u;
lastChange = "2024-01-30 19:44:39 +0000";
layers = (
{
layerId = "2F065738-4B59-43EB-A5F2-FD5F277958EA";
shapes = (
{
ref = u;
},
{
closed = 1;
nodes = (
(397,-256,o),
(420,-233,o),
(420,-201,cs),
(420,-176,o),
(405,-159,o),
(380,-157,cs),
(326,-153,o),
(294,-133,o),
(294,-102,cs),
(294,-72,o),
(328,-22,o),
(377,9,cs),
(397,21,o),
(397,44,o),
(397,87,c),
(294,12,l),
(235,-20,o),
(205,-73,o),
(205,-140,cs),
(205,-208,o),
(271,-256,o),
(365,-256,cs)
);
}
);
width = 564;
},
{
associatedMasterId = "2F065738-4B59-43EB-A5F2-FD5F277958EA";
layerId = "ACC141A4-97A6-4CDD-9C75-7B40F1EFB6D7";
name = "22 Jan 24, 20:02";
shapes = (
{
ref = u;
},
{
closed = 1;
nodes = (
(393,-230,o),
(410,-205,o),
(410,-181,cs),
(410,-160,o),
(397,-141,o),
(373,-141,cs),
(332,-141,o),
(311,-125,o),
(311,-99,cs),
(311,-70,o),
(339,-33,o),
(387,10,c),
(408,25,o),
(427,38,o),
(424,37,cs),
(418,35,o),
(368,21,o),
(348,21,cs),
(328,21,o),
(308,18,o),
(300,10,cs),
(256,-33,o),
(232,-81,o),
(232,-135,cs),
(232,-194,o),
(287,-230,o),
(358,-230,cs)
);
}
);
width = 564;
}
);
unicode = 371;
},
{
color = 7;
glyphname = v;
kernLeft = KO_v;
kernRight = KO_v;
lastChange = "2024-02-07 12:39:14 +0000";
layers = (
{
anchors = (
{
name = bottom;
pos = (256,0);
},
{
name = top;
pos = (256,500);
}
);
layerId = "2F065738-4B59-43EB-A5F2-FD5F277958EA";
shapes = (
{
closed = 1;
nodes = (
(287,-8,o),
(327,12,o),
(389,108,cs),
(458,215,o),
(472,321,o),
(472,390,cs),
(472,418,o),
(470,440,o),
(468,454,cs),
(462,491,o),
(440,511,o),
(399,511,cs),
(360,511,o),
(323,488,o),
(323,450,cs),
(323,428,o),
(325,405,o),
(325,381,cs),
(325,303,o),
(313,219,o),
(262,135,c),
(164,466,ls),
(155,497,o),
(127,511,o),
(98,511,cs),
(50,511,o),
(8,472,o),
(23,426,cs),
(128,97,ls),
(155,11,o),
(202,-8,o),
(243,-8,cs)
);
}
);
width = 496;
}
);
unicode = 118;
},
{
color = 7;
glyphname = w;
kernLeft = KO_v;
kernRight = KO_v;
lastChange = "2024-02-07 12:39:55 +0000";
layers = (
{
anchors = (
{
name = bottom;
pos = (402,0);
},
{
name = top;
pos = (402,500);
}
);
background = {
shapes = (
{
closed = 1;
nodes = (
(296,-8,o),
(385,124,o),
(413,198,c),
(433,120,o),
(478,-8,o),
(543,-8,cs),
(587,-8,o),
(622,12,o),
(684,108,cs),
(753,215,o),
(767,321,o),
(767,390,cs),
(767,418,o),
(765,440,o),
(763,454,cs),
(757,491,o),
(735,511,o),
(694,511,cs),
(655,511,o),
(618,488,o),
(618,450,cs),
(620,381,ls),
(620,303,o),
(608,219,o),
(557,156,c),
(509,306,o),
(487,400,o),
(465,453,cs),
(448,494,o),
(431,511,o),
(403,511,cs),
(364,511,o),
(327,488,o),
(327,450,cs),
(329,381,ls),
(329,303,o),
(312,240,o),
(261,156,c),
(168,466,ls),
(159,497,o),
(131,511,o),
(102,511,cs),
(58,511,o),
(18,480,o),
(18,439,cs),
(18,430,o),
(21,416,o),
(26,400,cs),
(126,97,ls),
(153,17,o),
(186,-8,o),
(239,-8,cs)
);
}
);
};
layerId = "2F065738-4B59-43EB-A5F2-FD5F277958EA";
shapes = (
{
closed = 1;
nodes = (
(290,-8,o),
(409,146,o),
(420,228,c),
(404,262,l),
(424,113,o),
(486,-8,o),
(542,-8,cs),
(590,-8,o),
(625,21,o),
(681,108,cs),
(734,191,o),
(766,292,o),
(766,390,cs),
(766,413,o),
(765,436,o),
(762,454,cs),
(756,492,o),
(733,511,o),
(693,511,cs),
(650,511,o),
(615,485,o),
(617,450,cs),
(621,381,ls),
(628,264,o),
(589,182,o),
(531,130,c),
(573,73,l),
(504,319,o),
(479,403,o),
(458,453,cs),
(441,495,o),
(423,511,o),
(399,511,cs),
(358,511,o),
(326,485,o),
(326,450,cs),
(328,381,ls),
(328,285,o),
(301,215,o),
(230,110,c),
(273,94,l),
(161,466,ls),
(153,494,o),
(128,511,o),
(95,511,cs),
(52,511,o),
(20,478,o),
(20,439,cs),
(20,430,o),
(23,417,o),
(28,400,cs),
(128,97,ls),
(154,21,o),
(182,-8,o),
(238,-8,cs)
);
}
);
width = 790;
}
);
metricLeft = v;
metricRight = v;
unicode = 119;
userData = {
KernOnName = w;
};
},
{
color = 7;
glyphname = x;
kernLeft = KO_x;
kernRight = KO_x;
lastChange = "2024-01-31 21:15:29 +0000";
layers = (
{
anchors = (
{
name = bottom;
pos = (267,0);
},
{
name = top;
pos = (267,500);
}
);
layerId = "2F065738-4B59-43EB-A5F2-FD5F277958EA";
shapes = (
{
closed = 1;
nodes = (
(437,-8,o),
(452,-4,o),
(466,8,cs),
(486,26,o),
(494,46,o),
(494,64,cs),
(494,83,o),
(485,100,o),
(475,112,cs),
(341,277,l),
(298,323,l),
(173,483,ls),
(162,497,o),
(140,511,o),
(115,511,cs),
(101,511,o),
(86,507,o),
(72,495,cs),
(51,476,o),
(43,456,o),
(43,438,cs),
(43,420,o),
(53,403,o),
(63,390,cs),
(187,231,l),
(225,191,l),
(365,20,ls),
(377,6,o),
(398,-8,o),
(423,-8,cs)
);
},
{
closed = 1;
nodes = (
(149,-8,o),
(166,6,o),
(178,33,cs),
(202,86,o),
(247,155,o),
(279,181,c),
(187,270,l),
(96,189,o),
(40,110,o),
(40,58,cs),
(40,11,o),
(88,-8,o),
(120,-8,cs)
);
},
{
closed = 1;
nodes = (
(445,322,o),
(489,389,o),
(489,441,cs),
(489,488,o),
(451,511,o),
(411,511,cs),
(382,511,o),
(360,492,o),
(347,461,cs),
(328,417,o),
(293,359,o),
(249,319,c),
(351,234,l)
);
}
);
width = 534;
}
);
metricLeft = "=40";
metricRight = "=|";
unicode = 120;
userData = {
KernOnName = x;
};
},
{
color = 7;
glyphname = y;
kernLeft = KO_y;
kernRight = KO_y;
lastChange = "2024-01-31 21:15:29 +0000";
layers = (
{
anchors = (
{
name = bottom;
pos = (264,0);
},
{
name = top;
pos = (264,500);
}
);
background = {
shapes = (
{
closed = 1;
nodes = (
(322,-11,o),
(350,10,o),
(409,105,cs),
(472,206,o),
(501,275,o),
(501,371,cs),
(501,399,o),
(500,429,o),
(492,465,cs),
(486,491,o),
(463,511,o),
(422,511,cs),
(381,511,o),
(343,486,o),
(350,446,cs),
(354,422,o),
(356,407,o),
(357,375,cs),
(359,314,o),
(346,245,o),
(289,142,c),
(164,466,ls),
(154,493,o),
(134,511,o),
(101,511,cs),
(65,511,o),
(24,491,o),
(24,446,cs),
(24,436,o),
(26,424,o),
(30,414,cs),
(162,94,ls),
(197,8,o),
(227,-11,o),
(279,-11,cs)
);
},
{
closed = 1;
nodes = (
(231,-101,o),
(205,-112,o),
(143,-112,cs),
(92,-112,o),
(76,-102,o),
(37,-102,cs),
(1,-102,o),
(-22,-111,o),
(-22,-150,cs),
(-22,-205,o),
(23,-230,o),
(126,-230,cs),
(296,-230,o),
(375,-177,o),
(375,-55,cs),
(375,-13,o),
(356,58,o),
(296,78,c),
(210,13,l),
(222,-1,o),
(231,-28,o),
(231,-51,cs)
);
}
);
};
layerId = "2F065738-4B59-43EB-A5F2-FD5F277958EA";
shapes = (
{
closed = 1;
nodes = (
(310,-230,o),
(376,-166,o),
(376,-75,cs),
(376,-33,o),
(368,10,o),
(345,34,c),
(377,45,o),
(408,93,o),
(416,104,cs),
(467,173,o),
(496,290,o),
(496,394,cs),
(496,411,o),
(495,442,o),
(488,464,cs),
(479,493,o),
(460,511,o),
(421,511,cs),
(378,511,o),
(340,489,o),
(346,446,cs),
(347,439,o),
(352,413,o),
(353,375,cs),
(355,314,o),
(342,245,o),
(292,142,c),
(167,466,ls),
(157,493,o),
(137,511,o),
(104,511,cs),
(68,511,o),
(27,491,o),
(27,446,cs),
(27,436,o),
(29,424,o),
(33,414,cs),
(158,111,ls),
(212,-20,o),
(224,-55,o),
(224,-78,cs),
(224,-103,o),
(209,-111,o),
(171,-111,cs),
(136,-111,o),
(112,-102,o),
(75,-102,cs),
(39,-102,o),
(16,-111,o),
(16,-150,cs),
(16,-204,o),
(61,-230,o),
(155,-230,cs)
);
}
);
width = 532;
}
);
unicode = 121;
userData = {
KernOnName = y;
};
},
{
color = 7;
glyphname = z;
kernLeft = KO_z;
kernRight = KO_z;
lastChange = "2024-01-31 21:15:29 +0000";
layers = (
{
anchors = (
{
name = bottom;
pos = (236,0);
},
{
name = center;
pos = (236,250);
},
{
name = top;
pos = (236,500);
}
);
background = {
shapes = (
{
closed = 1;
nodes = (
(94,150,l),
(82,138,o),
(60,115,o),
(50,95,cs),
(36,68,o),
(36,42,o),
(64,14,cs),
(94,-16,o),
(137,-28,o),
(163,7,cs),
(167,13,o),
(182,35,o),
(208,62,c)
);
}
);
};
layerId = "2F065738-4B59-43EB-A5F2-FD5F277958EA";
shapes = (
{
closed = 1;
nodes = (
(372,0,ls),
(418,0,o),
(439,19,o),
(439,59,cs),
(439,101,o),
(416,122,o),
(372,122,cs),
(202,122,l),
(218,125,o),
(230,134,o),
(243,154,cs),
(406,397,ls),
(412,407,o),
(415,418,o),
(415,431,cs),
(415,470,o),
(388,500,o),
(352,500,cs),
(105,500,ls),
(60,500,o),
(38,480,o),
(38,439,cs),
(38,398,o),
(60,378,o),
(105,378,cs),
(245,378,l),
(234,374,o),
(227,367,o),
(212,344,cs),
(58,103,ls),
(52,93,o),
(49,82,o),
(49,69,cs),
(49,30,o),
(74,0,o),
(107,0,cs)
);
}
);
width = 472;
}
);
unicode = 122;
userData = {
KernOnName = z;
};
},
{
color = 7;
glyphname = fi;
kernLeft = KO_f;
kernRight = KO_fi;
layers = (
{
anchors = (
{
name = bottom;
pos = (488,0);
},
{
name = caret_1;
pos = (302,0);
},
{
name = top;
pos = (167,750);
}
);
hints = (
{
horizontal = 1;
place = (547,39);
type = Stem;
},
{
horizontal = 1;
place = (448,40);
type = Stem;
},
{
horizontal = 1;
place = (-21,21);
target = up;
type = BottomGhost;
},
{
place = (539,41);
type = Stem;
},
{
place = (457,90);
type = Stem;
},
{
place = (423,42);
type = Stem;
},
{
horizontal = 1;
place = (652,73);
type = Stem;
},
{
horizontal = 1;
place = (315,73);
type = Stem;
},
{
horizontal = 1;
place = (-24,21);
target = up;
type = BottomGhost;
},
{
place = (51,90);
type = Stem;
}
);
layerId = "2F065738-4B59-43EB-A5F2-FD5F277958EA";
shapes = (
{
closed = 1;
nodes = (
(214,-8,o),
(238,16,o),
(238,71,cs),
(238,524,ls),
(238,618,o),
(276,645,o),
(315,645,cs),
(340,645,o),
(366,634,o),
(382,621,cs),
(417,592,o),
(446,582,o),
(469,582,cs),
(512,582,o),
(540,613,o),
(540,650,cs),
(540,703,o),
(483,767,o),
(337,767,cs),
(219,767,o),
(98,703,o),
(98,504,cs),
(98,71,ls),
(98,26,o),
(118,-8,o),
(170,-8,cs)
);
},
{
closed = 1;
nodes = (
(295,379,ls),
(339,379,o),
(363,400,o),
(363,439,cs),
(363,478,o),
(339,500,o),
(295,500,cs),
(84,500,ls),
(34,500,o),
(10,478,o),
(10,439,cs),
(10,400,o),
(34,379,o),
(84,379,cs)
);
},
{
closed = 1;
nodes = (
(540,-8,o),
(560,18,o),
(560,60,cs),
(560,440,ls),
(560,482,o),
(540,508,o),
(488,508,cs),
(436,508,o),
(416,482,o),
(416,440,cs),
(416,60,ls),
(416,18,o),
(436,-8,o),
(488,-8,cs)
);
}
);
width = 608;
}
);
metricLeft = f;
metricRight = i;
unicode = 64257;
},
{
color = 7;
glyphname = fl;
kernLeft = KO_f;
kernRight = KO_l;
lastChange = "2024-01-26 21:33:10 +0000";
layers = (
{
anchors = (
{
name = bottom;
pos = (510,0);
},
{
name = caret_1;
pos = (323.5,0);
},
{
name = center;
pos = (510,250);
},
{
name = top;
pos = (510,750);
},
{
name = topright;
pos = (627,750);
}
);
hints = (
{
horizontal = 1;
place = (652,73);
type = Stem;
},
{
horizontal = 1;
place = (315,73);
type = Stem;
},
{
horizontal = 1;
place = (-24,21);
target = up;
type = BottomGhost;
},
{
place = (51,90);
type = Stem;
}
);
layerId = "2F065738-4B59-43EB-A5F2-FD5F277958EA";
shapes = (
{
closed = 1;
nodes = (
(214,-8,o),
(238,16,o),
(238,71,cs),
(238,524,ls),
(238,583,o),
(249,629,o),
(302,629,cs),
(388,629,o),
(407,657,o),
(407,695,cs),
(407,728,o),
(396,762,o),
(304,762,cs),
(164,755,o),
(98,659,o),
(98,504,cs),
(98,71,ls),
(98,26,o),
(118,-8,o),
(170,-8,cs)
);
},
{
closed = 1;
nodes = (
(295,379,ls),
(339,379,o),
(363,400,o),
(363,439,cs),
(363,478,o),
(339,500,o),
(295,500,cs),
(84,500,ls),
(34,500,o),
(10,478,o),
(10,439,cs),
(10,400,o),
(34,379,o),
(84,379,cs)
);
},
{
closed = 1;
nodes = (
(339,630,o),
(358,618,o),
(401,618,cs),
(442,618,o),
(467,628,o),
(467,672,cs),
(467,708,o),
(548,744,o),
(510,762,cs),
(483,762,o),
(349,762,o),
(301,762,c),
(282,630,l)
);
},
{
closed = 1;
nodes = (
(562,-8,o),
(582,22,o),
(582,70,cs),
(582,687,ls),
(582,735,o),
(562,762,o),
(510,762,cs),
(458,762,o),
(438,735,o),
(438,687,cs),
(438,70,ls),
(438,22,o),
(458,-8,o),
(510,-8,cs)
);
}
);
width = 647;
}
);
metricLeft = f;
metricRight = l;
unicode = 64258;
},
{
color = 7;
glyphname = zero;
kernLeft = KO_zero;
kernRight = KO_zero;
layers = (
{
associatedMasterId = "2F065738-4B59-43EB-A5F2-FD5F277958EA";
layerId = "E723322C-6D52-4C2C-98D4-6AFB3204CC34";
name = "18 Dec 23, 17:38";
shapes = (
{
closed = 1;
nodes = (
(445,-8,o),
(535,110,o),
(535,351,cs),
(535,594,o),
(446,711,o),
(296,711,cs),
(146,711,o),
(57,594,o),
(57,351,cs),
(57,110,o),
(147,-8,o),
(296,-8,cs)
);
},
{
closed = 1;
nodes = (
(236,124,o),
(207,178,o),
(207,351,cs),
(207,526,o),
(236,579,o),
(296,579,cs),
(356,579,o),
(385,526,o),
(385,351,cs),
(385,178,o),
(356,124,o),
(296,124,cs)
);
}
);
width = 592;
},
{
layerId = "2F065738-4B59-43EB-A5F2-FD5F277958EA";
shapes = (
{
closed = 1;
nodes = (
(464,-8,o),
(558,90,o),
(558,351,cs),
(558,612,o),
(466,711,o),
(303,711,cs),
(140,711,o),
(48,612,o),
(48,351,cs),
(48,90,o),
(142,-8,o),
(303,-8,cs)
);
},
{
closed = 1;
nodes = (
(230,124,o),
(198,166,o),
(198,351,cs),
(198,536,o),
(230,579,o),
(303,579,cs),
(376,579,o),
(408,536,o),
(408,351,cs),
(408,166,o),
(376,124,o),
(303,124,cs)
);
}
);
width = 606;
}
);
unicode = 48;
},
{
color = 7;
glyphname = one;
kernLeft = KO_one;
kernRight = KO_one;
layers = (
{
layerId = "2F065738-4B59-43EB-A5F2-FD5F277958EA";
shapes = (
{
closed = 1;
nodes = (
(253,-8,o),
(274,13,o),
(274,59,cs),
(274,633,ls),
(274,679,o),
(250,700,o),
(201,700,cs),
(74,700,ls),
(33,700,o),
(12,667,o),
(12,634,cs),
(12,601,o),
(33,568,o),
(74,568,cs),
(201,568,l),
(130,644,l),
(130,59,ls),
(130,13,o),
(154,-8,o),
(204,-8,cs)
);
}
);
width = 346;
}
);
unicode = 49;
},
{
color = 7;
glyphname = two;
kernLeft = KO_two;
kernRight = KO_two;
layers = (
{
associatedMasterId = "2F065738-4B59-43EB-A5F2-FD5F277958EA";
layerId = "E723322C-6D52-4C2C-98D4-6AFB3204CC34";
name = "18 Dec 23, 17:38";
shapes = (
{
closed = 1;
nodes = (
(450,0,ls),
(500,0,o),
(527,24,o),
(527,69,cs),
(527,114,o),
(499,139,o),
(450,139,cs),
(262,139,ls),
(239,139,o),
(213,128,o),
(197,109,c),
(204,119,o),
(211,135,o),
(210,148,c),
(210,150,ls),
(210,194,o),
(230,213,o),
(314,237,cs),
(462,279,o),
(524,342,o),
(524,498,cs),
(524,633,o),
(425,711,o),
(265,711,cs),
(214,711,o),
(165,703,o),
(131,689,cs),
(103,678,o),
(89,660,o),
(89,632,cs),
(89,593,o),
(111,572,o),
(162,572,cs),
(196,572,o),
(236,579,o),
(273,579,cs),
(352,579,o),
(381,543,o),
(381,497,cs),
(381,402,o),
(347,386,o),
(236,353,cs),
(110,315,o),
(66,250,o),
(66,132,cs),
(66,78,ls),
(66,40,o),
(88,0,o),
(136,0,cs)
);
}
);
width = 600;
},
{
layerId = "2F065738-4B59-43EB-A5F2-FD5F277958EA";
shapes = (
{
closed = 1;
nodes = (
(441,0,ls),
(491,0,o),
(518,24,o),
(518,69,cs),
(518,114,o),
(490,139,o),
(441,139,cs),
(262,139,ls),
(241,139,o),
(221,131,o),
(209,119,c),
(210,148,l),
(210,150,ls),
(210,195,o),
(231,213,o),
(305,235,cs),
(461,281,o),
(515,349,o),
(515,498,cs),
(515,631,o),
(423,711,o),
(270,711,cs),
(219,711,o),
(170,703,o),
(136,689,cs),
(107,678,o),
(94,659,o),
(94,632,cs),
(94,590,o),
(117,571,o),
(171,571,cs),
(207,571,o),
(250,579,o),
(287,579,cs),
(350,579,o),
(372,541,o),
(372,497,cs),
(372,402,o),
(338,386,o),
(236,353,cs),
(110,315,o),
(66,250,o),
(66,132,cs),
(66,78,o),
(60,0,o),
(136,0,cs)
);
}
);
width = 564;
}
);
unicode = 50;
},
{
color = 7;
glyphname = three;
kernLeft = KO_three;
kernRight = KO_three;
layers = (
{
layerId = "2F065738-4B59-43EB-A5F2-FD5F277958EA";
shapes = (
{
closed = 1;
nodes = (
(408,-8,o),
(518,77,o),
(518,204,cs),
(518,264,o),
(476,324,o),
(413,352,c),
(453,373,o),
(484,439,o),
(484,505,cs),
(484,632,o),
(394,711,o),
(248,711,cs),
(143,711,o),
(89,683,o),
(89,627,cs),
(89,588,o),
(107,571,o),
(147,571,cs),
(178,571,o),
(218,581,o),
(253,581,cs),
(307,581,o),
(356,556,o),
(356,505,cs),
(356,440,o),
(317,415,o),
(271,415,cs),
(249,415,o),
(229,416,o),
(210,416,cs),
(153,416,o),
(114,409,o),
(114,350,cs),
(114,291,o),
(153,284,o),
(213,284,cs),
(232,284,o),
(253,285,o),
(275,285,cs),
(321,285,o),
(374,272,o),
(374,206,cs),
(374,138,o),
(321,124,o),
(257,124,cs),
(217,124,o),
(172,130,o),
(135,130,cs),
(80,130,o),
(60,107,o),
(60,76,cs),
(60,46,o),
(70,14,o),
(136,1,cs),
(161,-4,o),
(189,-8,o),
(243,-8,cs)
);
}
);
width = 564;
},
{
associatedMasterId = "2F065738-4B59-43EB-A5F2-FD5F277958EA";
layerId = "65A5A997-A146-44E6-A724-B50CDE7FE394";
name = "8 Jan 24, 18:52";
shapes = (
{
closed = 1;
nodes = (
(440,-8,o),
(518,102,o),
(518,204,cs),
(518,286,o),
(453,334,o),
(413,352,c),
(453,373,o),
(484,439,o),
(484,505,cs),
(484,651,o),
(355,712,o),
(248,711,cs),
(155,710,o),
(89,689,o),
(89,627,cs),
(89,559,o),
(181,591,o),
(253,591,cs),
(307,591,o),
(356,563,o),
(356,505,cs),
(356,440,o),
(317,415,o),
(271,415,cs),
(184,415,o),
(114,428,o),
(114,350,cs),
(114,273,o),
(181,285,o),
(275,285,cs),
(321,285,o),
(374,272,o),
(374,206,cs),
(374,94,o),
(230,130,o),
(135,130,cs),
(80,130,o),
(60,107,o),
(60,76,cs),
(60,46,o),
(70,14,o),
(136,1,cs),
(161,-4,o),
(189,-8,o),
(243,-8,cs)
);
}
);
width = 564;
}
);
unicode = 51;
},
{
color = 7;
glyphname = four;
kernLeft = KO_four;
kernRight = KO_four;
layers = (
{
layerId = "2F065738-4B59-43EB-A5F2-FD5F277958EA";
shapes = (
{
closed = 1;
nodes = (
(147,180,o),
(152,202,o),
(168,247,cs),
(305,634,ls),
(320,677,o),
(290,711,o),
(244,711,cs),
(215,711,o),
(184,696,o),
(171,660,cs),
(24,247,ls),
(21,240,o),
(20,233,o),
(20,228,cs),
(20,196,o),
(56,180,o),
(98,180,cs)
);
},
{
closed = 1;
nodes = (
(503,180,cs),
(553,180,o),
(580,204,o),
(580,249,cs),
(580,294,o),
(552,319,o),
(503,319,cs),
(232,319,ls),
(209,319,o),
(184,307,o),
(168,288,c),
(168,309,o),
(168,347,o),
(168,369,c),
(98,180,l),
(98,180,o),
(56,180,o)
);
},
{
closed = 1;
nodes = (
(474,398,ls),
(474,444,o),
(450,465,o),
(401,465,cs),
(351,465,o),
(330,444,o),
(330,398,cs),
(330,59,ls),
(330,13,o),
(358,-8,o),
(404,-8,cs),
(451,-8,o),
(474,13,o),
(474,59,cs)
);
}
);
width = 606;
},
{
associatedMasterId = "2F065738-4B59-43EB-A5F2-FD5F277958EA";
layerId = "6127E237-BB73-4882-959B-F70D2DCC89CD";
name = "15 Jan 24, 18:38";
shapes = (
{
closed = 1;
nodes = (
(147,180,o),
(151,202,o),
(168,247,cs),
(314,643,ls),
(331,688,o),
(290,710,o),
(241,710,cs),
(191,710,o),
(187,688,o),
(170,643,cs),
(24,247,ls),
(7,202,o),
(48,180,o),
(98,180,cs)
);
},
{
closed = 1;
nodes = (
(503,180,ls),
(553,180,o),
(580,204,o),
(580,249,cs),
(580,294,o),
(552,319,o),
(503,319,cs),
(232,319,ls),
(209,319,o),
(184,307,o),
(168,288,c),
(168,309,o),
(168,347,o),
(168,369,c),
(32,258,l),
(32,206,o),
(56,180,o),
(104,180,cs)
);
},
{
closed = 1;
nodes = (
(453,-8,o),
(474,13,o),
(474,59,cs),
(474,398,ls),
(474,444,o),
(450,465,o),
(401,465,cs),
(351,465,o),
(330,444,o),
(330,398,cs),
(330,59,ls),
(330,13,o),
(354,-8,o),
(404,-8,cs)
);
}
);
width = 606;
}
);
unicode = 52;
},
{
color = 7;
glyphname = five;
kernLeft = KO_five;
kernRight = KO_five;
layers = (
{
layerId = "2F065738-4B59-43EB-A5F2-FD5F277958EA";
shapes = (
{
closed = 1;
nodes = (
(386,-8,o),
(494,70,o),
(494,210,cs),
(494,413,o),
(349,429,o),
(185,427,c),
(185,427,o),
(205,593,o),
(205,591,c),
(221,572,o),
(247,561,o),
(270,561,cs),
(395,561,ls),
(444,561,o),
(472,591,o),
(472,636,cs),
(472,681,o),
(445,700,o),
(395,700,cs),
(152,700,ls),
(104,700,o),
(88,657,o),
(82,605,cs),
(55,367,l),
(56,339,o),
(81,311,o),
(122,311,cs),
(231,311,ls),
(277,311,o),
(350,304,o),
(350,210,cs),
(350,148,o),
(301,121,o),
(232,121,cs),
(194,121,o),
(134,143,o),
(101,143,cs),
(52,143,o),
(30,119,o),
(30,73,cs),
(30,-3,o),
(168,-8,o),
(229,-8,cs)
);
}
);
width = 540;
}
);
unicode = 53;
},
{
color = 7;
glyphname = six;
kernLeft = KO_six;
kernRight = KO_six;
layers = (
{
associatedMasterId = "2F065738-4B59-43EB-A5F2-FD5F277958EA";
layerId = "9BC4A453-B15C-4104-A4B6-EA6B521A6B53";
name = "18 Dec 23, 14:16";
shapes = (
{
closed = 1;
nodes = (
(448,-8,o),
(536,91,o),
(536,250,cs),
(536,404,o),
(448,486,o),
(321,486,cs),
(273,486,o),
(229,471,o),
(201,444,c),
(220,572,o),
(272,581,o),
(401,581,cs),
(445,581,o),
(467,598,o),
(467,643,cs),
(467,694,o),
(438,711,o),
(353,711,cs),
(132,711,o),
(57,577,o),
(57,347,cs),
(57,138,o),
(133,-8,o),
(317,-8,cs)
);
},
{
closed = 1;
nodes = (
(250,122,o),
(218,173,o),
(218,250,cs),
(218,309,o),
(250,366,o),
(305,366,cs),
(360,366,o),
(392,309,o),
(392,250,cs),
(392,173,o),
(360,122,o),
(317,122,cs)
);
}
);
width = 568;
},
{
layerId = "2F065738-4B59-43EB-A5F2-FD5F277958EA";
shapes = (
{
closed = 1;
nodes = (
(416,-8,o),
(528,64,o),
(528,243,cs),
(528,413,o),
(438,486,o),
(309,486,cs),
(227,486,o),
(188,450,o),
(168,404,c),
(211,370,l),
(208,524,o),
(238,581,o),
(387,581,cs),
(443,581,o),
(472,597,o),
(472,640,cs),
(472,693,o),
(438,711,o),
(337,711,cs),
(120,711,o),
(48,497,o),
(48,290,cs),
(48,69,o),
(176,-8,o),
(301,-8,cs)
);
},
{
closed = 1;
nodes = (
(228,124,o),
(203,182,o),
(203,243,cs),
(203,305,o),
(228,366,o),
(299,366,cs),
(370,366,o),
(390,305,o),
(390,243,cs),
(390,182,o),
(370,124,o),
(299,124,cs)
);
}
);
width = 574;
}
);
unicode = 54;
},
{
color = 7;
glyphname = seven;
kernLeft = KO_seven;
kernRight = KO_seven;
layers = (
{
layerId = "2F065738-4B59-43EB-A5F2-FD5F277958EA";
shapes = (
{
closed = 1;
nodes = (
(270,-8,o),
(284,46,o),
(294,70,cs),
(530,633,ls),
(548,677,o),
(517,711,o),
(458,711,cs),
(107,711,ls),
(57,711,o),
(30,687,o),
(30,642,cs),
(30,597,o),
(58,572,o),
(107,572,cs),
(298,572,ls),
(321,572,o),
(346,584,o),
(362,603,c),
(362,603,o),
(337,544,o),
(328,522,c),
(148,94,ls),
(118,22,o),
(174,-8,o),
(222,-8,cs)
);
}
);
width = 575;
}
);
unicode = 55;
},
{
color = 7;
glyphname = eight;
kernLeft = KO_eight;
kernRight = KO_eight;
layers = (
{
associatedMasterId = "2F065738-4B59-43EB-A5F2-FD5F277958EA";
layerId = "7E074F84-1C12-45A3-B963-8A502522C277";
name = "18 Dec 23, 14:19";
shapes = (
{
closed = 1;
nodes = (
(454,-8,o),
(553,59,o),
(553,195,cs),
(553,268,o),
(514,324,o),
(458,353,c),
(503,380,o),
(530,439,o),
(530,504,cs),
(530,604,o),
(468,711,o),
(309,711,cs),
(150,711,o),
(86,605,o),
(86,504,cs),
(86,440,o),
(114,381,o),
(161,353,c),
(106,324,o),
(62,268,o),
(62,195,cs),
(62,59,o),
(174,-8,o),
(309,-8,cs)
);
},
{
closed = 1;
nodes = (
(259,114,o),
(206,152,o),
(206,200,cs),
(206,255,o),
(245,300,o),
(307,300,cs),
(373,300,o),
(409,255,o),
(409,200,cs),
(409,150,o),
(360,114,o),
(310,114,cs)
);
},
{
closed = 1;
nodes = (
(253,417,o),
(226,459,o),
(226,504,cs),
(226,546,o),
(255,591,o),
(307,591,cs),
(363,591,o),
(390,546,o),
(390,504,cs),
(390,459,o),
(364,417,o),
(314,417,cs)
);
}
);
width = 600;
},
{
layerId = "2F065738-4B59-43EB-A5F2-FD5F277958EA";
shapes = (
{
closed = 1;
nodes = (
(437,-11,o),
(558,57,o),
(558,195,cs),
(558,268,o),
(519,324,o),
(463,353,c),
(508,380,o),
(535,439,o),
(535,504,cs),
(535,604,o),
(473,711,o),
(314,711,cs),
(155,711,o),
(91,605,o),
(91,504,cs),
(91,440,o),
(119,381,o),
(166,353,c),
(111,324,o),
(67,268,o),
(67,195,cs),
(67,59,o),
(192,-11,o),
(315,-11,cs)
);
},
{
closed = 1;
nodes = (
(245,114,o),
(211,161,o),
(211,207,cs),
(211,254,o),
(245,300,o),
(314,300,cs),
(382,300,o),
(415,254,o),
(415,207,cs),
(415,161,o),
(382,114,o),
(314,114,cs)
);
},
{
closed = 1;
nodes = (
(258,417,o),
(231,459,o),
(231,504,cs),
(231,546,o),
(260,591,o),
(312,591,cs),
(368,591,o),
(395,546,o),
(395,504,cs),
(395,459,o),
(369,417,o),
(319,417,cs)
);
}
);
width = 604;
}
);
unicode = 56;
},
{
color = 7;
glyphname = nine;
kernLeft = KO_nine;
kernRight = KO_nine;
layers = (
{
associatedMasterId = "2F065738-4B59-43EB-A5F2-FD5F277958EA";
layerId = "D381BE82-FACC-4F61-891B-721C119C74AD";
name = "18 Dec 23, 14:17";
shapes = (
{
closed = 1;
nodes = (
(477,-8,o),
(569,105,o),
(569,353,cs),
(569,583,o),
(480,711,o),
(321,711,cs),
(178,711,o),
(90,612,o),
(90,450,cs),
(90,303,o),
(171,217,o),
(305,217,cs),
(353,217,o),
(397,232,o),
(425,259,c),
(406,131,o),
(354,122,o),
(225,122,cs),
(181,122,o),
(159,105,o),
(159,60,cs),
(159,9,o),
(188,-8,o),
(273,-8,cs)
);
},
{
closed = 1;
nodes = (
(266,334,o),
(234,391,o),
(234,450,cs),
(234,530,o),
(266,581,o),
(321,581,cs),
(376,581,o),
(408,530,o),
(408,450,cs),
(408,391,o),
(376,334,o),
(321,334,cs)
);
}
);
width = 600;
},
{
layerId = "2F065738-4B59-43EB-A5F2-FD5F277958EA";
shapes = (
{
alignment = -1;
angle = -180;
pos = (574,699);
ref = six;
}
);
width = 574;
}
);
unicode = 57;
},
{
color = 7;
glyphname = .notdef;
lastChange = "2024-01-23 22:04:16 +0000";
layers = (
{
layerId = "2F065738-4B59-43EB-A5F2-FD5F277958EA";
shapes = (
{
closed = 1;
nodes = (
(512,-8,ls),
(556,-8,o),
(582,9,o),
(582,43,cs),
(583,655,ls),
(583,693,o),
(559,711,o),
(509,711,cs),
(147,711,ls),
(98,711,o),
(76,691,o),
(76,644,cs),
(76,59,ls),
(76,14,o),
(100,-8,o),
(150,-8,cs)
);
},
{
closed = 1;
nodes = (
(328,295,l),
(427,99,l),
(228,99,l)
);
},
{
closed = 1;
nodes = (
(188,571,l),
(303,344,l),
(188,116,l)
);
},
{
closed = 1;
nodes = (
(352,344,l),
(470,577,l),
(470,110,l)
);
},
{
closed = 1;
nodes = (
(220,604,l),
(435,604,l),
(328,392,l)
);
}
);
width = 658;
}
);
metricWidth = H;
},
{
color = 7;
glyphname = period;
kernLeft = KO_period;
kernRight = KO_period;
lastChange = "2024-01-31 21:42:31 +0000";
layers = (
{
layerId = "2F065738-4B59-43EB-A5F2-FD5F277958EA";
shapes = (
{
closed = 1;
nodes = (
(186,-8,o),
(218,24,o),
(218,70,cs),
(218,117,o),
(186,149,o),
(139,149,cs),
(91,149,o),
(60,117,o),
(60,70,cs),
(60,24,o),
(91,-8,o),
(139,-8,cs)
);
}
);
width = 278;
}
);
unicode = 46;
userData = {
KernOnName = period;
};
},
{
color = 7;
glyphname = comma;
kernLeft = KO_comma;
lastChange = "2024-01-31 21:42:38 +0000";
layers = (
{
associatedMasterId = "2F065738-4B59-43EB-A5F2-FD5F277958EA";
layerId = "0ED270C5-06D1-451B-BEB3-AF744CA000F3";
name = "18 Dec 23, 17:31";
shapes = (
{
closed = 1;
nodes = (
(66,-230,ls),
(88,-230,o),
(100,-220,o),
(109,-203,cs),
(225,18,ls),
(229,25,o),
(230,31,o),
(230,37,cs),
(230,51,o),
(219,60,o),
(198,60,cs),
(119,60,ls),
(100,60,o),
(75,50,o),
(70,29,c),
(13,-181,ls),
(11,-190,o),
(10,-193,o),
(10,-201,cs),
(10,-222,o),
(18,-230,o),
(42,-230,cs)
);
}
);
width = 375;
},
{
associatedMasterId = "2F065738-4B59-43EB-A5F2-FD5F277958EA";
layerId = "4B7C3708-3B73-44A5-B15D-4D879FB7CECD";
name = "11 Dec 23, 17:56";
shapes = (
{
closed = 1;
nodes = (
(120,-229,ls),
(146,-229,o),
(162,-217,o),
(173,-196,cs),
(318,80,ls),
(323,89,o),
(325,96,o),
(325,103,cs),
(325,122,o),
(311,133,o),
(285,133,cs),
(229,133,o),
(140,148,o),
(125,94,cs),
(54,-168,ls),
(51,-179,o),
(50,-184,o),
(50,-193,cs),
(50,-220,o),
(59,-229,o),
(90,-229,cs)
);
}
);
width = 375;
},
{
layerId = "2F065738-4B59-43EB-A5F2-FD5F277958EA";
shapes = (
{
closed = 1;
nodes = (
(123,-189,o),
(132,-160,o),
(140,-144,cs),
(230,45,ls),
(236,58,o),
(239,70,o),
(239,81,cs),
(239,122,o),
(202,149,o),
(165,149,cs),
(133,149,o),
(102,130,o),
(90,86,cs),
(39,-106,o),
(36,-139,o),
(36,-150,cs),
(36,-172,o),
(52,-189,o),
(84,-189,cs)
);
}
);
width = 284;
}
);
unicode = 44;
userData = {
KernOnName = comma;
};
},
{
color = 7;
glyphname = exclam;
kernLeft = KO_exclam;
kernRight = KO_exclam;
lastChange = "2024-01-31 21:43:17 +0000";
layers = (
{
associatedMasterId = "2F065738-4B59-43EB-A5F2-FD5F277958EA";
layerId = "F6260431-AE92-41D0-85BF-8CA1AAFF5B85";
name = "11 Dec 23, 17:57";
shapes = (
{
closed = 1;
nodes = (
(174,189,o),
(194,215,o),
(194,257,cs),
(194,643,ls),
(194,685,o),
(174,711,o),
(122,711,cs),
(70,711,o),
(50,685,o),
(50,643,cs),
(50,257,ls),
(50,215,o),
(70,189,o),
(122,189,cs)
);
},
{
closed = 1;
nodes = (
(166,-11,o),
(196,20,o),
(196,61,cs),
(196,101,o),
(166,133,o),
(124,133,cs),
(83,133,o),
(52,101,o),
(52,61,cs),
(52,20,o),
(83,-11,o),
(124,-11,cs)
);
}
);
width = 246;
},
{
layerId = "2F065738-4B59-43EB-A5F2-FD5F277958EA";
shapes = (
{
closed = 1;
nodes = (
(191,209,o),
(211,235,o),
(211,277,cs),
(211,643,ls),
(211,685,o),
(191,711,o),
(139,711,cs),
(87,711,o),
(67,685,o),
(67,643,cs),
(67,277,ls),
(67,235,o),
(87,209,o),
(139,209,cs)
);
},
{
closed = 1;
nodes = (
(186,-8,o),
(218,24,o),
(218,70,cs),
(218,117,o),
(186,149,o),
(139,149,cs),
(91,149,o),
(60,117,o),
(60,70,cs),
(60,24,o),
(91,-8,o),
(139,-8,cs)
);
}
);
width = 278;
}
);
unicode = 33;
},
{
color = 7;
glyphname = question;
kernLeft = KO_question;
kernRight = KO_question;
lastChange = "2024-01-31 21:43:38 +0000";
layers = (
{
layerId = "2F065738-4B59-43EB-A5F2-FD5F277958EA";
shapes = (
{
closed = 1;
nodes = (
(394,236,o),
(493,333,o),
(493,471,cs),
(493,619,o),
(401,711,o),
(253,711,cs),
(218,711,ls),
(114,711,o),
(60,686,o),
(60,637,cs),
(60,586,o),
(96,575,o),
(255,576,cs),
(322,577,o),
(349,546,o),
(349,471,cs),
(349,402,o),
(314,359,o),
(256,359,cs),
(114,359,o),
(97,345,o),
(97,297,cs),
(97,253,o),
(140,236,o),
(253,236,cs)
);
},
{
closed = 1;
nodes = (
(236,-8,o),
(268,24,o),
(268,70,cs),
(268,117,o),
(236,149,o),
(189,149,cs),
(141,149,o),
(110,117,o),
(110,70,cs),
(110,24,o),
(141,-8,o),
(189,-8,cs)
);
}
);
width = 553;
},
{
anchors = (
{
name = bottom;
pos = (226,0);
},
{
name = top;
pos = (226,500);
}
);
associatedMasterId = "2F065738-4B59-43EB-A5F2-FD5F277958EA";
hints = (
{
horizontal = 1;
place = (314,72);
type = Stem;
},
{
horizontal = 1;
place = (-23,72);
type = Stem;
},
{
place = (390,89);
type = Stem;
},
{
place = (51,90);
type = Stem;
},
{
horizontal = 1;
place = (151,72);
type = Stem;
},
{
horizontal = 1;
place = (-24,72);
type = Stem;
},
{
place = (377,90);
type = Stem;
},
{
place = (50,90);
type = Stem;
},
{
horizontal = 1;
place = (114,63);
type = Stem;
},
{
horizontal = 1;
place = (244,64);
type = Stem;
},
{
horizontal = 1;
place = (449,72);
type = Stem;
},
{
place = (55,90);
type = Stem;
},
{
place = (386,90);
type = Stem;
}
);
layerId = "33C91B87-86E2-4615-A19F-C48561B51703";
name = "8 Jan 24 at 04:18";
shapes = (
{
closed = 1;
nodes = (
(232,209,o),
(258,230,o),
(258,260,cs),
(258,281,o),
(253,283,o),
(253,309,cs),
(253,348,o),
(281,340,o),
(331,361,cs),
(406,392,o),
(470,424,o),
(470,533,cs),
(470,654,o),
(373,711,o),
(198,711,cs),
(97,711,o),
(40,687,o),
(40,637,cs),
(40,599,o),
(74,575,o),
(129,575,cs),
(171,575,o),
(334,602,o),
(334,530,cs),
(334,489,o),
(295,483,o),
(235,459,cs),
(137,420,o),
(107,376,o),
(107,319,cs),
(107,273,o),
(127,209,o),
(193,209,cs)
);
},
{
alignment = -1;
pos = (69,0);
ref = period;
}
);
width = 505;
}
);
unicode = 63;
},
{
color = 7;
glyphname = periodcentered;
kernLeft = KO_periodcentered;
kernRight = KO_periodcentered;
layers = (
{
layerId = "2F065738-4B59-43EB-A5F2-FD5F277958EA";
shapes = (
{
closed = 1;
nodes = (
(366,221,o),
(401,257,o),
(401,303,cs),
(401,350,o),
(366,385,o),
(319,385,cs),
(271,385,o),
(237,350,o),
(237,303,cs),
(237,257,o),
(271,221,o),
(319,221,cs)
);
}
);
width = 600;
}
);
unicode = 183;
},
{
color = 7;
glyphname = bullet;
kernLeft = KO_periodcentered;
kernRight = KO_bullet;
layers = (
{
layerId = "2F065738-4B59-43EB-A5F2-FD5F277958EA";
shapes = (
{
closed = 1;
nodes = (
(389,180,o),
(442,234,o),
(442,303,cs),
(442,373,o),
(389,426,o),
(319,426,cs),
(247,426,o),
(196,373,o),
(196,303,cs),
(196,234,o),
(247,180,o),
(319,180,cs)
);
}
);
width = 600;
}
);
unicode = 8226;
},
{
color = 7;
glyphname = asterisk;
kernLeft = KO_asterisk;
kernRight = KO_asterisk;
layers = (
{
background = {
shapes = (
{
closed = 1;
nodes = (
(300,693,ls),
(300,729,o),
(281,750,o),
(248,750,cs),
(215,750,o),
(196,729,o),
(196,693,cs),
(196,403,ls),
(196,367,o),
(215,346,o),
(248,346,cs),
(281,346,o),
(300,367,o),
(300,403,cs)
);
},
{
closed = 1;
nodes = (
(148,666,ls),
(117,684,o),
(90,678,o),
(73,649,cs),
(57,620,o),
(65,593,o),
(96,575,cs),
(348,430,ls),
(379,412,o),
(406,418,o),
(423,447,cs),
(439,476,o),
(431,503,o),
(400,521,cs)
);
},
{
closed = 1;
nodes = (
(400,575,ls),
(431,593,o),
(439,620,o),
(423,649,cs),
(406,678,o),
(379,684,o),
(348,666,cs),
(96,521,ls),
(65,503,o),
(57,476,o),
(73,447,cs),
(90,418,o),
(117,412,o),
(148,430,cs)
);
}
);
};
layerId = "2F065738-4B59-43EB-A5F2-FD5F277958EA";
shapes = (
{
closed = 1;
nodes = (
(286,312,o),
(311,338,o),
(304,373,cs),
(289,459,l),
(357,403,ls),
(384,380,o),
(418,388,o),
(438,421,cs),
(457,456,o),
(447,490,o),
(413,502,cs),
(332,531,l),
(413,560,ls),
(447,572,o),
(457,606,o),
(438,640,cs),
(418,674,o),
(384,682,o),
(357,659,cs),
(289,602,l),
(304,688,ls),
(311,724,o),
(286,750,o),
(248,750,cs),
(210,750,o),
(185,724,o),
(192,688,cs),
(207,602,l),
(139,659,ls),
(112,682,o),
(78,674,o),
(58,640,cs),
(39,606,o),
(49,572,o),
(83,560,cs),
(164,531,l),
(83,502,ls),
(49,490,o),
(39,456,o),
(58,421,cs),
(78,388,o),
(112,380,o),
(139,403,cs),
(207,459,l),
(192,373,ls),
(185,338,o),
(210,312,o),
(248,312,cs)
);
}
);
width = 496;
}
);
unicode = 42;
},
{
color = 7;
glyphname = numbersign;
kernLeft = KO_numbersign;
kernRight = KO_numbersign;
layers = (
{
layerId = "2F065738-4B59-43EB-A5F2-FD5F277958EA";
shapes = (
{
closed = 1;
nodes = (
(452,-8,o),
(478,18,o),
(488,60,cs),
(536,255,o),
(584,448,o),
(628,628,cs),
(636,659,o),
(623,711,o),
(576,711,cs),
(524,711,o),
(498,685,o),
(488,643,cs),
(344,60,ls),
(334,18,o),
(374,-8,o),
(400,-8,cs)
);
},
{
closed = 1;
nodes = (
(160,-8,o),
(186,18,o),
(196,60,cs),
(244,255,o),
(292,448,o),
(336,628,cs),
(344,659,o),
(331,711,o),
(284,711,cs),
(232,711,o),
(206,685,o),
(196,643,cs),
(52,60,ls),
(42,18,o),
(82,-8,o),
(108,-8,cs)
);
},
{
closed = 1;
nodes = (
(635,435,ls),
(677,435,o),
(703,455,o),
(703,497,cs),
(703,539,o),
(677,559,o),
(635,559,cs),
(82,559,ls),
(40,559,o),
(14,539,o),
(14,497,cs),
(14,455,o),
(40,435,o),
(82,435,cs)
);
},
{
closed = 1;
nodes = (
(605,172,ls),
(647,172,o),
(673,192,o),
(673,234,cs),
(673,276,o),
(647,296,o),
(605,296,cs),
(52,296,ls),
(10,296,o),
(-16,276,o),
(-16,234,cs),
(-16,192,o),
(10,172,o),
(52,172,cs)
);
}
);
width = 660;
}
);
unicode = 35;
},
{
color = 7;
glyphname = slash;
kernLeft = KO_slash;
kernRight = KO_slash;
layers = (
{
layerId = "2F065738-4B59-43EB-A5F2-FD5F277958EA";
shapes = (
{
closed = 1;
nodes = (
(53,-13,o),
(53,-19,cs),
(53,-57,o),
(85,-80,o),
(119,-80,cs),
(151,-80,o),
(184,-60,o),
(196,-12,cs),
(244,183,o),
(332,526,o),
(373,706,cs),
(375,713,o),
(375,720,o),
(375,726,cs),
(375,766,o),
(344,789,o),
(310,789,cs),
(278,789,o),
(244,768,o),
(232,721,cs),
(55,-1,ls),
(53,-7,o)
);
}
);
width = 425;
},
{
associatedMasterId = "2F065738-4B59-43EB-A5F2-FD5F277958EA";
layerId = "1DC2CEF8-1B26-460E-B9AB-92A92CDF6E45";
name = "15 Jan 24, 18:37";
shapes = (
{
closed = 1;
nodes = (
(160,-80,o),
(186,-54,o),
(196,-12,cs),
(244,183,o),
(332,526,o),
(373,706,cs),
(380,737,o),
(366,789,o),
(319,789,cs),
(267,789,o),
(242,763,o),
(232,721,cs),
(52,-12,ls),
(42,-54,o),
(82,-80,o),
(108,-80,cs)
);
}
);
width = 425;
}
);
unicode = 47;
},
{
color = 7;
glyphname = backslash;
kernLeft = KO_backslash;
kernRight = KO_backslash;
layers = (
{
layerId = "2F065738-4B59-43EB-A5F2-FD5F277958EA";
shapes = (
{
closed = 1;
nodes = (
(373,-1,cs),
(196,721,ls),
(184,768,o),
(150,789,o),
(118,789,cs),
(84,789,o),
(53,766,o),
(53,726,cs),
(53,720,o),
(53,713,o),
(55,706,cs),
(96,526,o),
(184,183,o),
(232,-12,cs),
(244,-60,o),
(277,-80,o),
(309,-80,cs),
(343,-80,o),
(375,-57,o),
(375,-19,cs),
(375,-13,o),
(375,-7,o)
);
}
);
width = 425;
}
);
unicode = 92;
},
{
color = 7;
glyphname = hyphen;
kernLeft = KO_hyphen;
kernRight = KO_hyphen;
lastChange = "2024-01-31 21:44:07 +0000";
layers = (
{
layerId = "2F065738-4B59-43EB-A5F2-FD5F277958EA";
shapes = (
{
closed = 1;
nodes = (
(398,216,ls),
(440,216,o),
(466,236,o),
(466,288,cs),
(466,340,o),
(440,360,o),
(398,360,cs),
(140,360,ls),
(98,360,o),
(72,340,o),
(72,288,cs),
(72,236,o),
(98,216,o),
(140,216,cs)
);
}
);
width = 538;
}
);
unicode = 45;
userData = {
KernOnName = hyphen;
};
},
{
color = 7;
glyphname = endash;
kernLeft = KO_hyphen;
kernRight = KO_hyphen;
lastChange = "2024-01-31 21:44:10 +0000";
layers = (
{
layerId = "2F065738-4B59-43EB-A5F2-FD5F277958EA";
shapes = (
{
closed = 1;
nodes = (
(503,216,ls),
(545,216,o),
(571,236,o),
(571,288,cs),
(571,340,o),
(545,360,o),
(503,360,cs),
(140,360,ls),
(98,360,o),
(72,340,o),
(72,288,cs),
(72,236,o),
(98,216,o),
(140,216,cs)
);
}
);
width = 643;
}
);
unicode = 8211;
userData = {
KernOnName = endash;
};
},
{
color = 7;
glyphname = emdash;
kernLeft = KO_hyphen;
kernRight = KO_hyphen;
lastChange = "2024-01-31 21:44:14 +0000";
layers = (
{
layerId = "2F065738-4B59-43EB-A5F2-FD5F277958EA";
shapes = (
{
closed = 1;
nodes = (
(878,216,ls),
(920,216,o),
(946,236,o),
(946,288,cs),
(946,340,o),
(920,360,o),
(878,360,cs),
(140,360,ls),
(98,360,o),
(72,340,o),
(72,288,cs),
(72,236,o),
(98,216,o),
(140,216,cs)
);
}
);
width = 1018;
}
);
unicode = 8212;
},
{
color = 7;
glyphname = underscore;
kernLeft = KO_underscore;
kernRight = KO_underscore;
layers = (
{
layerId = "2F065738-4B59-43EB-A5F2-FD5F277958EA";
shapes = (
{
closed = 1;
nodes = (
(481,0,ls),
(523,0,o),
(549,20,o),
(549,72,cs),
(549,124,o),
(523,144,o),
(481,144,cs),
(118,144,ls),
(76,144,o),
(50,124,o),
(50,72,cs),
(50,20,o),
(76,0,o),
(118,0,cs)
);
}
);
width = 600;
}
);
unicode = 95;
},
{
color = 7;
glyphname = parenleft;
kernLeft = KO_parenleft;
kernRight = KO_parenleft;
lastChange = "2024-01-31 21:16:16 +0000";
layers = (
{
layerId = "2F065738-4B59-43EB-A5F2-FD5F277958EA";
shapes = (
{
closed = 1;
nodes = (
(305,-131,o),
(313,-98,o),
(288,-54,cs),
(271,-24,o),
(243,5,o),
(227,39,cs),
(185,127,o),
(164,236,o),
(164,330,cs),
(164,424,o),
(185,529,o),
(227,617,cs),
(243,651,o),
(271,680,o),
(288,710,cs),
(313,754,o),
(305,787,o),
(256,806,cs),
(233,815,o),
(210,813,o),
(187,795,cs),
(158,772,o),
(125,735,o),
(102,690,cs),
(43,575,o),
(25,455,o),
(25,330,cs),
(25,205,o),
(43,81,o),
(102,-34,cs),
(125,-79,o),
(158,-116,o),
(187,-139,cs),
(210,-157,o),
(233,-159,o),
(256,-150,cs)
);
}
);
width = 327;
}
);
unicode = 40;
userData = {
KernOnName = parenleft;
};
},
{
color = 7;
glyphname = parenright;
kernLeft = KO_parenright;
kernRight = KO_parenright;
lastChange = "2024-01-31 21:16:19 +0000";
layers = (
{
layerId = "2F065738-4B59-43EB-A5F2-FD5F277958EA";
shapes = (
{
closed = 1;
nodes = (
(94,-159,o),
(117,-157,o),
(140,-139,cs),
(169,-116,o),
(202,-79,o),
(225,-34,cs),
(284,81,o),
(302,205,o),
(302,330,cs),
(302,455,o),
(284,575,o),
(225,690,cs),
(202,735,o),
(169,772,o),
(140,795,cs),
(117,813,o),
(94,815,o),
(71,806,cs),
(22,787,o),
(14,754,o),
(39,710,cs),
(56,680,o),
(84,651,o),
(100,617,cs),
(142,529,o),
(163,424,o),
(163,330,cs),
(163,236,o),
(142,127,o),
(100,39,cs),
(84,5,o),
(56,-24,o),
(39,-54,cs),
(14,-98,o),
(22,-131,o),
(71,-150,cs)
);
}
);
width = 327;
}
);
unicode = 41;
userData = {
KernOnName = parenright;
};
},
{
color = 7;
glyphname = braceleft;
kernRight = KO_braceleft;
lastChange = "2024-01-31 21:16:22 +0000";
layers = (
{
layerId = "2F065738-4B59-43EB-A5F2-FD5F277958EA";
shapes = (
{
closed = 1;
nodes = (
(340,-155,o),
(363,-132,o),
(363,-90,cs),
(363,-58,o),
(347,-44,o),
(303,-44,cs),
(243,-44,o),
(252,34,o),
(252,118,cs),
(252,289,o),
(240,315,o),
(155,329,c),
(240,342,o),
(252,369,o),
(252,538,cs),
(252,623,o),
(243,702,o),
(303,702,cs),
(347,702,o),
(363,715,o),
(363,747,cs),
(363,790,o),
(340,811,o),
(288,811,cs),
(142,811,o),
(108,744,o),
(108,516,cs),
(108,448,o),
(92,403,o),
(66,393,cs),
(16,376,o),
(-1,358,o),
(-1,329,cs),
(-1,300,o),
(16,282,o),
(66,266,cs),
(92,256,o),
(108,210,o),
(108,141,cs),
(108,-87,o),
(142,-155,o),
(288,-155,cs)
);
}
);
width = 376;
}
);
unicode = 123;
},
{
color = 7;
glyphname = bracketleft;
kernLeft = KO_bracketleft;
kernRight = KO_bracketleft;
lastChange = "2024-01-31 21:16:24 +0000";
layers = (
{
layerId = "2F065738-4B59-43EB-A5F2-FD5F277958EA";
shapes = (
{
closed = 1;
nodes = (
(299,-150,ls),
(350,-150,o),
(369,-132,o),
(369,-86,cs),
(369,-38,o),
(348,-18,o),
(299,-18,cs),
(216,-18,l),
(216,679,l),
(299,679,ls),
(348,679,o),
(369,699,o),
(369,747,cs),
(369,793,o),
(350,811,o),
(299,811,cs),
(117,811,ls),
(91,811,o),
(72,789,o),
(72,758,cs),
(72,-97,ls),
(72,-128,o),
(91,-150,o),
(117,-150,cs)
);
}
);
width = 401;
}
);
unicode = 91;
},
{
color = 7;
glyphname = bracketright;
kernLeft = KO_bracketright;
lastChange = "2024-01-31 21:16:27 +0000";
layers = (
{
layerId = "2F065738-4B59-43EB-A5F2-FD5F277958EA";
shapes = (
{
closed = 1;
nodes = (
(319,-150,ls),
(345,-150,o),
(364,-128,o),
(364,-97,cs),
(364,758,ls),
(364,789,o),
(345,811,o),
(319,811,cs),
(137,811,ls),
(86,811,o),
(67,793,o),
(67,747,cs),
(67,699,o),
(88,679,o),
(137,679,cs),
(220,679,l),
(220,-18,l),
(137,-18,ls),
(88,-18,o),
(67,-38,o),
(67,-86,cs),
(67,-132,o),
(86,-150,o),
(137,-150,cs)
);
}
);
width = 436;
}
);
unicode = 93;
},
{
color = 7;
glyphname = quotesinglbase;
kernRight = KO_quotesinglbase;
layers = (
{
layerId = "2F065738-4B59-43EB-A5F2-FD5F277958EA";
shapes = (
{
closed = 1;
nodes = (
(114,-189,o),
(121,-172,o),
(129,-155,cs),
(234,67,ls),
(254,110,o),
(244,149,o),
(182,149,cs),
(142,149,o),
(96,131,o),
(84,86,cs),
(26,-133,o),
(30,-145,o),
(30,-153,cs),
(30,-174,o),
(44,-189,o),
(68,-189,cs)
);
}
);
width = 273;
}
);
unicode = 8218;
},
{
color = 7;
glyphname = quotedblright;
kernLeft = KO_quotedblright;
kernRight = KO_quotedblright;
layers = (
{
layerId = "2F065738-4B59-43EB-A5F2-FD5F277958EA";
shapes = (
{
closed = 1;
nodes = (
(118,366,o),
(123,396,o),
(136,437,cs),
(195,636,ls),
(209,681,o),
(198,712,o),
(136,712,cs),
(96,712,o),
(48,688,o),
(44,642,cs),
(25,419,o),
(30,407,o),
(31,399,cs),
(33,378,o),
(48,366,o),
(72,366,cs)
);
},
{
alignment = -1;
pos = (222,562);
ref = comma;
}
);
width = 508;
}
);
unicode = 8221;
},
{
color = 7;
glyphname = quoteright;
kernLeft = KO_quoteright;
kernRight = KO_quoteright;
lastChange = "2024-01-31 21:15:29 +0000";
layers = (
{
layerId = "2F065738-4B59-43EB-A5F2-FD5F277958EA";
shapes = (
{
closed = 1;
nodes = (
(96,414,o),
(114,423,o),
(121,448,cs),
(191,680,ls),
(207,730,o),
(181,762,o),
(126,762,cs),
(77,762,o),
(41,737,o),
(38,700,cs),
(25,570,o),
(20,469,o),
(21,450,cs),
(23,434,o),
(34,414,o),
(71,414,cs)
);
}
);
width = 216;
}
);
unicode = 8217;
userData = {
KernOnName = quoteright;
};
},
{
color = 7;
glyphname = guillemetleft;
kernLeft = KO_guillemetleft;
kernRight = KO_guillemetleft;
lastChange = "2024-01-31 21:15:29 +0000";
layers = (
{
layerId = "2F065738-4B59-43EB-A5F2-FD5F277958EA";
shapes = (
{
closed = 1;
nodes = (
(451,-22,o),
(495,-7,o),
(521,19,cs),
(544,41,o),
(544,68,o),
(532,93,cs),
(506,146,o),
(455,244,o),
(455,252,cs),
(455,260,o),
(506,358,o),
(532,411,cs),
(544,435,o),
(544,460,o),
(521,484,cs),
(495,510,o),
(451,525,o),
(418,495,cs),
(410,488,o),
(403,477,o),
(399,468,cs),
(366,396,o),
(299,272,o),
(299,252,cs),
(299,231,o),
(366,106,o),
(399,33,cs),
(403,24,o),
(410,15,o),
(418,8,cs)
);
},
{
closed = 1;
nodes = (
(177,-22,o),
(221,-7,o),
(247,19,cs),
(270,41,o),
(270,68,o),
(258,93,cs),
(232,146,o),
(181,244,o),
(181,252,cs),
(181,260,o),
(232,358,o),
(258,411,cs),
(270,435,o),
(270,460,o),
(247,484,cs),
(221,510,o),
(177,525,o),
(144,495,cs),
(136,488,o),
(129,477,o),
(125,468,cs),
(92,396,o),
(25,272,o),
(25,252,cs),
(25,231,o),
(92,106,o),
(125,33,cs),
(129,24,o),
(136,15,o),
(144,8,cs)
);
}
);
width = 565;
}
);
unicode = 171;
userData = {
KernOnName = guillemetleft;
};
},
{
color = 7;
glyphname = guillemetright;
kernLeft = KO_guillemetright;
kernRight = KO_guillemetright;
layers = (
{
layerId = "2F065738-4B59-43EB-A5F2-FD5F277958EA";
shapes = (
{
closed = 1;
nodes = (
(429,15,o),
(436,24,o),
(440,33,cs),
(473,106,o),
(540,231,o),
(540,252,cs),
(540,272,o),
(473,396,o),
(440,468,cs),
(436,477,o),
(429,488,o),
(421,495,cs),
(388,525,o),
(344,510,o),
(318,484,cs),
(295,460,o),
(295,435,o),
(307,411,cs),
(333,358,o),
(384,260,o),
(384,252,cs),
(384,244,o),
(333,146,o),
(307,93,cs),
(295,68,o),
(295,41,o),
(318,19,cs),
(344,-7,o),
(388,-22,o),
(421,8,cs)
);
},
{
closed = 1;
nodes = (
(155,15,o),
(162,24,o),
(166,33,cs),
(199,106,o),
(266,231,o),
(266,252,cs),
(266,272,o),
(199,396,o),
(166,468,cs),
(162,477,o),
(155,488,o),
(147,495,cs),
(114,525,o),
(70,510,o),
(44,484,cs),
(21,460,o),
(21,435,o),
(33,411,cs),
(59,358,o),
(110,260,o),
(110,252,cs),
(110,244,o),
(59,146,o),
(33,93,cs),
(21,68,o),
(21,41,o),
(44,19,cs),
(70,-7,o),
(114,-22,o),
(147,8,cs)
);
}
);
width = 565;
}
);
unicode = 187;
},
{
color = 7;
glyphname = guilsinglleft;
kernLeft = KO_guilsinglleft;
kernRight = KO_guilsinglleft;
layers = (
{
layerId = "2F065738-4B59-43EB-A5F2-FD5F277958EA";
shapes = (
{
closed = 1;
nodes = (
(202,-22,o),
(246,-7,o),
(272,19,cs),
(295,41,o),
(295,68,o),
(283,93,cs),
(257,146,o),
(206,244,o),
(206,252,cs),
(206,260,o),
(257,358,o),
(283,411,cs),
(295,435,o),
(295,460,o),
(272,484,cs),
(246,510,o),
(202,525,o),
(169,495,cs),
(161,488,o),
(154,477,o),
(150,468,cs),
(117,396,o),
(50,272,o),
(50,252,cs),
(50,231,o),
(117,106,o),
(150,33,cs),
(154,24,o),
(161,15,o),
(169,8,cs)
);
}
);
width = 321;
}
);
unicode = 8249;
},
{
color = 7;
glyphname = guilsinglright;
kernLeft = KO_guilsinglright;
kernRight = KO_guilsinglright;
layers = (
{
layerId = "2F065738-4B59-43EB-A5F2-FD5F277958EA";
shapes = (
{
closed = 1;
nodes = (
(160,15,o),
(167,24,o),
(171,33,cs),
(204,106,o),
(271,231,o),
(271,252,cs),
(271,272,o),
(204,396,o),
(171,468,cs),
(167,477,o),
(160,488,o),
(152,495,cs),
(119,525,o),
(75,510,o),
(49,484,cs),
(26,460,o),
(26,435,o),
(38,411,cs),
(64,358,o),
(115,260,o),
(115,252,cs),
(115,244,o),
(64,146,o),
(38,93,cs),
(26,68,o),
(26,41,o),
(49,19,cs),
(75,-7,o),
(119,-22,o),
(152,8,cs)
);
}
);
width = 321;
}
);
unicode = 8250;
},
{
color = 7;
glyphname = quotedbl;
kernLeft = KO_quotesingle;
kernRight = KO_quotedbl;
lastChange = "2024-01-31 21:15:29 +0000";
layers = (
{
layerId = "2F065738-4B59-43EB-A5F2-FD5F277958EA";
shapes = (
{
closed = 1;
nodes = (
(366,366,o),
(369,384,o),
(373,402,cs),
(425,634,ls),
(435,680,o),
(416,716,o),
(356,702,cs),
(317,693,o),
(276,665,o),
(274,619,cs),
(267,400,o),
(274,389,o),
(276,382,cs),
(280,361,o),
(297,350,o),
(321,356,cs)
);
},
{
closed = 1;
nodes = (
(132,366,o),
(135,384,o),
(139,402,cs),
(191,634,ls),
(201,680,o),
(182,716,o),
(122,702,cs),
(83,693,o),
(42,665,o),
(40,619,cs),
(33,400,o),
(40,389,o),
(42,382,cs),
(46,361,o),
(63,350,o),
(87,355,c)
);
}
);
width = 451;
}
);
unicode = 34;
userData = {
KernOnName = quotedbl;
};
},
{
color = 7;
glyphname = quotesingle;
kernLeft = KO_quotesingle;
kernRight = KO_quotedbl;
lastChange = "2024-01-31 21:15:29 +0000";
layers = (
{
layerId = "2F065738-4B59-43EB-A5F2-FD5F277958EA";
shapes = (
{
closed = 1;
nodes = (
(132,366,o),
(135,384,o),
(139,402,cs),
(191,634,ls),
(201,680,o),
(182,716,o),
(122,702,cs),
(83,693,o),
(42,665,o),
(40,619,cs),
(33,400,o),
(40,389,o),
(42,382,cs),
(46,361,o),
(63,350,o),
(87,356,cs)
);
}
);
width = 217;
}
);
unicode = 39;
userData = {
KernOnName = quotesingle;
};
},
{
color = 7;
glyphname = florin;
layers = (
{
anchors = (
{
name = bottom;
pos = (278,0);
},
{
name = top;
pos = (278,750);
}
);
hints = (
{
horizontal = 1;
place = (652,73);
type = Stem;
},
{
horizontal = 1;
place = (315,73);
type = Stem;
},
{
horizontal = 1;
place = (-24,21);
target = up;
type = BottomGhost;
},
{
place = (51,90);
type = Stem;
}
);
layerId = "2F065738-4B59-43EB-A5F2-FD5F277958EA";
shapes = (
{
closed = 1;
nodes = (
(309,56,o),
(333,80,o),
(333,135,cs),
(333,524,ls),
(333,583,o),
(344,644,o),
(397,644,cs),
(493,644,o),
(537,638,o),
(537,698,cs),
(537,741,o),
(501,761,o),
(399,761,cs),
(259,761,o),
(193,659,o),
(193,504,cs),
(193,135,ls),
(193,90,o),
(213,56,o),
(265,56,cs)
);
},
{
closed = 1;
nodes = (
(390,379,ls),
(434,379,o),
(458,400,o),
(458,439,cs),
(458,478,o),
(434,500,o),
(390,500,cs),
(179,500,ls),
(129,500,o),
(105,478,o),
(105,439,cs),
(105,400,o),
(129,379,o),
(179,379,cs)
);
},
{
closed = 1;
nodes = (
(267,-166,o),
(333,-64,o),
(333,91,cs),
(333,429,ls),
(333,474,o),
(313,508,o),
(261,508,cs),
(217,508,o),
(193,484,o),
(193,429,cs),
(193,71,ls),
(193,12,o),
(182,-49,o),
(129,-49,cs),
(53,-49,o),
(10,-38,o),
(10,-97,cs),
(10,-152,o),
(45,-166,o),
(127,-166,cs)
);
}
);
width = 464;
}
);
metricLeft = f;
metricRight = "-f";
unicode = 402;
},
{
color = 7;
glyphname = at;
kernLeft = KO_at;
kernRight = KO_at;
layers = (
{
hints = (
{
horizontal = 1;
place = (314,72);
type = Stem;
},
{
horizontal = 1;
place = (-26,72);
type = Stem;
},
{
place = (565,90);
type = Stem;
},
{
place = (238,90);
type = Stem;
}
);
layerId = "2F065738-4B59-43EB-A5F2-FD5F277958EA";
shapes = (
{
closed = 1;
nodes = (
(528,0,o),
(579,44,o),
(602,110,c),
(614,20,o),
(657,-37,o),
(728,-37,cs),
(780,-37,o),
(824,-1,o),
(847,52,cs),
(869,103,o),
(880,176,o),
(880,252,cs),
(880,529,o),
(723,706,o),
(473,706,cs),
(219,706,o),
(48,523,o),
(48,250,cs),
(48,-23,o),
(218,-198,o),
(466,-198,cs),
(565,-198,o),
(620,-170,o),
(620,-118,cs),
(620,-100,o),
(604,-76,o),
(567,-76,cs),
(536,-76,o),
(505,-86,o),
(454,-86,cs),
(266,-86,o),
(173,53,o),
(173,251,cs),
(173,442,o),
(259,582,o),
(475,582,cs),
(684,582,o),
(755,452,o),
(755,225,cs),
(755,124,o),
(751,80,o),
(715,80,cs),
(683,80,o),
(679,116,o),
(679,211,cs),
(679,267,ls),
(679,416,o),
(595,499,o),
(467,499,cs),
(343,499,o),
(254,416,o),
(254,249,cs),
(254,80,o),
(344,0,o),
(453,0,cs)
);
},
{
closed = 1;
nodes = (
(409,109,o),
(374,138,o),
(374,248,cs),
(374,358,o),
(409,390,o),
(466,390,cs),
(521,390,o),
(558,360,o),
(558,249,cs),
(558,137,o),
(521,109,o),
(466,109,cs)
);
}
);
width = 928;
}
);
metricLeft = O;
metricRight = O;
unicode = 64;
},
{
color = 7;
glyphname = ampersand;
kernLeft = KO_ampersand;
kernRight = KO_ampersand;
lastChange = "2024-01-23 22:00:10 +0000";
layers = (
{
background = {
anchors = (
{
name = bottom;
pos = (278,0);
},
{
name = top;
pos = (278,700);
}
);
hints = (
{
horizontal = 1;
place = (-8,72);
type = Stem;
},
{
horizontal = 1;
place = (-8,72);
type = Stem;
},
{
horizontal = 1;
place = (-8,72);
type = Stem;
},
{
place = (318,90);
type = Stem;
},
{
place = (318,90);
type = Stem;
}
);
};
hints = (
{
horizontal = 1;
place = (314,72);
type = Stem;
},
{
horizontal = 1;
place = (-26,72);
type = Stem;
},
{
place = (377,90);
type = Stem;
},
{
place = (50,90);
type = Stem;
},
{
horizontal = 1;
place = (314,72);
type = Stem;
},
{
horizontal = 1;
place = (151,72);
type = Stem;
},
{
horizontal = 1;
place = (-24,72);
type = Stem;
},
{
place = (700,90);
type = Stem;
},
{
place = (373,90);
type = Stem;
},
{
horizontal = 1;
place = (114,63);
type = Stem;
},
{
horizontal = 1;
place = (0,0);
type = Stem;
},
{
horizontal = 1;
place = (449,72);
type = Stem;
},
{
place = (378,90);
type = Stem;
},
{
place = (709,90);
type = Stem;
}
);
layerId = "2F065738-4B59-43EB-A5F2-FD5F277958EA";
name = Bold;
shapes = (
{
closed = 1;
nodes = (
(445,162,o),
(326,97,o),
(245,97,cs),
(207,97,o),
(186,117,o),
(186,154,cs),
(186,197,o),
(210,256,o),
(285,279,c),
(342,307,l),
(429,363,o),
(485,457,o),
(485,539,cs),
(485,648,o),
(400,711,o),
(299,711,cs),
(187,711,o),
(106,655,o),
(106,540,cs),
(106,491,o),
(127,428,o),
(165,382,cs),
(477,5,ls),
(489,-9,o),
(506,-20,o),
(526,-20,cs),
(559,-20,o),
(586,7,o),
(586,40,cs),
(586,53,o),
(583,65,o),
(575,75,cs),
(266,443,ls),
(224,494,o),
(226,528,o),
(226,539,cs),
(226,575,o),
(254,594,o),
(299,594,cs),
(351,594,o),
(365,559,o),
(365,535,cs),
(365,505,o),
(343,441,o),
(262,398,c),
(201,365,l),
(92,323,o),
(47,227,o),
(47,154,cs),
(47,44,o),
(105,-21,o),
(246,-21,cs),
(331,-21,o),
(551,61,o),
(586,287,cs),
(587,292,o),
(588,298,o),
(588,304,cs),
(588,337,o),
(561,364,o),
(528,364,cs),
(501,364,o),
(474,346,o),
(470,321,cs)
);
}
);
width = 628;
}
);
unicode = 38;
},
{
color = 7;
glyphname = paragraph;
layers = (
{
hints = (
{
horizontal = 1;
place = (770,71);
type = Stem;
},
{
horizontal = 1;
place = (431,72);
type = Stem;
},
{
horizontal = 1;
place = (93,21);
target = up;
type = BottomGhost;
},
{
place = (-334,90);
type = Stem;
},
{
place = (4,90);
type = Stem;
}
);
layerId = "2F065738-4B59-43EB-A5F2-FD5F277958EA";
shapes = (
{
closed = 1;
nodes = (
(618,-211,o),
(638,-180,o),
(638,-131,cs),
(638,631,ls),
(638,680,o),
(618,711,o),
(566,711,cs),
(514,711,o),
(494,680,o),
(494,631,cs),
(494,-131,ls),
(494,-180,o),
(514,-211,o),
(566,-211,cs)
);
},
{
closed = 1;
nodes = (
(394,-211,o),
(414,-181,o),
(414,-133,cs),
(414,607,ls),
(414,687,o),
(386,711,o),
(283,711,cs),
(151,711,o),
(24,663,o),
(24,496,cs),
(24,359,o),
(158,293,o),
(221,293,cs),
(274,293,o),
(270,277,o),
(270,178,cs),
(270,-133,ls),
(270,-181,o),
(290,-211,o),
(342,-211,cs)
);
}
);
width = 692;
},
{
associatedMasterId = "2F065738-4B59-43EB-A5F2-FD5F277958EA";
hints = (
{
horizontal = 1;
place = (770,71);
type = Stem;
},
{
horizontal = 1;
place = (431,72);
type = Stem;
},
{
horizontal = 1;
place = (93,21);
target = up;
type = BottomGhost;
},
{
place = (-334,90);
type = Stem;
},
{
place = (4,90);
type = Stem;
}
);
layerId = "AEDC5912-F347-4DB8-8817-902302E2599A";
name = "22 Jan 24, 18:15";
shapes = (
{
closed = 1;
nodes = (
(596,-211,o),
(616,-180,o),
(616,-131,cs),
(616,631,ls),
(616,680,o),
(596,711,o),
(544,711,cs),
(492,711,o),
(472,680,o),
(472,631,cs),
(472,-131,ls),
(472,-180,o),
(492,-211,o),
(544,-211,cs)
);
},
{
closed = 1;
nodes = (
(372,-211,o),
(392,-181,o),
(392,-133,cs),
(392,607,ls),
(392,687,o),
(364,711,o),
(261,711,cs),
(150,711,o),
(43,672,o),
(43,536,cs),
(43,426,o),
(150,374,o),
(199,374,cs),
(252,374,o),
(248,358,o),
(248,258,cs),
(248,-133,ls),
(248,-181,o),
(268,-211,o),
(320,-211,cs)
);
}
);
width = 670;
}
);
unicode = 182;
},
{
color = 7;
glyphname = section;
lastChange = "2024-01-30 19:32:22 +0000";
layers = (
{
anchors = (
{
name = bottom;
pos = (675,8);
},
{
name = top;
pos = (675,508);
}
);
background = {
shapes = (
{
closed = 1;
nodes = (
(221,485,l),
(114,476,o),
(51,421,o),
(51,363,cs),
(51,291,o),
(95,241,o),
(162,222,cs),
(271,190,o),
(285,186,o),
(285,152,cs),
(285,124,o),
(267,113,o),
(219,113,cs),
(194,113,o),
(164,120,o),
(148,125,cs),
(111,137,o),
(104,139,o),
(91,139,cs),
(60,139,o),
(40,117,o),
(40,83,cs),
(40,29,o),
(104,0,o),
(228,0,cs),
(353,0,o),
(430,62,o),
(430,155,cs),
(430,235,o),
(384,281,o),
(285,310,cs),
(213,331,o),
(193,346,o),
(193,373,cs),
(193,390,o),
(202,401,o),
(221,405,c)
);
},
{
closed = 1;
nodes = (
(195,263,l),
(310,227,l),
(391,232,o),
(463,268,o),
(463,347,cs),
(463,427,o),
(417,473,o),
(314,502,cs),
(240,523,o),
(220,538,o),
(220,565,cs),
(220,587,o),
(235,599,o),
(269,599,cs),
(292,599,o),
(313,594,o),
(333,588,cs),
(359,581,o),
(377,577,o),
(391,577,cs),
(424,577,o),
(444,601,o),
(444,633,cs),
(444,684,o),
(385,711,o),
(286,711,cs),
(153,711,o),
(73,656,o),
(73,555,cs),
(73,483,o),
(118,433,o),
(188,414,cs),
(300,382,o),
(314,378,o),
(314,344,cs),
(314,316,o),
(296,305,o),
(246,305,cs),
(230,305,o),
(210,308,o),
(195,312,c)
);
}
);
};
hints = (
{
horizontal = 1;
place = (314,72);
type = Stem;
},
{
horizontal = 1;
place = (151,72);
type = Stem;
},
{
horizontal = 1;
place = (-24,71);
type = Stem;
},
{
place = (845,90);
type = Stem;
},
{
place = (517,90);
type = Stem;
},
{
horizontal = 1;
place = (314,72);
type = Stem;
},
{
horizontal = 1;
place = (151,72);
type = Stem;
},
{
horizontal = 1;
place = (-24,71);
type = Stem;
},
{
place = (378,90);
type = Stem;
},
{
place = (50,90);
type = Stem;
}
);
layerId = "2F065738-4B59-43EB-A5F2-FD5F277958EA";
shapes = (
{
closed = 1;
nodes = (
(351,0,o),
(429,60,o),
(429,155,cs),
(429,194,o),
(419,225,o),
(396,250,c),
(433,270,o),
(453,303,o),
(453,347,cs),
(453,430,o),
(413,474,o),
(314,502,cs),
(242,522,o),
(220,537,o),
(220,565,cs),
(220,588,o),
(236,599,o),
(269,599,cs),
(289,599,o),
(309,596,o),
(333,588,cs),
(363,580,o),
(379,577,o),
(391,577,cs),
(423,577,o),
(444,600,o),
(444,633,cs),
(444,683,o),
(387,711,o),
(286,711,cs),
(151,711,o),
(73,654,o),
(73,555,cs),
(73,514,o),
(90,481,o),
(123,457,c),
(84,435,o),
(61,402,o),
(61,363,cs),
(61,293,o),
(93,252,o),
(162,232,cs),
(264,202,o),
(285,188,o),
(285,152,cs),
(285,124,o),
(267,113,o),
(219,113,cs),
(200,113,o),
(171,118,o),
(148,125,cs),
(112,137,o),
(104,139,o),
(91,139,cs),
(60,139,o),
(40,117,o),
(40,83,cs),
(40,29,o),
(105,0,o),
(228,0,cs)
);
},
{
closed = 1;
nodes = (
(202,334,o),
(193,339,o),
(193,363,cs),
(193,391,o),
(203,401,o),
(250,410,c),
(310,392,o),
(314,383,o),
(314,358,cs),
(314,336,o),
(302,319,o),
(282,311,c)
);
}
);
width = 503;
}
);
unicode = 167;
},
{
color = 7;
glyphname = copyright;
lastChange = "2024-01-30 19:31:17 +0000";
layers = (
{
layerId = "2F065738-4B59-43EB-A5F2-FD5F277958EA";
shapes = (
{
closed = 1;
nodes = (
(621,-8,o),
(724,146,o),
(724,352,cs),
(724,557,o),
(620,711,o),
(392,711,cs),
(155,711,o),
(48,557,o),
(48,352,cs),
(48,146,o),
(156,-8,o),
(392,-8,cs)
);
},
{
closed = 1;
nodes = (
(489,151,o),
(523,164,o),
(523,207,cs),
(523,229,o),
(510,243,o),
(478,240,cs),
(460,238,o),
(447,231,o),
(407,231,cs),
(325,231,o),
(318,292,o),
(318,351,cs),
(318,410,o),
(336,471,o),
(406,471,cs),
(447,471,o),
(448,467,o),
(478,463,cs),
(506,459,o),
(523,476,o),
(523,496,cs),
(523,539,o),
(489,553,o),
(409,553,cs),
(282,553,o),
(223,471,o),
(223,351,cs),
(223,230,o),
(282,151,o),
(409,151,cs)
);
},
{
closed = 1;
nodes = (
(200,80,o),
(140,195,o),
(140,351,cs),
(140,508,o),
(200,622,o),
(392,622,cs),
(575,622,o),
(632,508,o),
(632,351,cs),
(632,195,o),
(575,80,o),
(392,80,cs)
);
}
);
width = 772;
},
{
associatedMasterId = "2F065738-4B59-43EB-A5F2-FD5F277958EA";
layerId = "B1ED95F4-51D0-45F3-AFC2-72732BB5277A";
name = "22 Jan 24, 18:19";
shapes = (
{
locked = 1;
pos = (210,170);
ref = c;
scale = (0.7276,0.7276);
},
{
closed = 1;
nodes = (
(392,-8,cs),
(621,-8,o),
(724,146,o),
(724,352,cs),
(724,557,o),
(620,711,o),
(392,711,cs),
(155,711,o),
(48,557,o),
(48,352,cs),
(48,146,o),
(156,-8,o)
);
},
{
closed = 1;
nodes = (
(392,624,c),
(576,624,o),
(635,510,o),
(635,351,cs),
(635,193,o),
(576,78,o),
(392,78,c),
(199,78,o),
(137,193,o),
(137,351,cs),
(137,510,o),
(199,624,o)
);
}
);
width = 772;
}
);
metricLeft = O;
metricRight = O;
unicode = 169;
},
{
color = 7;
glyphname = registered;
kernLeft = KO_registered;
lastChange = "2024-01-30 19:31:21 +0000";
layers = (
{
associatedMasterId = "2F065738-4B59-43EB-A5F2-FD5F277958EA";
layerId = "EA603927-64C6-44C2-8410-B3ACAE67B1AB";
name = "8 Jan 24, 19:23";
shapes = (
{
pos = (212,-47);
ref = R;
scale = (0.8118,0.8118);
},
{
closed = 1;
nodes = (
(458,-259,cs),
(740,-259,o),
(868,-51,o),
(868,225,cs),
(868,502,o),
(740,711,o),
(458,711,cs),
(176,711,o),
(48,502,o),
(48,225,cs),
(48,-51,o),
(176,-259,o)
);
},
{
closed = 1;
nodes = (
(458,604,c),
(685,604,o),
(757,446,o),
(757,224,cs),
(757,5,o),
(685,-152,o),
(458,-152,c),
(231,-152,o),
(159,5,o),
(159,224,cs),
(159,446,o),
(231,604,o)
);
}
);
width = 916;
},
{
anchors = (
{
name = bottom;
pos = (389.215,167);
},
{
name = top;
pos = (389.215,547.17);
}
);
associatedMasterId = "2F065738-4B59-43EB-A5F2-FD5F277958EA";
hints = (
{
horizontal = 1;
place = (521.644,38.56);
type = Stem;
},
{
horizontal = 1;
place = (337.533,39.103);
type = Stem;
},
{
horizontal = 1;
place = (153.966,21);
target = up;
type = BottomGhost;
},
{
place = (440.266,48.879);
type = Stem;
},
{
place = (256.698,48.879);
type = Stem;
},
{
horizontal = 1;
place = (524.444,40.822);
type = Stem;
},
{
horizontal = 1;
place = (329.535,41.397);
type = Stem;
},
{
horizontal = 1;
place = (135.201,21);
target = up;
type = BottomGhost;
},
{
place = (443.656,51.746);
type = Stem;
},
{
place = (249.323,51.746);
type = Stem;
}
);
layerId = "05A6D0DF-10D0-4483-900F-A43B143DB9E3";
name = "Jan 30, 24 at 14:30";
shapes = (
{
closed = 1;
nodes = (
(48,146,o),
(156,-8,o),
(392,-8,cs),
(621,-8,o),
(724,146,o),
(724,352,cs),
(724,557,o),
(620,711,o),
(392,711,cs),
(155,711,o),
(48,557,o),
(48,352,cs)
);
},
{
closed = 1;
nodes = (
(140,508,o),
(200,622,o),
(392,622,c),
(575,622,o),
(632,508,o),
(632,351,cs),
(632,199,o),
(575,80,o),
(392,80,c),
(200,80,o),
(140,195,o),
(140,351,cs)
);
},
{
closed = 1;
nodes = (
(388,310,o),
(403,310,cs),
(449,310,o),
(443,283,o),
(443,233,cs),
(443,193,ls),
(443,166,o),
(461,154,o),
(487,154,cs),
(520,154,o),
(533,166,o),
(533,193,cs),
(533,265,ls),
(533,288,o),
(526,313,o),
(500,325,c),
(519,336,o),
(528,353,o),
(533,373,cs),
(536,384,o),
(538,413,o),
(538,438,cs),
(538,521,o),
(485,561,o),
(405,561,cs),
(275,561,o),
(256,491,o),
(256,428,cs),
(256,193,ls),
(256,166,o),
(272,154,o),
(301,154,cs),
(328,154,o),
(341,166,o),
(341,193,cs),
(341,249,l),
(341,433,ls),
(341,476,o),
(357,488,o),
(402,488,cs),
(438,488,o),
(457,474,o),
(457,423,cs),
(457,379,o),
(426,381,o),
(401,381,cs),
(397,381,o),
(393,381,o),
(390,381,c),
(378,381,o),
(359,374,o),
(359,344,cs),
(359,313,o)
);
}
);
width = 772;
},
{
hints = (
{
horizontal = 1;
place = (521.644,38.56);
type = Stem;
},
{
horizontal = 1;
place = (337.533,39.103);
type = Stem;
},
{
horizontal = 1;
place = (153.966,21);
target = up;
type = BottomGhost;
},
{
place = (440.266,48.879);
type = Stem;
},
{
place = (256.698,48.879);
type = Stem;
}
);
layerId = "2F065738-4B59-43EB-A5F2-FD5F277958EA";
name = Bold;
shapes = (
{
closed = 1;
nodes = (
(621,-8,o),
(724,146,o),
(724,352,cs),
(724,557,o),
(620,711,o),
(392,711,cs),
(155,711,o),
(48,557,o),
(48,352,cs),
(48,146,o),
(156,-8,o),
(392,-8,cs)
);
},
{
closed = 1;
nodes = (
(200,80,o),
(140,195,o),
(140,351,cs),
(140,508,o),
(200,622,o),
(392,622,cs),
(575,622,o),
(632,508,o),
(632,351,cs),
(632,199,o),
(575,80,o),
(392,80,cs)
);
},
{
closed = 1;
nodes = (
(330,163,o),
(348,176,o),
(348,201,cs),
(348,261,ls),
(348,307,o),
(361,321,o),
(395,321,cs),
(437,321,o),
(438,295,o),
(438,246,cs),
(438,201,ls),
(438,176,o),
(458,163,o),
(483,163,cs),
(506,163,o),
(524,176,o),
(524,201,cs),
(524,277,ls),
(524,298,o),
(515,318,o),
(494,333,c),
(511,344,o),
(519,359,o),
(524,379,cs),
(527,389,o),
(529,417,o),
(529,440,cs),
(529,509,o),
(481,556,o),
(403,556,cs),
(281,556,o),
(262,490,o),
(262,431,cs),
(262,201,ls),
(262,176,o),
(277,163,o),
(305,163,cs)
);
},
{
closed = 1;
nodes = (
(347,392,o),
(348,419,o),
(348,435,cs),
(348,468,o),
(362,480,o),
(401,480,cs),
(433,480,o),
(451,467,o),
(451,426,cs),
(451,388,o),
(437,389,o),
(393,389,cs),
(363,389,o),
(355,382,o),
(343,371,c)
);
}
);
width = 772;
}
);
metricLeft = O;
metricRight = O;
unicode = 174;
},
{
color = 7;
glyphname = trademark;
kernLeft = KO_trademark;
lastChange = "2024-01-29 11:53:19 +0000";
layers = (
{
anchors = (
{
name = bottom;
pos = (193.305,318);
},
{
name = center;
pos = (193.305,510.57);
},
{
name = top;
pos = (193.305,703.14);
}
);
guides = (
{
pos = (422,363);
}
);
hints = (
{
horizontal = 1;
place = (676.18,40.165);
type = Stem;
},
{
horizontal = 1;
place = (304.795,21);
target = up;
type = BottomGhost;
},
{
place = (163.044,50.068);
type = Stem;
},
{
place = (70.06,48.968);
type = Stem;
},
{
horizontal = 1;
place = (554.409,54.382);
type = Stem;
},
{
horizontal = 1;
place = (302.139,21);
target = up;
type = BottomGhost;
},
{
horizontal = 1;
place = (301.383,21);
target = up;
type = BottomGhost;
},
{
place = (802.881,67.222);
type = Stem;
},
{
place = (580.068,69.488);
type = Stem;
},
{
place = (359.52,68.732);
type = Stem;
},
{
horizontal = 1;
place = (555.164,54.382);
type = Stem;
},
{
horizontal = 1;
place = (300.628,21);
target = up;
type = BottomGhost;
},
{
place = (609.525,67.977);
type = Stem;
},
{
place = (359.52,67.977);
type = Stem;
}
);
layerId = "2F065738-4B59-43EB-A5F2-FD5F277958EA";
shapes = (
{
closed = 1;
nodes = (
(239,623,l),
(316,623,ls),
(341,623,o),
(352,643,o),
(352,664,cs),
(352,686,o),
(340,700,o),
(316,700,cs),
(80,700,ls),
(56,700,o),
(44,686,o),
(44,664,cs),
(44,647,o),
(55,623,o),
(80,623,cs),
(177,623,l),
(160,620,o),
(154,617,o),
(154,600,cs),
(154,365,ls),
(154,329,o),
(166,312,o),
(196,312,cs),
(226,312,o),
(239,329,o),
(239,365,cs)
);
},
{
closed = 1;
nodes = (
(809,329,o),
(822,312,o),
(852,312,cs),
(882,312,o),
(894,329,o),
(894,365,cs),
(894,559,ls),
(894,661,o),
(840,702,o),
(763,702,cs),
(699,702,o),
(659,695,o),
(636,648,c),
(613,695,o),
(573,702,o),
(509,702,cs),
(420,702,o),
(377,671,o),
(377,559,cs),
(377,365,ls),
(377,329,o),
(388,312,o),
(419,312,cs),
(450,312,o),
(462,329,o),
(462,365,cs),
(462,551,ls),
(462,600,o),
(481,623,o),
(529,623,cs),
(573,623,o),
(593,600,o),
(593,551,cs),
(593,365,ls),
(593,332,o),
(604,315,o),
(635,315,cs),
(667,315,o),
(678,332,o),
(678,365,cs),
(679,551,ls),
(679,600,o),
(698,623,o),
(743,623,cs),
(789,623,o),
(809,602,o),
(809,551,cs),
(809,365,ls)
);
}
);
width = 1003;
},
{
anchors = (
{
name = bottom;
pos = (193.305,318);
},
{
name = center;
pos = (193.305,510.57);
},
{
name = top;
pos = (193.305,703.14);
}
);
associatedMasterId = "2F065738-4B59-43EB-A5F2-FD5F277958EA";
guides = (
{
pos = (422,363);
}
);
hints = (
{
horizontal = 1;
place = (676.18,40.165);
type = Stem;
},
{
horizontal = 1;
place = (304.795,21);
target = up;
type = BottomGhost;
},
{
place = (163.044,50.068);
type = Stem;
},
{
place = (70.06,48.968);
type = Stem;
},
{
horizontal = 1;
place = (554.409,54.382);
type = Stem;
},
{
horizontal = 1;
place = (302.139,21);
target = up;
type = BottomGhost;
},
{
horizontal = 1;
place = (301.383,21);
target = up;
type = BottomGhost;
},
{
place = (802.881,67.222);
type = Stem;
},
{
place = (580.068,69.488);
type = Stem;
},
{
place = (359.52,68.732);
type = Stem;
},
{
horizontal = 1;
place = (555.164,54.382);
type = Stem;
},
{
horizontal = 1;
place = (300.628,21);
target = up;
type = BottomGhost;
},
{
place = (609.525,67.977);
type = Stem;
},
{
place = (359.52,67.977);
type = Stem;
}
);
layerId = "0753C78C-1223-46AB-97F6-FA297B5EA939";
name = "22 Jan 24, 18:33";
shapes = (
{
closed = 1;
nodes = (
(251,608,l),
(316,608,ls),
(341,608,o),
(352,627,o),
(352,654,cs),
(352,682,o),
(340,700,o),
(316,700,cs),
(80,700,ls),
(56,700,o),
(44,682,o),
(44,654,cs),
(44,627,o),
(55,608,o),
(80,608,cs),
(165,608,l),
(158,605,o),
(142,599,o),
(142,585,cs),
(142,363,ls),
(142,329,o),
(159,312,o),
(196,312,cs),
(233,312,o),
(251,329,o),
(251,363,cs)
);
},
{
closed = 1;
nodes = (
(458,312,o),
(476,329,o),
(476,363,cs),
(476,539,ls),
(476,588,o),
(492,611,o),
(529,611,cs),
(566,611,o),
(583,588,o),
(583,539,cs),
(583,366,ls),
(583,332,o),
(600,315,o),
(636,315,cs),
(671,315,o),
(689,332,o),
(689,366,cs),
(689,539,ls),
(689,588,o),
(705,611,o),
(743,611,cs),
(779,611,o),
(796,590,o),
(796,539,cs),
(796,363,ls),
(796,329,o),
(813,312,o),
(850,312,cs),
(887,312,o),
(905,329,o),
(905,363,cs),
(905,545,ls),
(905,647,o),
(854,702,o),
(763,702,cs),
(699,702,o),
(659,681,o),
(636,634,c),
(613,681,o),
(573,702,o),
(509,702,cs),
(418,702,o),
(367,647,o),
(367,545,cs),
(367,363,ls),
(367,329,o),
(384,312,o),
(421,312,cs)
);
}
);
width = 1003;
}
);
unicode = 8482;
},
{
color = 7;
glyphname = degree;
kernLeft = KO_degree;
kernRight = KO_degree;
layers = (
{
layerId = "2F065738-4B59-43EB-A5F2-FD5F277958EA";
shapes = (
{
closed = 1;
nodes = (
(312,388,o),
(383,459,o),
(383,550,cs),
(383,641,o),
(312,711,o),
(222,711,cs),
(130,711,o),
(60,641,o),
(60,550,cs),
(60,459,o),
(130,388,o),
(222,388,cs)
);
},
{
closed = 1;
nodes = (
(182,483,o),
(155,510,o),
(155,550,cs),
(155,589,o),
(182,616,o),
(223,616,cs),
(262,616,o),
(288,589,o),
(288,550,cs),
(288,510,o),
(262,483,o),
(223,483,cs)
);
}
);
width = 443;
}
);
metricRight = "=|";
unicode = 176;
},
{
color = 7;
glyphname = bar;
layers = (
{
anchors = (
{
name = bottom;
pos = (152,0);
},
{
name = center;
pos = (152,250);
},
{
name = top;
pos = (152,750);
},
{
name = topright;
pos = (269,750);
}
);
layerId = "2F065738-4B59-43EB-A5F2-FD5F277958EA";
shapes = (
{
closed = 1;
nodes = (
(204,-310,o),
(224,-280,o),
(224,-232,cs),
(224,732,ls),
(224,780,o),
(204,810,o),
(152,810,cs),
(100,810,o),
(80,780,o),
(80,732,cs),
(80,-232,ls),
(80,-280,o),
(100,-310,o),
(152,-310,cs)
);
}
);
width = 305;
}
);
unicode = 124;
},
{
color = 7;
glyphname = brokenbar;
layers = (
{
layerId = "2F065738-4B59-43EB-A5F2-FD5F277958EA";
shapes = (
{
closed = 1;
nodes = (
(204,254,o),
(224,284,o),
(224,332,cs),
(224,732,ls),
(224,780,o),
(204,810,o),
(152,810,cs),
(100,810,o),
(80,780,o),
(80,732,cs),
(80,332,ls),
(80,284,o),
(100,254,o),
(152,254,cs)
);
},
{
closed = 1;
nodes = (
(204,-310,o),
(224,-280,o),
(224,-232,cs),
(224,88,ls),
(224,136,o),
(204,166,o),
(152,166,cs),
(100,166,o),
(80,136,o),
(80,88,cs),
(80,-232,ls),
(80,-280,o),
(100,-310,o),
(152,-310,cs)
);
}
);
width = 305;
}
);
unicode = 166;
},
{
color = 7;
glyphname = dagger;
kernLeft = KO_dagger;
layers = (
{
layerId = "2F065738-4B59-43EB-A5F2-FD5F277958EA";
shapes = (
{
closed = 1;
nodes = (
(265,144,o),
(285,174,o),
(285,222,cs),
(285,732,ls),
(285,780,o),
(265,810,o),
(213,810,cs),
(161,810,o),
(141,780,o),
(141,732,cs),
(141,222,ls),
(141,174,o),
(161,144,o),
(213,144,cs)
);
},
{
closed = 1;
nodes = (
(30,569,o),
(60,549,o),
(108,549,cs),
(312,549,ls),
(360,549,o),
(390,569,o),
(390,621,cs),
(390,673,o),
(360,693,o),
(312,693,cs),
(108,693,ls),
(60,693,o),
(30,673,o),
(30,621,cs)
);
}
);
width = 420;
}
);
metricLeft = "=30";
metricRight = "=|";
unicode = 8224;
},
{
color = 7;
glyphname = daggerdbl;
lastChange = "2024-01-29 11:54:37 +0000";
layers = (
{
layerId = "2F065738-4B59-43EB-A5F2-FD5F277958EA";
shapes = (
{
ref = dagger;
},
{
closed = 1;
nodes = (
(30,354,o),
(60,334,o),
(108,334,cs),
(312,334,ls),
(360,334,o),
(390,354,o),
(390,406,cs),
(390,458,o),
(360,478,o),
(312,478,cs),
(108,478,ls),
(60,478,o),
(30,458,o),
(30,406,cs)
);
}
);
width = 420;
}
);
metricLeft = dagger;
metricRight = dagger;
unicode = 8225;
},
{
color = 7;
glyphname = cent;
layers = (
{
hints = (
{
horizontal = 1;
place = (314,72);
type = Stem;
},
{
horizontal = 1;
place = (-23,72);
type = Stem;
},
{
place = (390,89);
type = Stem;
},
{
place = (51,90);
type = Stem;
},
{
horizontal = 1;
place = (151,72);
type = Stem;
},
{
horizontal = 1;
place = (-24,72);
type = Stem;
},
{
place = (377,90);
type = Stem;
},
{
place = (50,90);
type = Stem;
},
{
horizontal = 1;
place = (114,63);
type = Stem;
},
{
horizontal = 1;
place = (244,64);
type = Stem;
},
{
horizontal = 1;
place = (449,72);
type = Stem;
},
{
place = (55,90);
type = Stem;
},
{
place = (386,90);
type = Stem;
}
);
layerId = "2F065738-4B59-43EB-A5F2-FD5F277958EA";
shapes = (
{
closed = 1;
nodes = (
(318,558,ls),
(318,589,o),
(305,608,o),
(269,608,cs),
(234,608,o),
(220,589,o),
(220,558,cs),
(220,453,l),
(318,440,l)
);
},
{
closed = 1;
nodes = (
(305,-108,o),
(318,-89,o),
(318,-58,cs),
(318,22,l),
(220,41,l),
(220,-58,ls),
(220,-89,o),
(234,-108,o),
(269,-108,cs)
);
},
{
ref = c;
}
);
width = 451;
}
);
unicode = 162;
},
{
color = 7;
glyphname = dollar;
layers = (
{
layerId = "2F065738-4B59-43EB-A5F2-FD5F277958EA";
shapes = (
{
ref = S;
},
{
closed = 1;
nodes = (
(327,631,l),
(327,708,ls),
(327,762,o),
(311,788,o),
(279,788,cs),
(246,788,o),
(230,762,o),
(230,708,cs),
(230,636,l)
);
},
{
closed = 1;
nodes = (
(230,66,l),
(230,-30,ls),
(230,-74,o),
(245,-93,o),
(279,-93,cs),
(309,-93,o),
(327,-64,o),
(327,-15,cs),
(327,61,l)
);
}
);
width = 556;
}
);
metricLeft = S;
unicode = 36;
},
{
color = 7;
glyphname = euro;
lastChange = "2024-01-24 20:47:36 +0000";
layers = (
{
layerId = "2F065738-4B59-43EB-A5F2-FD5F277958EA";
shapes = (
{
ref = C;
},
{
closed = 1;
nodes = (
(312,222,ls),
(343,222,o),
(363,237,o),
(363,278,cs),
(363,318,o),
(343,333,o),
(312,333,cs),
(9,333,ls),
(-22,333,o),
(-42,318,o),
(-42,278,cs),
(-42,237,o),
(-22,222,o),
(9,222,cs)
);
},
{
closed = 1;
nodes = (
(312,378,ls),
(343,378,o),
(363,393,o),
(363,434,cs),
(363,474,o),
(343,489,o),
(312,489,cs),
(9,489,ls),
(-22,489,o),
(-42,474,o),
(-42,434,cs),
(-42,393,o),
(-22,378,o),
(9,378,cs)
);
}
);
width = 533;
}
);
unicode = 8364;
},
{
color = 7;
glyphname = sterling;
layers = (
{
anchors = (
{
name = top;
pos = (209,398);
}
);
hints = (
{
horizontal = 1;
place = (413,81);
type = Stem;
},
{
place = (53,312);
type = Stem;
}
);
layerId = "2F065738-4B59-43EB-A5F2-FD5F277958EA";
shapes = (
{
closed = 1;
nodes = (
(460,0,ls),
(510,0,o),
(537,24,o),
(537,69,cs),
(537,114,o),
(509,139,o),
(460,139,cs),
(273,139,ls),
(250,139,o),
(225,127,o),
(209,108,c),
(219,177,o),
(267,222,o),
(267,346,cs),
(267,547,o),
(241,579,o),
(359,579,cs),
(395,579,o),
(434,573,o),
(467,573,cs),
(518,573,o),
(540,593,o),
(540,632,cs),
(540,702,o),
(424,712,o),
(364,711,cs),
(159,704,o),
(84,610,o),
(123,347,cs),
(129,307,l),
(129,213,o),
(73,139,o),
(73,78,cs),
(73,25,o),
(97,0,o),
(145,0,cs)
);
},
{
closed = 1;
nodes = (
(372,296,ls),
(403,296,o),
(423,311,o),
(423,352,cs),
(423,392,o),
(403,407,o),
(372,407,cs),
(69,407,ls),
(38,407,o),
(18,392,o),
(18,352,cs),
(18,311,o),
(38,296,o),
(69,296,cs)
);
}
);
width = 588;
}
);
unicode = 163;
},
{
color = 7;
glyphname = yen;
layers = (
{
anchors = (
{
name = bottom;
pos = (304,0);
},
{
name = ogonek;
pos = (299,0);
},
{
name = top;
pos = (288,700);
},
{
name = topleft;
pos = (92,700);
}
);
hints = (
{
horizontal = 1;
place = (724,-20);
target = down;
type = TopGhost;
},
{
horizontal = 1;
place = (-23,71);
type = Stem;
},
{
place = (388,89);
type = Stem;
},
{
place = (51,90);
type = Stem;
},
{
horizontal = 1;
place = (652,72);
type = Stem;
},
{
horizontal = 1;
place = (-24,72);
type = Stem;
},
{
place = (367,90);
type = Stem;
},
{
horizontal = 1;
place = (724,-20);
target = down;
type = TopGhost;
},
{
horizontal = 1;
place = (-23,71);
type = Stem;
},
{
place = (388,89);
type = Stem;
},
{
place = (51,90);
type = Stem;
},
{
horizontal = 1;
place = (652,72);
type = Stem;
},
{
horizontal = 1;
place = (-24,72);
type = Stem;
},
{
place = (367,90);
type = Stem;
}
);
layerId = "2F065738-4B59-43EB-A5F2-FD5F277958EA";
shapes = (
{
closed = 1;
nodes = (
(375,266,l),
(525,407,o),
(552,447,o),
(552,572,cs),
(552,662,o),
(525,711,o),
(477,711,cs),
(437,711,o),
(405,685,o),
(405,652,cs),
(405,630,o),
(417,577,o),
(417,540,cs),
(417,483,o),
(400,454,o),
(320,381,c),
(175,647,ls),
(150,693,o),
(125,711,o),
(81,711,cs),
(26,711,o),
(1,660,o),
(33,604,cs),
(236,255,l)
);
},
{
closed = 1;
nodes = (
(357,-8,o),
(378,13,o),
(378,59,cs),
(378,332,l),
(234,332,l),
(234,59,ls),
(234,13,o),
(258,-8,o),
(308,-8,cs)
);
},
{
closed = 1;
nodes = (
(450,185,ls),
(479,185,o),
(497,199,o),
(497,228,cs),
(497,257,o),
(479,271,o),
(450,271,cs),
(154,271,ls),
(125,271,o),
(107,257,o),
(107,228,cs),
(107,199,o),
(125,185,o),
(154,185,cs)
);
},
{
closed = 1;
nodes = (
(450,55,ls),
(479,55,o),
(497,69,o),
(497,98,cs),
(497,127,o),
(479,142,o),
(450,142,cs),
(154,142,ls),
(125,142,o),
(107,127,o),
(107,98,cs),
(107,69,o),
(125,55,o),
(154,55,cs)
);
}
);
width = 575;
},
{
associatedMasterId = "2F065738-4B59-43EB-A5F2-FD5F277958EA";
hints = (
{
horizontal = 1;
place = (724,-20);
target = down;
type = TopGhost;
},
{
horizontal = 1;
place = (-23,71);
type = Stem;
},
{
place = (388,89);
type = Stem;
},
{
place = (51,90);
type = Stem;
},
{
horizontal = 1;
place = (652,72);
type = Stem;
},
{
horizontal = 1;
place = (-24,72);
type = Stem;
},
{
place = (367,90);
type = Stem;
}
);
layerId = "B32B41A8-9350-41F5-B8EA-5A3596821C41";
name = "15 Jan 24, 18:44";
shapes = (
{
closed = 1;
nodes = (
(446,59,ls),
(463,59,o),
(473,68,o),
(473,83,cs),
(473,98,o),
(463,107,o),
(446,107,cs),
(167,107,ls),
(143,107,o),
(133,98,o),
(133,83,cs),
(133,68,o),
(143,59,o),
(167,59,cs)
);
},
{
closed = 1;
nodes = (
(446,139,ls),
(463,139,o),
(473,148,o),
(473,163,cs),
(473,178,o),
(463,187,o),
(446,187,cs),
(167,187,ls),
(143,187,o),
(133,178,o),
(133,163,cs),
(133,148,o),
(143,139,o),
(167,139,cs)
);
},
{
ref = Y;
}
);
width = 567;
}
);
unicode = 165;
},
{
color = 7;
glyphname = plus;
kernLeft = KO_plus;
kernRight = KO_plus;
layers = (
{
layerId = "2F065738-4B59-43EB-A5F2-FD5F277958EA";
shapes = (
{
closed = 1;
nodes = (
(471,261,ls),
(513,261,o),
(539,281,o),
(539,323,cs),
(539,365,o),
(513,385,o),
(471,385,cs),
(88,385,ls),
(46,385,o),
(20,365,o),
(20,323,cs),
(20,281,o),
(46,261,o),
(88,261,cs)
);
},
{
closed = 1;
nodes = (
(342,514,ls),
(342,556,o),
(322,582,o),
(280,582,cs),
(238,582,o),
(218,556,o),
(218,514,cs),
(218,131,ls),
(218,89,o),
(238,63,o),
(280,63,cs),
(322,63,o),
(342,89,o),
(342,131,cs)
);
}
);
width = 559;
}
);
unicode = 43;
},
{
color = 7;
glyphname = minus;
kernLeft = KO_plus;
kernRight = KO_plus;
lastChange = "2024-01-24 20:36:31 +0000";
layers = (
{
layerId = "2F065738-4B59-43EB-A5F2-FD5F277958EA";
shapes = (
{
closed = 1;
nodes = (
(471,259,ls),
(513,259,o),
(539,279,o),
(539,321,cs),
(539,363,o),
(513,383,o),
(471,383,cs),
(88,383,ls),
(46,383,o),
(20,363,o),
(20,321,cs),
(20,279,o),
(46,259,o),
(88,259,cs)
);
}
);
width = 559;
}
);
unicode = 8722;
},
{
color = 7;
glyphname = multiply;
kernRight = KO_multiply;
lastChange = "2024-01-23 22:08:39 +0000";
layers = (
{
layerId = "2F065738-4B59-43EB-A5F2-FD5F277958EA";
shapes = (
{
closed = 1;
nodes = (
(42,181,ls),
(15,151,o),
(11,118,o),
(41,89,cs),
(72,60,o),
(105,66,o),
(133,96,cs),
(475,464,ls),
(502,494,o),
(507,527,o),
(477,556,cs),
(445,585,o),
(412,579,o),
(384,549,cs)
);
},
{
closed = 1;
nodes = (
(105,579,o),
(72,585,o),
(40,556,cs),
(10,527,o),
(15,494,o),
(42,464,cs),
(384,96,ls),
(412,66,o),
(445,60,o),
(476,89,cs),
(506,118,o),
(502,151,o),
(475,181,cs),
(133,549,ls)
);
}
);
width = 517;
}
);
unicode = 215;
},
{
color = 7;
glyphname = divide;
kernLeft = KO_plus;
kernRight = KO_plus;
lastChange = "2024-01-24 20:36:16 +0000";
layers = (
{
layerId = "2F065738-4B59-43EB-A5F2-FD5F277958EA";
shapes = (
{
closed = 1;
nodes = (
(323,435,o),
(352,464,o),
(352,506,cs),
(352,549,o),
(323,578,o),
(280,578,cs),
(236,578,o),
(208,549,o),
(208,506,cs),
(208,464,o),
(236,435,o),
(280,435,cs)
);
},
{
closed = 1;
nodes = (
(471,257,ls),
(513,257,o),
(539,277,o),
(539,319,cs),
(539,361,o),
(513,381,o),
(471,381,cs),
(88,381,ls),
(46,381,o),
(20,361,o),
(20,319,cs),
(20,277,o),
(46,257,o),
(88,257,cs)
);
},
{
closed = 1;
nodes = (
(323,59,o),
(352,88,o),
(352,130,cs),
(352,173,o),
(323,202,o),
(280,202,cs),
(236,202,o),
(208,173,o),
(208,130,cs),
(208,88,o),
(236,59,o),
(280,59,cs)
);
}
);
width = 559;
}
);
unicode = 247;
},
{
color = 7;
glyphname = equal;
kernRight = KO_equal;
lastChange = "2024-01-23 22:09:34 +0000";
layers = (
{
layerId = "2F065738-4B59-43EB-A5F2-FD5F277958EA";
shapes = (
{
closed = 1;
nodes = (
(471,372,ls),
(513,372,o),
(539,392,o),
(539,434,cs),
(539,476,o),
(513,496,o),
(471,496,cs),
(88,496,ls),
(46,496,o),
(20,476,o),
(20,434,cs),
(20,392,o),
(46,372,o),
(88,372,cs)
);
},
{
closed = 1;
nodes = (
(471,142,ls),
(513,142,o),
(539,162,o),
(539,204,cs),
(539,246,o),
(513,266,o),
(471,266,cs),
(88,266,ls),
(46,266,o),
(20,246,o),
(20,204,cs),
(20,162,o),
(46,142,o),
(88,142,cs)
);
}
);
width = 559;
}
);
unicode = 61;
},
{
color = 7;
glyphname = notequal;
lastChange = "2024-01-23 22:09:54 +0000";
layers = (
{
layerId = "2F065738-4B59-43EB-A5F2-FD5F277958EA";
shapes = (
{
closed = 1;
nodes = (
(147,38,o),
(163,47,o),
(176,67,cs),
(216,126,l),
(423,433,l),
(472,509,ls),
(477,518,o),
(481,530,o),
(481,540,cs),
(481,567,o),
(462,583,o),
(429,583,cs),
(409,583,o),
(394,573,o),
(381,553,cs),
(339,491,l),
(322,459,l),
(183,251,l),
(144,200,l),
(79,103,ls),
(75,96,o),
(73,89,o),
(73,83,cs),
(73,56,o),
(95,38,o),
(128,38,cs)
);
},
{
closed = 1;
nodes = (
(471,372,ls),
(513,372,o),
(539,392,o),
(539,434,cs),
(539,476,o),
(513,496,o),
(471,496,cs),
(88,496,ls),
(46,496,o),
(20,476,o),
(20,434,cs),
(20,392,o),
(46,372,o),
(88,372,cs)
);
},
{
closed = 1;
nodes = (
(471,142,ls),
(513,142,o),
(539,162,o),
(539,204,cs),
(539,246,o),
(513,266,o),
(471,266,cs),
(88,266,ls),
(46,266,o),
(20,246,o),
(20,204,cs),
(20,162,o),
(46,142,o),
(88,142,cs)
);
}
);
width = 559;
}
);
unicode = 8800;
},
{
color = 7;
glyphname = greater;
kernLeft = KO_greater;
kernRight = KO_greater;
lastChange = "2024-01-23 22:10:24 +0000";
layers = (
{
layerId = "2F065738-4B59-43EB-A5F2-FD5F277958EA";
shapes = (
{
closed = 1;
nodes = (
(359,265,ls),
(397,246,o),
(429,254,o),
(447,292,cs),
(464,331,o),
(449,358,o),
(411,377,cs),
(115,525,ls),
(77,544,o),
(45,536,o),
(27,498,cs),
(10,460,o),
(25,432,o),
(63,413,cs)
);
},
{
closed = 1;
nodes = (
(25,202,o),
(10,174,o),
(27,136,cs),
(45,98,o),
(77,90,o),
(115,109,cs),
(411,257,ls),
(449,276,o),
(464,303,o),
(447,342,cs),
(429,380,o),
(397,388,o),
(359,369,cs),
(63,221,ls)
);
}
);
width = 474;
}
);
unicode = 62;
},
{
color = 7;
glyphname = greaterequal;
lastChange = "2024-01-23 22:10:44 +0000";
layers = (
{
layerId = "2F065738-4B59-43EB-A5F2-FD5F277958EA";
shapes = (
{
pos = (10,129);
ref = greater;
},
{
closed = 1;
nodes = (
(385,23,ls),
(427,23,o),
(453,43,o),
(453,85,cs),
(453,127,o),
(427,147,o),
(385,147,cs),
(88,147,ls),
(46,147,o),
(20,127,o),
(20,85,cs),
(20,43,o),
(46,23,o),
(88,23,cs)
);
}
);
width = 484;
}
);
unicode = 8805;
},
{
color = 7;
glyphname = plusminus;
lastChange = "2024-01-23 22:10:55 +0000";
layers = (
{
layerId = "2F065738-4B59-43EB-A5F2-FD5F277958EA";
shapes = (
{
closed = 1;
nodes = (
(471,342,ls),
(513,342,o),
(539,362,o),
(539,404,cs),
(539,446,o),
(513,466,o),
(471,466,cs),
(88,466,ls),
(46,466,o),
(20,446,o),
(20,404,cs),
(20,362,o),
(46,342,o),
(88,342,cs)
);
},
{
closed = 1;
nodes = (
(342,533,ls),
(342,575,o),
(322,601,o),
(280,601,cs),
(238,601,o),
(218,575,o),
(218,533,cs),
(218,264,ls),
(218,222,o),
(238,196,o),
(280,196,cs),
(322,196,o),
(342,222,o),
(342,264,cs)
);
},
{
closed = 1;
nodes = (
(471,23,ls),
(513,23,o),
(539,43,o),
(539,85,cs),
(539,127,o),
(513,147,o),
(471,147,cs),
(88,147,ls),
(46,147,o),
(20,127,o),
(20,85,cs),
(20,43,o),
(46,23,o),
(88,23,cs)
);
}
);
width = 559;
}
);
unicode = 177;
},
{
color = 7;
glyphname = logicalnot;
kernLeft = KO_logicalnot;
kernRight = KO_logicalnot;
lastChange = "2024-01-24 20:33:56 +0000";
layers = (
{
layerId = "2F065738-4B59-43EB-A5F2-FD5F277958EA";
shapes = (
{
pos = (0,94);
ref = minus;
},
{
closed = 1;
nodes = (
(415,375,l),
(415,155,ls),
(415,113,o),
(435,87,o),
(477,87,cs),
(519,87,o),
(539,113,o),
(539,155,cs),
(539,415,l)
);
}
);
width = 559;
}
);
unicode = 172;
},
{
color = 7;
glyphname = asciicircum;
kernLeft = KO_asciicircum;
kernRight = KO_asciicircum;
layers = (
{
layerId = "2F065738-4B59-43EB-A5F2-FD5F277958EA";
shapes = (
{
closed = 1;
nodes = (
(290,376,ls),
(309,414,o),
(301,446,o),
(263,464,cs),
(224,481,o),
(197,466,o),
(178,428,cs),
(30,132,ls),
(11,94,o),
(19,62,o),
(57,44,cs),
(95,27,o),
(123,42,o),
(142,80,cs)
);
},
{
closed = 1;
nodes = (
(353,42,o),
(381,27,o),
(419,44,cs),
(457,62,o),
(465,94,o),
(446,132,cs),
(298,428,ls),
(279,466,o),
(252,481,o),
(213,464,cs),
(175,446,o),
(167,414,o),
(186,376,cs),
(334,80,ls)
);
}
);
width = 476;
}
);
unicode = 94;
},
{
color = 7;
glyphname = emptyset;
layers = (
{
layerId = "2F065738-4B59-43EB-A5F2-FD5F277958EA";
shapes = (
{
closed = 1;
nodes = (
(392,-8,cs),
(621,-8,o),
(734,146,o),
(734,352,cs),
(734,557,o),
(620,711,o),
(392,711,cs),
(155,711,o),
(38,557,o),
(38,352,cs),
(38,146,o),
(156,-8,o)
);
},
{
closed = 1;
nodes = (
(392,599,c),
(559,599,o),
(622,496,o),
(622,351,cs),
(622,207,o),
(559,103,o),
(392,103,c),
(216,103,o),
(150,207,o),
(150,351,cs),
(150,496,o),
(216,599,o)
);
},
{
closed = 1;
nodes = (
(325,-99,o),
(331,-73,o),
(341,-31,cs),
(389,164,o),
(495,531,o),
(542,711,cs),
(550,742,o),
(555,782,o),
(508,794,cs),
(457,807,o),
(442,768,o),
(431,726,cs),
(227,-31,ls),
(216,-73,o),
(247,-99,o),
(273,-99,cs)
);
}
);
width = 772;
}
);
unicode = 8709;
},
{
color = 7;
glyphname = infinity;
lastChange = "2024-01-24 20:37:39 +0000";
layers = (
{
anchors = (
{
name = bottom;
pos = (174,150);
},
{
name = ogonek;
pos = (182,146);
},
{
name = top;
pos = (437,576);
}
);
hints = (
{
horizontal = 1;
place = (549.726,54.56);
type = Stem;
},
{
horizontal = 1;
place = (436.277,55.426);
type = Stem;
},
{
horizontal = 1;
place = (251.813,62.354);
type = Stem;
},
{
place = (219.822,77.942);
type = Stem;
},
{
place = (-66.833,77.942);
type = Stem;
},
{
horizontal = 1;
place = (368.727,62.354);
type = Stem;
},
{
horizontal = 1;
place = (509.889,62.354);
type = Stem;
},
{
horizontal = 1;
place = (661.443,62.354);
type = Stem;
},
{
place = (-62.503,77.942);
type = Stem;
},
{
place = (220.688,77.942);
type = Stem;
},
{
place = (216.358,77.942);
type = Stem;
},
{
place = (-70.297,77.942);
type = Stem;
},
{
place = (-82.421,77.942);
type = Stem;
},
{
place = (200.769,77.942);
type = Stem;
},
{
place = (196.439,77.942);
type = Stem;
},
{
place = (-90.215,77.942);
type = Stem;
},
{
horizontal = 1;
place = (396.932,62.354);
type = Stem;
},
{
horizontal = 1;
place = (255.77,62.354);
type = Stem;
},
{
horizontal = 1;
place = (104.215,62.354);
type = Stem;
},
{
place = (462.492,77.942);
type = Stem;
},
{
place = (179.301,77.942);
type = Stem;
},
{
horizontal = 1;
place = (223.727,54.56);
type = Stem;
},
{
horizontal = 1;
place = (336.31,55.426);
type = Stem;
},
{
horizontal = 1;
place = (513.845,62.354);
type = Stem;
},
{
place = (183.631,77.942);
type = Stem;
},
{
place = (470.286,77.942);
type = Stem;
}
);
layerId = "2F065738-4B59-43EB-A5F2-FD5F277958EA";
shapes = (
{
closed = 1;
nodes = (
(35,177,o),
(114,94,o),
(229,94,cs),
(311,94,o),
(390,140,o),
(471,236,c),
(413,232,l),
(487,147,o),
(572,94,o),
(657,94,cs),
(775,94,o),
(847,188,o),
(847,292,cs),
(847,395,o),
(776,496,o),
(657,496,cs),
(572,496,o),
(484,442,o),
(415,359,c),
(467,357,l),
(397,444,o),
(307,496,o),
(229,496,cs),
(112,496,o),
(35,411,o),
(35,292,cs)
);
},
{
closed = 1;
nodes = (
(162,342,o),
(197,375,o),
(247,375,cs),
(288,375,o),
(322,352,o),
(368,295,c),
(324,241,o),
(288,217,o),
(247,217,cs),
(197,217,o),
(162,248,o),
(162,295,cs)
);
},
{
closed = 1;
nodes = (
(719,248,o),
(684,217,o),
(634,217,cs),
(593,217,o),
(557,241,o),
(513,295,c),
(559,352,o),
(593,375,o),
(634,375,cs),
(684,375,o),
(719,342,o),
(719,295,cs)
);
}
);
width = 882;
}
);
metricLeft = o;
metricRight = o;
unicode = 8734;
},
{
color = 7;
glyphname = percent;
kernLeft = KO_percent;
layers = (
{
layerId = "2F065738-4B59-43EB-A5F2-FD5F277958EA";
shapes = (
{
closed = 1;
nodes = (
(671,-5,o),
(721,47,o),
(721,187,cs),
(721,326,o),
(672,379,o),
(585,379,cs),
(498,379,o),
(449,326,o),
(449,187,cs),
(449,47,o),
(499,-5,o),
(585,-5,cs)
);
},
{
closed = 1;
nodes = (
(556,94,o),
(542,111,o),
(542,187,cs),
(542,262,o),
(556,280,o),
(585,280,cs),
(614,280,o),
(628,262,o),
(628,187,cs),
(628,111,o),
(614,94,o),
(585,94,cs)
);
},
{
closed = 1;
nodes = (
(328,209,o),
(497,457,o),
(607,621,cs),
(631,657,o),
(625,689,o),
(593,705,cs),
(564,720,o),
(546,710,o),
(515,671,cs),
(508,662,o),
(495,645,o),
(108,79,cs),
(84,43,o),
(98,10,o),
(132,-2,cs),
(163,-13,o),
(180,3,o),
(209,43,cs)
);
},
{
closed = 1;
nodes = (
(223,328,o),
(273,380,o),
(273,520,cs),
(273,659,o),
(224,712,o),
(137,712,cs),
(50,712,o),
(1,659,o),
(1,520,cs),
(1,380,o),
(51,328,o),
(137,328,cs)
);
},
{
closed = 1;
nodes = (
(108,427,o),
(94,444,o),
(94,520,cs),
(94,595,o),
(108,613,o),
(137,613,cs),
(166,613,o),
(180,595,o),
(180,520,cs),
(180,444,o),
(166,427,o),
(137,427,cs)
);
}
);
width = 725;
},
{
associatedMasterId = "2F065738-4B59-43EB-A5F2-FD5F277958EA";
layerId = "3BEEDF52-F3B6-44DE-981E-074354D58477";
name = "15 Jan 24, 18:41";
shapes = (
{
pos = (-23,331);
ref = zero;
scale = (0.5348,0.5348);
},
{
pos = (418,-3);
ref = zero;
scale = (0.5526,0.5526);
},
{
closed = 1;
nodes = (
(96,29,l),
(81,6,o),
(98,-8,o),
(124,-8,cs),
(168,-8,o),
(173,-12,o),
(233,85,c),
(582,643,l),
(609,684,o),
(600,711,o),
(574,711,cs),
(530,711,o),
(507,684,o),
(465,618,c)
);
}
);
width = 725;
}
);
unicode = 37;
},
{
color = 7;
glyphname = dieresiscomb;
layers = (
{
anchors = (
{
name = _top;
pos = (164,500);
},
{
name = top;
pos = (164,688);
}
);
layerId = "2F065738-4B59-43EB-A5F2-FD5F277958EA";
shapes = (
{
closed = 1;
nodes = (
(99,602,o),
(126,629,o),
(126,668,cs),
(126,708,o),
(99,735,o),
(59,735,cs),
(18,735,o),
(-9,708,o),
(-9,668,cs),
(-9,629,o),
(18,602,o),
(59,602,cs)
);
},
{
closed = 1;
nodes = (
(308,602,o),
(336,629,o),
(336,668,cs),
(336,708,o),
(308,735,o),
(268,735,cs),
(227,735,o),
(201,708,o),
(201,668,cs),
(201,629,o),
(227,602,o),
(268,602,cs)
);
}
);
width = 327;
}
);
unicode = 776;
},
{
color = 7;
glyphname = dotaccentcomb;
layers = (
{
anchors = (
{
name = _top;
pos = (72,500);
},
{
name = top;
pos = (72,728);
}
);
layerId = "2F065738-4B59-43EB-A5F2-FD5F277958EA";
shapes = (
{
closed = 1;
nodes = (
(122,594,o),
(159,630,o),
(159,677,cs),
(159,726,o),
(122,762,o),
(72,762,cs),
(22,762,o),
(-15,726,o),
(-15,677,cs),
(-15,630,o),
(22,594,o),
(72,594,cs)
);
}
);
width = 144;
}
);
unicode = 775;
},
{
color = 7;
glyphname = gravecomb;
lastChange = "2024-01-30 19:46:17 +0000";
layers = (
{
anchors = (
{
name = _top;
pos = (149,500);
},
{
name = top;
pos = (149,703);
}
);
associatedMasterId = "2F065738-4B59-43EB-A5F2-FD5F277958EA";
layerId = "77BDCAC9-490B-4D4A-A8E1-C43640CEC315";
name = "18 Dec 23, 14:11";
shapes = (
{
closed = 1;
nodes = (
(78,536,o),
(142,554,o),
(182,574,cs),
(238,602,o),
(276,639,o),
(276,666,cs),
(276,688,o),
(255,703,o),
(224,703,cs),
(184,703,o),
(134,683,o),
(94,651,c),
(53,620,o),
(22,580,o),
(22,559,cs),
(22,544,o),
(32,536,o),
(50,536,cs)
);
}
);
width = 287;
},
{
anchors = (
{
name = _top;
pos = (137,500);
},
{
name = top;
pos = (137,750);
}
);
layerId = "2F065738-4B59-43EB-A5F2-FD5F277958EA";
shapes = (
{
closed = 1;
nodes = (
(271,576,o),
(289,592,o),
(289,610,cs),
(289,621,o),
(283,632,o),
(266,641,cs),
(255,647,o),
(158,709,o),
(98,751,cs),
(88,758,o),
(78,760,o),
(70,760,cs),
(38,760,o),
(15,728,o),
(15,694,cs),
(15,669,o),
(30,650,o),
(67,632,cs),
(113,609,o),
(230,576,o),
(253,576,c)
);
}
);
width = 274;
}
);
unicode = 768;
},
{
color = 7;
glyphname = acutecomb;
lastChange = "2024-01-30 19:45:55 +0000";
layers = (
{
anchors = (
{
name = _top;
pos = (149,500);
},
{
name = top;
pos = (149,703);
}
);
associatedMasterId = "2F065738-4B59-43EB-A5F2-FD5F277958EA";
layerId = "77BDCAC9-490B-4D4A-A8E1-C43640CEC315";
name = "18 Dec 23, 14:11";
shapes = (
{
closed = 1;
nodes = (
(78,536,o),
(142,554,o),
(182,574,cs),
(238,602,o),
(276,639,o),
(276,666,cs),
(276,688,o),
(255,703,o),
(224,703,cs),
(184,703,o),
(134,683,o),
(94,651,c),
(53,620,o),
(22,580,o),
(22,559,cs),
(22,544,o),
(32,536,o),
(50,536,cs)
);
}
);
width = 287;
},
{
anchors = (
{
name = _top;
pos = (137,500);
},
{
name = top;
pos = (137,750);
}
);
layerId = "2F065738-4B59-43EB-A5F2-FD5F277958EA";
shapes = (
{
closed = 1;
nodes = (
(44,576,o),
(161,609,o),
(207,632,cs),
(244,650,o),
(259,669,o),
(259,694,cs),
(259,728,o),
(236,760,o),
(204,760,cs),
(196,760,o),
(186,758,o),
(176,751,cs),
(116,709,o),
(19,647,o),
(8,641,cs),
(-9,632,o),
(-15,621,o),
(-15,610,cs),
(-15,592,o),
(3,576,o),
(21,576,c)
);
}
);
width = 274;
}
);
unicode = 769;
},
{
color = 7;
glyphname = hungarumlautcomb;
lastChange = "2024-01-30 19:30:20 +0000";
layers = (
{
anchors = (
{
name = _top;
pos = (118,500);
},
{
name = top;
pos = (118,735);
}
);
layerId = "2F065738-4B59-43EB-A5F2-FD5F277958EA";
shapes = (
{
closed = 1;
nodes = (
(63,562,o),
(124,637,o),
(143,673,cs),
(159,701,o),
(160,720,o),
(149,736,cs),
(133,758,o),
(98,769,o),
(77,754,cs),
(72,750,o),
(67,745,o),
(63,736,cs),
(44,681,o),
(9,597,o),
(4,588,cs),
(-2,575,o),
(-1,565,o),
(4,558,cs),
(12,546,o),
(37,544,o),
(48,552,cs)
);
},
{
closed = 1;
nodes = (
(209,562,o),
(270,637,o),
(289,673,cs),
(305,701,o),
(306,720,o),
(295,736,cs),
(279,758,o),
(244,769,o),
(223,754,cs),
(218,750,o),
(213,745,o),
(209,736,cs),
(190,681,o),
(155,597,o),
(150,588,cs),
(144,575,o),
(145,565,o),
(150,558,cs),
(158,546,o),
(183,544,o),
(194,552,cs)
);
}
);
width = 299;
},
{
anchors = (
{
name = _top;
pos = (118,500);
},
{
name = top;
pos = (118,735);
}
);
associatedMasterId = "2F065738-4B59-43EB-A5F2-FD5F277958EA";
layerId = "B18EBA41-1FCB-48B0-84AC-70B93902BB25";
name = "22 Jan 24, 19:40";
shapes = (
{
closed = 1;
nodes = (
(202,561,o),
(213,568,o),
(221,583,cs),
(293,703,ls),
(309,735,o),
(295,755,o),
(256,755,cs),
(224,755,o),
(201,740,o),
(192,713,cs),
(160,618,o),
(151,590,o),
(150,581,cs),
(150,568,o),
(162,561,o),
(182,561,cs)
);
},
{
closed = 1;
nodes = (
(52,561,o),
(63,568,o),
(71,583,cs),
(143,703,ls),
(159,735,o),
(145,755,o),
(106,755,cs),
(74,755,o),
(51,740,o),
(42,713,cs),
(10,618,o),
(1,590,o),
(0,581,cs),
(0,568,o),
(12,561,o),
(32,561,cs)
);
}
);
width = 299;
}
);
unicode = 779;
},
{
color = 7;
glyphname = caroncomb.alt;
layers = (
{
anchors = (
{
name = _topright;
pos = (20,778);
}
);
layerId = "2F065738-4B59-43EB-A5F2-FD5F277958EA";
shapes = (
{
closed = 1;
nodes = (
(88,575,o),
(133,661,o),
(133,711,cs),
(133,747,o),
(108,762,o),
(83,762,cs),
(58,762,o),
(32,748,o),
(28,722,cs),
(12,632,o),
(1,569,o),
(1,573,cs),
(-1,552,o),
(3,545,o),
(12,536,cs),
(18,530,o),
(25,527,o),
(33,527,cs),
(43,527,o),
(52,532,o),
(59,540,cs)
);
}
);
width = 133;
}
);
},
{
color = 7;
glyphname = circumflexcomb;
layers = (
{
anchors = (
{
name = _top;
pos = (90,480);
},
{
name = top;
pos = (90,0);
}
);
associatedMasterId = "2F065738-4B59-43EB-A5F2-FD5F277958EA";
layerId = "135D611F-5929-42CE-A63B-783AB6D750B6";
name = "28 Dec 23 at 11:59";
shapes = (
{
closed = 0;
nodes = (
(261,602,l),
(269,602,o),
(367,551,o),
(420,525,c)
);
},
{
closed = 1;
nodes = (
(269,602,o),
(367,551,o),
(420,525,cs),
(444,513,o),
(469,513,o),
(493,536,cs),
(519,562,o),
(534,606,o),
(504,639,cs),
(497,647,o),
(486,654,o),
(477,658,cs),
(405,691,o),
(281,758,o),
(261,758,cs),
(240,758,o),
(115,691,o),
(42,658,cs),
(33,654,o),
(24,647,o),
(17,639,cs),
(-13,606,o),
(2,562,o),
(28,536,cs),
(50,513,o),
(77,513,o),
(102,525,cs),
(155,551,o),
(253,602,o),
(261,602,cs)
);
}
);
width = 521;
},
{
anchors = (
{
name = _top;
pos = (175,500);
},
{
name = top;
pos = (225,770);
}
);
layerId = "2F065738-4B59-43EB-A5F2-FD5F277958EA";
shapes = (
{
alignment = -1;
pos = (0,1344);
ref = caroncomb;
scale = (1,-1);
}
);
width = 350;
}
);
unicode = 770;
},
{
color = 7;
glyphname = caroncomb;
lastChange = "2024-01-23 22:05:30 +0000";
layers = (
{
anchors = (
{
name = _top;
pos = (0,480);
},
{
name = top;
}
);
associatedMasterId = "2F065738-4B59-43EB-A5F2-FD5F277958EA";
layerId = "ACEA389F-6D34-47F5-AC66-41E6B5407C60";
name = "28 Dec 23 at 11:26";
shapes = (
{
closed = 0;
nodes = (
(420,750,l),
(367,724,o),
(269,673,o),
(261,673,c)
);
},
{
closed = 1;
nodes = (
(253,673,o),
(155,724,o),
(102,750,cs),
(77,762,o),
(50,762,o),
(28,739,cs),
(2,713,o),
(-13,669,o),
(17,636,cs),
(24,628,o),
(33,621,o),
(42,617,cs),
(115,584,o),
(240,517,o),
(261,517,cs),
(281,517,o),
(405,584,o),
(477,617,cs),
(486,621,o),
(497,628,o),
(504,636,cs),
(534,669,o),
(519,713,o),
(493,739,cs),
(469,762,o),
(444,762,o),
(420,750,cs),
(367,724,o),
(269,673,o),
(261,673,cs)
);
}
);
width = 521;
},
{
anchors = (
{
name = _top;
pos = (175,500);
},
{
name = top;
pos = (175,754);
}
);
layerId = "2F065738-4B59-43EB-A5F2-FD5F277958EA";
shapes = (
{
closed = 1;
nodes = (
(296,641,ls),
(331,658,o),
(347,677,o),
(347,701,cs),
(347,735,o),
(324,756,o),
(293,756,cs),
(283,756,o),
(275,753,o),
(265,747,cs),
(175,690,l),
(85,747,ls),
(75,753,o),
(67,756,o),
(57,756,cs),
(26,756,o),
(4,735,o),
(4,701,cs),
(4,677,o),
(19,658,o),
(54,641,cs),
(124,605,ls),
(168,583,o),
(183,584,o),
(226,605,cs)
);
}
);
width = 350;
}
);
unicode = 780;
},
{
color = 7;
glyphname = brevecomb;
layers = (
{
anchors = (
{
name = _top;
pos = (140,500);
},
{
name = top;
pos = (140,770);
}
);
associatedMasterId = "2F065738-4B59-43EB-A5F2-FD5F277958EA";
layerId = "D46CF7B1-F8BA-473D-B1B5-CA6E2A1C0CA0";
name = "15 Jan 24, 18:55";
shapes = (
{
closed = 1;
nodes = (
(213,581,o),
(279,625,o),
(279,707,cs),
(279,754,o),
(261,770,o),
(238,770,cs),
(206,770,o),
(190,755,o),
(190,737,cs),
(190,719,o),
(194,717,o),
(194,700,cs),
(194,679,o),
(167,664,o),
(140,664,cs),
(112,664,o),
(85,679,o),
(85,700,cs),
(85,717,o),
(90,719,o),
(90,737,cs),
(90,755,o),
(73,770,o),
(41,770,cs),
(18,770,o),
(0,753,o),
(0,707,cs),
(0,624,o),
(67,581,o),
(140,581,cs)
);
}
);
width = 322;
},
{
anchors = (
{
name = _top;
pos = (150,500);
},
{
name = top;
pos = (150,770);
}
);
layerId = "2F065738-4B59-43EB-A5F2-FD5F277958EA";
name = Bold;
shapes = (
{
closed = 1;
nodes = (
(205,691,o),
(187,670,o),
(149,670,cs),
(111,670,o),
(93,691,o),
(96,711,cs),
(102,749,o),
(84,770,o),
(49,770,cs),
(26,770,o),
(0,754,o),
(0,707,cs),
(0,625,o),
(65,581,o),
(149,581,cs),
(233,581,o),
(299,625,o),
(299,707,cs),
(299,754,o),
(272,770,o),
(249,770,cs),
(214,770,o),
(196,749,o),
(202,711,cs)
);
}
);
width = 299;
},
{
anchors = (
{
name = _top;
pos = (150,500);
},
{
name = top;
pos = (150,770);
}
);
associatedMasterId = "2F065738-4B59-43EB-A5F2-FD5F277958EA";
layerId = "EC32111C-6EC9-4E2F-B1A1-2CC56906ADE7";
name = "20 Jan 24 at 16:49";
shapes = (
{
closed = 1;
nodes = (
(233,581,o),
(299,625,o),
(299,707,cs),
(299,754,o),
(272,770,o),
(249,770,cs),
(214,770,o),
(196,745,o),
(202,707,cs),
(205,687,o),
(187,670,o),
(150,670,cs),
(117,670,o),
(95,686,o),
(95,707,cs),
(95,723,o),
(100,723,o),
(100,737,cs),
(100,753,o),
(83,770,o),
(41,770,cs),
(18,770,o),
(0,753,o),
(0,707,cs),
(0,624,o),
(67,581,o),
(150,581,cs)
);
}
);
width = 299;
}
);
unicode = 774;
},
{
color = 7;
glyphname = ringcomb;
layers = (
{
anchors = (
{
name = _top;
pos = (113,500);
},
{
name = top;
pos = (117,735);
}
);
layerId = "2F065738-4B59-43EB-A5F2-FD5F277958EA";
shapes = (
{
closed = 1;
nodes = (
(177,565,o),
(225,613,o),
(225,678,cs),
(225,742,o),
(177,790,o),
(112,790,cs),
(48,790,o),
(0,742,o),
(0,678,cs),
(0,613,o),
(48,565,o),
(112,565,cs)
);
},
{
closed = 1;
nodes = (
(90,640,o),
(75,655,o),
(75,678,cs),
(75,700,o),
(90,715,o),
(113,715,cs),
(135,715,o),
(150,700,o),
(150,678,cs),
(150,655,o),
(135,640,o),
(113,640,cs)
);
}
);
width = 225;
}
);
unicode = 778;
},
{
color = 7;
glyphname = tildecomb;
layers = (
{
anchors = (
{
name = _top;
pos = (159,500);
},
{
name = top;
pos = (159,721);
}
);
associatedMasterId = "2F065738-4B59-43EB-A5F2-FD5F277958EA";
layerId = "90591420-EFDC-4C51-ADC5-3BEC1B35B99F";
name = "8 Jan 24 at 01:43";
shapes = (
{
closed = 1;
nodes = (
(268,551,o),
(317,586,o),
(317,630,cs),
(317,659,o),
(296,672,o),
(266,672,cs),
(214,672,o),
(225,623,o),
(211,623,cs),
(207,623,o),
(206,634,o),
(206,636,cs),
(206,691,o),
(159,721,o),
(104,721,cs),
(44,721,o),
(0,683,o),
(0,642,cs),
(0,613,o),
(21,600,o),
(51,600,cs),
(102,600,o),
(103,638,o),
(103,649,cs),
(103,650,ls),
(103,654,o),
(108,650,o),
(108,636,cs),
(108,586,o),
(155,551,o),
(213,551,cs)
);
}
);
width = 317;
},
{
anchors = (
{
name = _top;
pos = (150,500);
},
{
name = top;
pos = (150,710);
}
);
associatedMasterId = "2F065738-4B59-43EB-A5F2-FD5F277958EA";
layerId = "2BB95AFD-59C0-4BB4-8789-2BD392B59F92";
name = "15 Jan 24, 19:08";
shapes = (
{
closed = 1;
nodes = (
(221,599,o),
(229,601,o),
(237,606,cs),
(266,625,o),
(287,656,o),
(287,680,cs),
(287,697,o),
(276,706,o),
(257,706,cs),
(246,706,o),
(235,699,o),
(223,684,cs),
(217,677,o),
(209,674,o),
(199,674,cs),
(183,674,o),
(164,682,o),
(146,696,cs),
(134,705,o),
(119,710,o),
(102,710,cs),
(90,710,o),
(77,707,o),
(64,702,cs),
(33,688,o),
(13,661,o),
(13,633,cs),
(13,621,o),
(17,611,o),
(23,607,cs),
(33,601,o),
(37,600,o),
(42,600,cs),
(51,600,o),
(62,606,o),
(80,621,cs),
(87,627,o),
(95,630,o),
(107,630,cs),
(120,630,o),
(139,624,o),
(150,617,cs),
(166,606,o),
(191,599,o),
(210,599,cs)
);
}
);
width = 330;
},
{
anchors = (
{
name = _top;
pos = (186,500);
},
{
name = top;
pos = (186,709);
}
);
layerId = "2F065738-4B59-43EB-A5F2-FD5F277958EA";
name = Bold;
shapes = (
{
closed = 1;
nodes = (
(91,572,o),
(83,618,o),
(123,618,cs),
(138,618,o),
(153,608,o),
(168,600,cs),
(192,587,o),
(210,571,o),
(256,571,cs),
(327,571,o),
(372,627,o),
(372,668,cs),
(372,691,o),
(357,710,o),
(322,710,cs),
(281,710,o),
(289,664,o),
(249,664,cs),
(234,664,o),
(219,673,o),
(204,682,cs),
(181,695,o),
(162,711,o),
(116,711,cs),
(45,711,o),
(0,655,o),
(0,614,cs),
(0,591,o),
(15,572,o),
(50,572,cs)
);
}
);
width = 372;
}
);
unicode = 771;
},
{
color = 7;
glyphname = macroncomb;
layers = (
{
anchors = (
{
name = _top;
pos = (161,500);
},
{
name = top;
pos = (161,695);
}
);
hints = (
{
horizontal = 1;
place = (710,81);
type = Stem;
},
{
place = (50,312);
type = Stem;
}
);
layerId = "2F065738-4B59-43EB-A5F2-FD5F277958EA";
shapes = (
{
closed = 1;
nodes = (
(271,590,ls),
(302,590,o),
(322,605,o),
(322,643,cs),
(322,680,o),
(302,695,o),
(271,695,cs),
(51,695,ls),
(20,695,o),
(0,680,o),
(0,643,cs),
(0,605,o),
(20,590,o),
(51,590,cs)
);
}
);
width = 322;
}
);
unicode = 772;
},
{
color = 7;
glyphname = commaturnedabovecomb;
lastChange = "2024-01-30 19:47:07 +0000";
layers = (
{
anchors = (
{
name = _top;
pos = (57,500);
},
{
name = top;
pos = (57,745);
}
);
layerId = "2F065738-4B59-43EB-A5F2-FD5F277958EA";
shapes = (
{
angle = -172.10001;
pos = (162,672);
ref = comma;
scale = (0.7,0.7);
}
);
width = 144;
},
{
anchors = (
{
name = _top;
pos = (72,500);
},
{
name = top;
pos = (72,745);
}
);
associatedMasterId = "2F065738-4B59-43EB-A5F2-FD5F277958EA";
layerId = "F8C6A73B-D62F-4E36-9C29-8AF8832AB976";
name = "22 Jan 24, 19:53";
shapes = (
{
closed = 1;
nodes = (
(90,565,o),
(116,582,o),
(126,614,cs),
(159,724,o),
(169,757,o),
(169,767,cs),
(169,782,o),
(155,790,o),
(132,790,cs),
(108,790,o),
(96,782,o),
(86,765,cs),
(8,625,ls),
(-12,589,o),
(7,565,o),
(53,565,cs)
);
}
);
width = 144;
}
);
unicode = 786;
},
{
color = 7;
glyphname = dotbelowcomb;
layers = (
{
anchors = (
{
name = _bottom;
pos = (62,0);
},
{
name = bottom;
pos = (62,-185);
}
);
layerId = "2F065738-4B59-43EB-A5F2-FD5F277958EA";
shapes = (
{
closed = 1;
nodes = (
(102,-189,o),
(129,-163,o),
(129,-124,cs),
(129,-84,o),
(102,-58,o),
(62,-58,cs),
(21,-58,o),
(-5,-84,o),
(-5,-124,cs),
(-5,-163,o),
(21,-189,o),
(62,-189,cs)
);
}
);
width = 124;
}
);
unicode = 803;
},
{
color = 7;
glyphname = cedillacomb;
lastChange = "2024-01-31 21:44:46 +0000";
layers = (
{
anchors = (
{
name = _bottom;
pos = (116,0);
},
{
name = bottom;
pos = (56,-230);
}
);
layerId = "2F065738-4B59-43EB-A5F2-FD5F277958EA";
shapes = (
{
closed = 1;
nodes = (
(170,-239,o),
(222,-200,o),
(224,-133,cs),
(225,-88,o),
(192,-45,o),
(151,-39,c),
(190,36,l),
(104,43,l),
(79,10,o),
(53,-41,o),
(52,-59,cs),
(52,-71,o),
(59,-79,o),
(71,-80,cs),
(111,-82,o),
(141,-99,o),
(140,-121,cs),
(139,-141,o),
(123,-152,o),
(90,-151,cs),
(70,-150,o),
(61,-139,o),
(41,-139,cs),
(15,-138,o),
(0,-156,o),
(0,-177,cs),
(-2,-212,o),
(31,-233,o),
(90,-236,cs)
);
}
);
width = 210;
}
);
unicode = 807;
},
{
color = 7;
glyphname = ogonekcomb;
lastChange = "2024-01-30 19:45:13 +0000";
layers = (
{
anchors = (
{
name = _ogonek;
pos = (133,0);
}
);
associatedMasterId = "2F065738-4B59-43EB-A5F2-FD5F277958EA";
layerId = "F5232B2E-E447-4CE5-86EE-2C4A476EEE73";
name = "15 Jan 24, 18:52";
shapes = (
{
closed = 1;
nodes = (
(171,-207,o),
(190,-191,o),
(190,-165,cs),
(190,-142,o),
(176,-128,o),
(154,-128,cs),
(135,-128,o),
(122,-112,o),
(122,-89,cs),
(122,-63,o),
(135,-43,o),
(186,10,c),
(190,20,o),
(181,21,o),
(149,21,cs),
(129,21,o),
(109,18,o),
(101,10,cs),
(62,-29,o),
(43,-66,o),
(43,-112,cs),
(43,-161,o),
(85,-207,o),
(139,-207,cs)
);
}
);
width = 233;
},
{
anchors = (
{
name = _ogonek;
pos = (161,0);
}
);
layerId = "2F065738-4B59-43EB-A5F2-FD5F277958EA";
name = Bold;
shapes = (
{
closed = 1;
nodes = (
(235,-256,o),
(258,-233,o),
(258,-201,cs),
(258,-176,o),
(243,-159,o),
(218,-157,cs),
(164,-153,o),
(132,-133,o),
(132,-102,cs),
(132,-72,o),
(166,-22,o),
(215,9,cs),
(235,21,o),
(235,44,o),
(235,87,c),
(132,12,l),
(73,-20,o),
(43,-73,o),
(43,-140,cs),
(43,-208,o),
(109,-256,o),
(203,-256,cs)
);
}
);
width = 301;
},
{
anchors = (
{
name = _ogonek;
pos = (100,0);
}
);
associatedMasterId = "2F065738-4B59-43EB-A5F2-FD5F277958EA";
layerId = "D1B90783-E876-4032-A1AD-CA94A62E415A";
name = "22 Jan 24, 19:35";
shapes = (
{
closed = 1;
nodes = (
(161,-230,o),
(178,-205,o),
(178,-181,cs),
(178,-160,o),
(165,-141,o),
(141,-141,cs),
(100,-141,o),
(79,-125,o),
(79,-99,cs),
(79,-70,o),
(94,-48,o),
(153,10,c),
(157,20,o),
(148,21,o),
(116,21,cs),
(96,21,o),
(76,18,o),
(68,10,cs),
(24,-33,o),
(0,-81,o),
(0,-135,cs),
(0,-194,o),
(55,-230,o),
(126,-230,cs)
);
}
);
width = 178;
}
);
metricLeft = period;
metricRight = period;
unicode = 808;
},
